RosaSans-Black.ufo
<glyph name="exclam" format="2">
  <advance width="720"/>
  <unicode hex="0021"/>
  <outline>
    <contour>
      <point x="183" y="536" type="line"/>
      <point x="119" y="1440" type="line"/>
      <point x="601" y="1440" type="line"/>
      <point x="539" y="536" type="line"/>
    </contour>
    <contour>
      <point x="360" y="-30" type="qcurve" smooth="yes"/>
      <point x="312" y="-30"/>
      <point x="232" y="1"/>
      <point x="196" y="31" type="qcurve" smooth="yes"/>
      <point x="162" y="60"/>
      <point x="126" y="140"/>
      <point x="126" y="192" type="qcurve" smooth="yes"/>
      <point x="126" y="227"/>
      <point x="143" y="288"/>
      <point x="159" y="312" type="qcurve"/>
      <point x="191" y="363"/>
      <point x="297" y="416"/>
      <point x="360" y="416" type="qcurve" smooth="yes"/>
      <point x="408" y="416"/>
      <point x="491" y="387"/>
      <point x="525" y="357" type="qcurve"/>
      <point x="561" y="328"/>
      <point x="594" y="245"/>
      <point x="594" y="192" type="qcurve" smooth="yes"/>
      <point x="594" y="157"/>
      <point x="579" y="98"/>
      <point x="562" y="73" type="qcurve"/>
      <point x="531" y="23"/>
      <point x="423" y="-30"/>
    </contour>
  </outline>
</glyph>
<glyph name="dollar" format="2">
  <advance width="1296"/>
  <unicode hex="0024"/>
  <anchor x="686" y="1400" name="top"/>
  <anchor x="662" y="0" name="bottom"/>
  <outline>
    <contour>
      <point x="672" y="-30" type="curve" smooth="yes"/>
      <point x="571" y="-30"/>
      <point x="472" y="-15"/>
      <point x="375" y="17" type="curve" smooth="yes"/>
      <point x="278" y="48"/>
      <point x="196" y="92"/>
      <point x="130" y="151" type="curve"/>
      <point x="282" y="394" type="line"/>
      <point x="311" y="363"/>
      <point x="347" y="336"/>
      <point x="391" y="313" type="curve" smooth="yes"/>
      <point x="478" y="268"/>
      <point x="581" y="242"/>
      <point x="672" y="242" type="curve" smooth="yes"/>
      <point x="746" y="242"/>
      <point x="805" y="254"/>
      <point x="848" y="279" type="curve" smooth="yes"/>
      <point x="891" y="303"/>
      <point x="912" y="337"/>
      <point x="912" y="382" type="curve" smooth="yes"/>
      <point x="912" y="426"/>
      <point x="895" y="462"/>
      <point x="861" y="489" type="curve" smooth="yes"/>
      <point x="827" y="516"/>
      <point x="767" y="539"/>
      <point x="682" y="558" type="curve"/>
      <point x="553" y="577" type="line"/>
      <point x="414" y="616"/>
      <point x="313" y="672"/>
      <point x="252" y="743" type="curve" smooth="yes"/>
      <point x="191" y="814"/>
      <point x="160" y="898"/>
      <point x="160" y="996" type="curve" smooth="yes"/>
      <point x="160" y="1079"/>
      <point x="182" y="1154"/>
      <point x="227" y="1219" type="curve" smooth="yes"/>
      <point x="271" y="1284"/>
      <point x="332" y="1335"/>
      <point x="409" y="1372" type="curve" smooth="yes"/>
      <point x="486" y="1409"/>
      <point x="574" y="1428"/>
      <point x="672" y="1428" type="curve" smooth="yes"/>
      <point x="774" y="1428"/>
      <point x="869" y="1413"/>
      <point x="957" y="1383" type="curve" smooth="yes"/>
      <point x="1044" y="1352"/>
      <point x="1114" y="1311"/>
      <point x="1167" y="1258" type="curve"/>
      <point x="1010" y="1024" type="line"/>
      <point x="974" y="1063"/>
      <point x="926" y="1095"/>
      <point x="865" y="1120" type="curve" smooth="yes"/>
      <point x="804" y="1144"/>
      <point x="741" y="1156"/>
      <point x="676" y="1156" type="curve" smooth="yes"/>
      <point x="628" y="1156"/>
      <point x="587" y="1150"/>
      <point x="554" y="1139" type="curve" smooth="yes"/>
      <point x="487" y="1115"/>
      <point x="452" y="1071"/>
      <point x="452" y="1012" type="curve" smooth="yes"/>
      <point x="452" y="967"/>
      <point x="467" y="933"/>
      <point x="498" y="908" type="curve" smooth="yes"/>
      <point x="528" y="883"/>
      <point x="588" y="860"/>
      <point x="679" y="839" type="curve"/>
      <point x="816" y="824" type="line"/>
      <point x="945" y="788"/>
      <point x="1043" y="738"/>
      <point x="1108" y="675" type="curve" smooth="yes"/>
      <point x="1173" y="611"/>
      <point x="1206" y="525"/>
      <point x="1206" y="418" type="curve" smooth="yes"/>
      <point x="1206" y="329"/>
      <point x="1184" y="251"/>
      <point x="1141" y="184" type="curve" smooth="yes"/>
      <point x="1053" y="49"/>
      <point x="889" y="-30"/>
    </contour>
    <contour>
      <point x="554" y="-160" type="line"/>
      <point x="554" y="1560" type="line"/>
      <point x="816" y="1560" type="line"/>
      <point x="816" y="-160" type="line"/>
    </contour>
  </outline>
</glyph>
<glyph name="percent" format="2">
  <advance width="2104"/>
  <unicode hex="0025"/>
  <outline>
    <contour>
      <point x="770" y="-40" type="line"/>
      <point x="570" y="78" type="line"/>
      <point x="1334" y="1440" type="line"/>
      <point x="1534" y="1326" type="line"/>
    </contour>
    <contour>
      <point x="446" y="606" type="qcurve" smooth="yes"/>
      <point x="387" y="606"/>
      <point x="284" y="634"/>
      <point x="236" y="660" type="qcurve"/>
      <point x="188" y="688"/>
      <point x="114" y="760"/>
      <point x="86" y="807" type="qcurve" smooth="yes"/>
      <point x="59" y="854"/>
      <point x="30" y="957"/>
      <point x="30" y="1014" type="qcurve" smooth="yes"/>
      <point x="30" y="1071"/>
      <point x="59" y="1175"/>
      <point x="86" y="1220" type="qcurve" smooth="yes"/>
      <point x="115" y="1266"/>
      <point x="188" y="1340"/>
      <point x="236" y="1366" type="qcurve"/>
      <point x="284" y="1394"/>
      <point x="387" y="1420"/>
      <point x="446" y="1420" type="qcurve" smooth="yes"/>
      <point x="505" y="1420"/>
      <point x="610" y="1394"/>
      <point x="657" y="1366" type="qcurve" smooth="yes"/>
      <point x="704" y="1339"/>
      <point x="778" y="1266"/>
      <point x="805" y="1220" type="qcurve"/>
      <point x="834" y="1175"/>
      <point x="860" y="1071"/>
      <point x="860" y="1014" type="qcurve" smooth="yes"/>
      <point x="860" y="957"/>
      <point x="834" y="854"/>
      <point x="805" y="809" type="qcurve"/>
      <point x="750" y="714"/>
      <point x="564" y="606"/>
    </contour>
    <contour>
      <point x="446" y="852" type="qcurve" smooth="yes"/>
      <point x="469" y="852"/>
      <point x="509" y="864"/>
      <point x="528" y="875" type="qcurve" smooth="yes"/>
      <point x="564" y="895"/>
      <point x="604" y="968"/>
      <point x="604" y="1014" type="qcurve" smooth="yes"/>
      <point x="604" y="1049"/>
      <point x="582" y="1107"/>
      <point x="560" y="1130" type="qcurve" smooth="yes"/>
      <point x="537" y="1153"/>
      <point x="481" y="1174"/>
      <point x="446" y="1174" type="qcurve" smooth="yes"/>
      <point x="423" y="1174"/>
      <point x="382" y="1165"/>
      <point x="365" y="1155" type="qcurve" smooth="yes"/>
      <point x="329" y="1134"/>
      <point x="288" y="1062"/>
      <point x="288" y="1014" type="qcurve" smooth="yes"/>
      <point x="288" y="979"/>
      <point x="311" y="920"/>
      <point x="334" y="897" type="qcurve" smooth="yes"/>
      <point x="356" y="874"/>
      <point x="411" y="852"/>
    </contour>
    <contour>
      <point x="1660" y="-20" type="qcurve" smooth="yes"/>
      <point x="1601" y="-20"/>
      <point x="1498" y="8"/>
      <point x="1450" y="35" type="qcurve" smooth="yes"/>
      <point x="1402" y="62"/>
      <point x="1328" y="135"/>
      <point x="1300" y="183" type="qcurve" smooth="yes"/>
      <point x="1273" y="228"/>
      <point x="1244" y="331"/>
      <point x="1244" y="388" type="qcurve" smooth="yes"/>
      <point x="1244" y="445"/>
      <point x="1273" y="549"/>
      <point x="1300" y="594" type="qcurve" smooth="yes"/>
      <point x="1329" y="640"/>
      <point x="1402" y="714"/>
      <point x="1450" y="740" type="qcurve"/>
      <point x="1498" y="768"/>
      <point x="1601" y="794"/>
      <point x="1660" y="794" type="qcurve" smooth="yes"/>
      <point x="1719" y="794"/>
      <point x="1824" y="768"/>
      <point x="1871" y="740" type="qcurve" smooth="yes"/>
      <point x="1918" y="713"/>
      <point x="1992" y="640"/>
      <point x="2019" y="594" type="qcurve"/>
      <point x="2048" y="549"/>
      <point x="2074" y="445"/>
      <point x="2074" y="388" type="qcurve" smooth="yes"/>
      <point x="2074" y="331"/>
      <point x="2048" y="228"/>
      <point x="2019" y="183" type="qcurve"/>
      <point x="1964" y="88"/>
      <point x="1778" y="-20"/>
    </contour>
    <contour>
      <point x="1660" y="226" type="qcurve" smooth="yes"/>
      <point x="1683" y="226"/>
      <point x="1723" y="238"/>
      <point x="1742" y="249" type="qcurve" smooth="yes"/>
      <point x="1778" y="269"/>
      <point x="1818" y="342"/>
      <point x="1818" y="388" type="qcurve" smooth="yes"/>
      <point x="1818" y="423"/>
      <point x="1796" y="481"/>
      <point x="1774" y="504" type="qcurve" smooth="yes"/>
      <point x="1751" y="527"/>
      <point x="1695" y="548"/>
      <point x="1660" y="548" type="qcurve" smooth="yes"/>
      <point x="1637" y="548"/>
      <point x="1596" y="539"/>
      <point x="1579" y="529" type="qcurve" smooth="yes"/>
      <point x="1543" y="508"/>
      <point x="1502" y="436"/>
      <point x="1502" y="388" type="qcurve" smooth="yes"/>
      <point x="1502" y="353"/>
      <point x="1525" y="295"/>
      <point x="1546" y="272" type="qcurve"/>
      <point x="1569" y="250"/>
      <point x="1625" y="226"/>
    </contour>
  </outline>
</glyph>
<glyph name="ampersand" format="2">
  <advance width="1558"/>
  <unicode hex="0026"/>
  <outline>
    <contour>
      <point x="562" y="-30" type="curve" smooth="yes"/>
      <point x="470" y="-30"/>
      <point x="388" y="-12"/>
      <point x="317" y="26" type="curve" smooth="yes"/>
      <point x="174" y="100"/>
      <point x="88" y="232"/>
      <point x="88" y="396" type="curve" smooth="yes"/>
      <point x="88" y="449"/>
      <point x="99" y="499"/>
      <point x="120" y="546" type="curve" smooth="yes"/>
      <point x="162" y="641"/>
      <point x="242" y="722"/>
      <point x="358" y="782" type="curve"/>
      <point x="330" y="813"/>
      <point x="307" y="844"/>
      <point x="290" y="874" type="curve"/>
      <point x="254" y="933"/>
      <point x="238" y="991"/>
      <point x="238" y="1054" type="curve" smooth="yes"/>
      <point x="238" y="1125"/>
      <point x="257" y="1188"/>
      <point x="295" y="1245" type="curve" smooth="yes"/>
      <point x="370" y="1358"/>
      <point x="505" y="1430"/>
      <point x="666" y="1430" type="curve" smooth="yes"/>
      <point x="745" y="1430"/>
      <point x="816" y="1416"/>
      <point x="879" y="1387" type="curve" smooth="yes"/>
      <point x="1006" y="1329"/>
      <point x="1086" y="1221"/>
      <point x="1086" y="1084" type="curve" smooth="yes"/>
      <point x="1086" y="951"/>
      <point x="1009" y="841"/>
      <point x="838" y="738" type="curve"/>
      <point x="998" y="570" type="line"/>
      <point x="1033" y="613"/>
      <point x="1064" y="659"/>
      <point x="1091" y="708" type="curve" smooth="yes"/>
      <point x="1118" y="756"/>
      <point x="1143" y="816"/>
      <point x="1168" y="888" type="curve"/>
      <point x="1474" y="772" type="line"/>
      <point x="1458" y="728"/>
      <point x="1435" y="680"/>
      <point x="1406" y="627" type="curve" smooth="yes"/>
      <point x="1347" y="521"/>
      <point x="1273" y="413"/>
      <point x="1202" y="340" type="curve"/>
      <point x="1510" y="0" type="line"/>
      <point x="1074" y="0" type="line"/>
      <point x="966" y="114" type="line"/>
      <point x="911" y="70"/>
      <point x="847" y="35"/>
      <point x="774" y="9" type="curve" smooth="yes"/>
      <point x="701" y="-17"/>
      <point x="630" y="-30"/>
    </contour>
    <contour>
      <point x="596" y="286" type="curve" smooth="yes"/>
      <point x="651" y="286"/>
      <point x="712" y="310"/>
      <point x="760" y="346" type="curve"/>
      <point x="554" y="564" type="line"/>
      <point x="486" y="531"/>
      <point x="444" y="471"/>
      <point x="444" y="412" type="curve" smooth="yes"/>
      <point x="444" y="375"/>
      <point x="458" y="345"/>
      <point x="487" y="322" type="curve" smooth="yes"/>
      <point x="516" y="298"/>
      <point x="552" y="286"/>
    </contour>
    <contour>
      <point x="650" y="922" type="curve"/>
      <point x="729" y="953"/>
      <point x="770" y="1001"/>
      <point x="770" y="1054" type="curve" smooth="yes"/>
      <point x="770" y="1084"/>
      <point x="761" y="1108"/>
      <point x="742" y="1126" type="curve" smooth="yes"/>
      <point x="723" y="1143"/>
      <point x="698" y="1152"/>
      <point x="666" y="1152" type="curve" smooth="yes"/>
      <point x="635" y="1152"/>
      <point x="610" y="1143"/>
      <point x="591" y="1126" type="curve" smooth="yes"/>
      <point x="572" y="1109"/>
      <point x="562" y="1085"/>
      <point x="562" y="1056" type="curve" smooth="yes"/>
      <point x="562" y="1036"/>
      <point x="570" y="1014"/>
      <point x="585" y="990" type="curve" smooth="yes"/>
      <point x="600" y="966"/>
      <point x="622" y="943"/>
    </contour>
  </outline>
</glyph>
<glyph name="quotesingle" format="2">
  <advance width="516"/>
  <unicode hex="0027"/>
  <outline>
    <contour>
      <point x="119" y="702" type="line"/>
      <point x="79" y="1400" type="line"/>
      <point x="439" y="1400" type="line"/>
      <point x="399" y="702" type="line"/>
    </contour>
  </outline>
</glyph>
<glyph name="parenleft" format="2">
  <advance width="732"/>
  <unicode hex="0028"/>
  <outline>
    <contour>
      <point x="348" y="-230" type="line"/>
      <point x="224" y="-9"/>
      <point x="100" y="455"/>
      <point x="100" y="692" type="qcurve"/>
      <point x="100" y="849"/>
      <point x="155" y="1160"/>
      <point x="265" y="1464"/>
      <point x="348" y="1610" type="qcurve"/>
      <point x="662" y="1498" type="line"/>
      <point x="609" y="1412"/>
      <point x="529" y="1220"/>
      <point x="476" y="1016"/>
      <point x="450" y="803"/>
      <point x="450" y="696" type="qcurve"/>
      <point x="450" y="479"/>
      <point x="557" y="59"/>
      <point x="662" y="-118" type="qcurve"/>
    </contour>
  </outline>
</glyph>
<glyph name="parenright" format="2">
  <advance width="732"/>
  <unicode hex="0029"/>
  <outline>
    <contour>
      <point x="384" y="1610" type="line"/>
      <point x="447" y="1499"/>
      <point x="539" y="1274"/>
      <point x="570" y="1157" type="qcurve" smooth="yes"/>
      <point x="601" y="1040"/>
      <point x="632" y="807"/>
      <point x="632" y="688" type="qcurve" smooth="yes"/>
      <point x="632" y="609"/>
      <point x="618" y="453"/>
      <point x="604" y="375" type="qcurve" smooth="yes"/>
      <point x="577" y="219"/>
      <point x="468" y="-82"/>
      <point x="384" y="-230" type="qcurve"/>
      <point x="70" y="-118" type="line"/>
      <point x="125" y="-30"/>
      <point x="204" y="159"/>
      <point x="229" y="263" type="qcurve"/>
      <point x="256" y="365"/>
      <point x="282" y="576"/>
      <point x="282" y="684" type="qcurve" smooth="yes"/>
      <point x="282" y="793"/>
      <point x="256" y="1005"/>
      <point x="229" y="1111" type="qcurve" smooth="yes"/>
      <point x="202" y="1218"/>
      <point x="123" y="1410"/>
      <point x="70" y="1498" type="qcurve"/>
    </contour>
  </outline>
</glyph>
<glyph name="comma" format="2">
  <advance width="600"/>
  <unicode hex="002C"/>
  <outline>
    <contour>
      <point x="35" y="-238" type="line"/>
      <point x="99" y="-213"/>
      <point x="156" y="-180"/>
      <point x="207" y="-139" type="curve" smooth="yes"/>
      <point x="257" y="-98"/>
      <point x="295" y="-56"/>
      <point x="320" y="-14" type="curve"/>
      <point x="274" y="-17"/>
      <point x="232" y="-10"/>
      <point x="194" y="7" type="curve"/>
      <point x="117" y="39"/>
      <point x="67" y="104"/>
      <point x="67" y="191" type="curve" smooth="yes"/>
      <point x="67" y="259"/>
      <point x="88" y="314"/>
      <point x="131" y="355" type="curve" smooth="yes"/>
      <point x="174" y="396"/>
      <point x="228" y="416"/>
      <point x="295" y="416" type="curve" smooth="yes"/>
      <point x="370" y="416"/>
      <point x="432" y="391"/>
      <point x="480" y="341" type="curve" smooth="yes"/>
      <point x="527" y="290"/>
      <point x="551" y="223"/>
      <point x="551" y="140" type="curve" smooth="yes"/>
      <point x="551" y="75"/>
      <point x="536" y="11"/>
      <point x="507" y="-51" type="curve" smooth="yes"/>
      <point x="448" y="-175"/>
      <point x="329" y="-291"/>
      <point x="145" y="-396" type="curve"/>
    </contour>
  </outline>
</glyph>
<glyph name="zero" format="2">
  <advance width="1376"/>
  <unicode hex="0030"/>
  <outline>
    <contour>
      <point x="688" y="-30" type="curve" smooth="yes"/>
      <point x="492" y="-30"/>
      <point x="340" y="50"/>
      <point x="237" y="185" type="curve" smooth="yes"/>
      <point x="134" y="320"/>
      <point x="80" y="500"/>
      <point x="80" y="700" type="curve" smooth="yes"/>
      <point x="80" y="901"/>
      <point x="134" y="1082"/>
      <point x="237" y="1216" type="curve" smooth="yes"/>
      <point x="340" y="1350"/>
      <point x="492" y="1430"/>
      <point x="688" y="1430" type="curve" smooth="yes"/>
      <point x="884" y="1430"/>
      <point x="1036" y="1350"/>
      <point x="1139" y="1216" type="curve" smooth="yes"/>
      <point x="1242" y="1082"/>
      <point x="1296" y="901"/>
      <point x="1296" y="700" type="curve" smooth="yes"/>
      <point x="1296" y="500"/>
      <point x="1242" y="320"/>
      <point x="1139" y="185" type="curve" smooth="yes"/>
      <point x="1036" y="50"/>
      <point x="884" y="-30"/>
    </contour>
    <contour>
      <point x="688" y="312" type="curve" smooth="yes"/>
      <point x="759" y="312"/>
      <point x="815" y="345"/>
      <point x="856" y="410" type="curve" smooth="yes"/>
      <point x="896" y="474"/>
      <point x="918" y="571"/>
      <point x="918" y="700" type="curve" smooth="yes"/>
      <point x="918" y="786"/>
      <point x="909" y="858"/>
      <point x="890" y="916" type="curve" smooth="yes"/>
      <point x="852" y="1031"/>
      <point x="781" y="1088"/>
      <point x="688" y="1088" type="curve" smooth="yes"/>
      <point x="619" y="1088"/>
      <point x="561" y="1055"/>
      <point x="521" y="991" type="curve" smooth="yes"/>
      <point x="480" y="926"/>
      <point x="458" y="829"/>
      <point x="458" y="700" type="curve" smooth="yes"/>
      <point x="458" y="614"/>
      <point x="468" y="542"/>
      <point x="487" y="485" type="curve" smooth="yes"/>
      <point x="525" y="370"/>
      <point x="595" y="312"/>
    </contour>
  </outline>
</glyph>
<glyph name="zero.tnum" format="2">
  <advance width="1200"/>
  <unicode hex="0030"/>
  <outline>
    <contour>
      <point x="600" y="-30" type="curve" smooth="yes"/>
      <point x="982" y="-30"/>
      <point x="1163" y="323"/>
      <point x="1163" y="700" type="curve" smooth="yes"/>
      <point x="1163" y="1078"/>
      <point x="984" y="1430"/>
      <point x="600" y="1430" type="curve" smooth="yes"/>
      <point x="218" y="1430"/>
      <point x="37" y="1077"/>
      <point x="37" y="700" type="curve" smooth="yes"/>
      <point x="37" y="324"/>
      <point x="219" y="-30"/>
    </contour>
    <contour>
      <point x="600" y="312" type="curve" smooth="yes"/>
      <point x="426" y="312"/>
      <point x="392" y="555"/>
      <point x="392" y="700" type="curve" smooth="yes"/>
      <point x="392" y="960"/>
      <point x="496" y="1093"/>
      <point x="600" y="1094" type="curve" smooth="yes"/>
      <point x="704" y="1095"/>
      <point x="808" y="965"/>
      <point x="808" y="700" type="curve" smooth="yes"/>
      <point x="808" y="554"/>
      <point x="778" y="312"/>
    </contour>
  </outline>
</glyph>
<glyph name="two.tnum" format="2">
  <advance width="1200"/>
  <unicode hex="0032"/>
  <outline>
    <contour>
      <point x="87" y="1031" type="line"/>
      <point x="191" y="1324"/>
      <point x="320" y="1430"/>
      <point x="568" y="1430" type="curve" smooth="yes"/>
      <point x="881" y="1430"/>
      <point x="1077" y="1269"/>
      <point x="1077" y="1012" type="curve" smooth="yes"/>
      <point x="1077" y="820"/>
      <point x="987" y="618"/>
      <point x="808" y="484" type="curve" smooth="yes"/>
      <point x="599" y="326" type="line"/>
      <point x="1114" y="326" type="line"/>
      <point x="1114" y="0" type="line"/>
      <point x="87" y="0" type="line"/>
      <point x="87" y="256" type="line"/>
      <point x="468" y="564" type="line" smooth="yes"/>
      <point x="628" y="695"/>
      <point x="726" y="839"/>
      <point x="726" y="954" type="curve" smooth="yes"/>
      <point x="726" y="1045"/>
      <point x="670" y="1099"/>
      <point x="576" y="1099" type="curve" smooth="yes"/>
      <point x="477" y="1099"/>
      <point x="406" y="1033"/>
      <point x="390" y="926" type="curve"/>
    </contour>
  </outline>
</glyph>
<glyph name="three" format="2">
  <advance width="1176"/>
  <unicode hex="0033"/>
  <outline>
    <contour>
      <point x="532" y="-30" type="curve" smooth="yes"/>
      <point x="467" y="-30"/>
      <point x="404" y="-23"/>
      <point x="342" y="-8" type="curve" smooth="yes"/>
      <point x="218" y="21"/>
      <point x="113" y="73"/>
      <point x="60" y="136" type="curve"/>
      <point x="176" y="450" type="line"/>
      <point x="210" y="405"/>
      <point x="257" y="370"/>
      <point x="318" y="344" type="curve" smooth="yes"/>
      <point x="379" y="317"/>
      <point x="441" y="304"/>
      <point x="506" y="304" type="curve" smooth="yes"/>
      <point x="545" y="304"/>
      <point x="580" y="310"/>
      <point x="610" y="323" type="curve"/>
      <point x="670" y="347"/>
      <point x="706" y="393"/>
      <point x="706" y="450" type="curve" smooth="yes"/>
      <point x="706" y="498"/>
      <point x="689" y="535"/>
      <point x="654" y="561" type="curve" smooth="yes"/>
      <point x="619" y="587"/>
      <point x="574" y="600"/>
      <point x="520" y="600" type="curve" smooth="yes"/>
      <point x="471" y="600"/>
      <point x="414" y="592"/>
      <point x="358" y="576" type="curve"/>
      <point x="254" y="824" type="line"/>
      <point x="572" y="1078" type="line"/>
      <point x="80" y="1078" type="line"/>
      <point x="80" y="1400" type="line"/>
      <point x="1016" y="1400" type="line"/>
      <point x="1016" y="1104" type="line"/>
      <point x="732" y="828" type="line"/>
      <point x="788" y="820"/>
      <point x="842" y="799"/>
      <point x="895" y="766" type="curve" smooth="yes"/>
      <point x="948" y="733"/>
      <point x="991" y="687"/>
      <point x="1025" y="629" type="curve" smooth="yes"/>
      <point x="1059" y="571"/>
      <point x="1076" y="501"/>
      <point x="1076" y="418" type="curve" smooth="yes"/>
      <point x="1076" y="332"/>
      <point x="1053" y="255"/>
      <point x="1007" y="188" type="curve" smooth="yes"/>
      <point x="914" y="53"/>
      <point x="745" y="-30"/>
    </contour>
  </outline>
</glyph>
<glyph name="three.tnum" format="2">
  <advance width="1200"/>
  <unicode hex="0033"/>
  <outline>
    <contour>
      <point x="576" y="-30" type="curve" smooth="yes"/>
      <point x="864" y="-30"/>
      <point x="1111" y="136"/>
      <point x="1111" y="418" type="curve" smooth="yes"/>
      <point x="1111" y="609"/>
      <point x="991" y="826"/>
      <point x="773" y="828" type="curve" smooth="yes"/>
      <point x="771" y="828"/>
      <point x="769" y="828"/>
      <point x="767" y="828" type="curve"/>
      <point x="1051" y="1103" type="line"/>
      <point x="1051" y="1400" type="line"/>
      <point x="134" y="1400" type="line"/>
      <point x="134" y="1078" type="line"/>
      <point x="620" y="1078" type="line"/>
      <point x="305" y="825" type="line"/>
      <point x="409" y="579" type="line"/>
      <point x="460" y="594"/>
      <point x="516" y="600"/>
      <point x="565" y="600" type="curve" smooth="yes"/>
      <point x="666" y="600"/>
      <point x="756" y="556"/>
      <point x="756" y="450" type="curve" smooth="yes"/>
      <point x="756" y="346"/>
      <point x="642" y="304"/>
      <point x="550" y="304" type="curve" smooth="yes"/>
      <point x="419" y="304"/>
      <point x="296" y="351"/>
      <point x="225" y="440" type="curve"/>
      <point x="111" y="135" type="line"/>
      <point x="207" y="23"/>
      <point x="434" y="-30"/>
    </contour>
  </outline>
</glyph>
<glyph name="four.tnum" format="2">
  <advance width="1200"/>
  <unicode hex="0034"/>
  <outline>
    <contour>
      <point x="673" y="0" type="line"/>
      <point x="984" y="0" type="line"/>
      <point x="984" y="246" type="line"/>
      <point x="1150" y="246" type="line"/>
      <point x="1150" y="564" type="line"/>
      <point x="984" y="564" type="line"/>
      <point x="984" y="812" type="line"/>
      <point x="673" y="812" type="line"/>
      <point x="673" y="564" type="line"/>
      <point x="446" y="564" type="line"/>
      <point x="815" y="1400" type="line"/>
      <point x="443" y="1400" type="line"/>
      <point x="56" y="528" type="line"/>
      <point x="56" y="246" type="line"/>
      <point x="673" y="246" type="line"/>
    </contour>
  </outline>
</glyph>
<glyph name="five" format="2">
  <advance width="1188"/>
  <unicode hex="0035"/>
  <outline>
    <contour>
      <point x="534" y="-30" type="qcurve"/>
      <point x="392" y="-30"/>
      <point x="143" y="51"/>
      <point x="60" y="124" type="qcurve"/>
      <point x="170" y="434" type="line"/>
      <point x="235" y="364"/>
      <point x="413" y="304"/>
      <point x="512" y="304" type="qcurve"/>
      <point x="575" y="304"/>
      <point x="667" y="335"/>
      <point x="716" y="403"/>
      <point x="716" y="458" type="qcurve"/>
      <point x="716" y="501"/>
      <point x="667" y="564"/>
      <point x="574" y="598"/>
      <point x="508" y="598" type="qcurve"/>
      <point x="463" y="598"/>
      <point x="365" y="577"/>
      <point x="314" y="554" type="qcurve"/>
      <point x="150" y="738" type="line"/>
      <point x="224" y="1400" type="line"/>
      <point x="1054" y="1396" type="line"/>
      <point x="1054" y="1054" type="line"/>
      <point x="498" y="1054" type="line"/>
      <point x="474" y="890" type="line"/>
      <point x="500" y="893"/>
      <point x="554" y="898"/>
      <point x="584" y="898" type="qcurve"/>
      <point x="734" y="898"/>
      <point x="960" y="788"/>
      <point x="1086" y="582"/>
      <point x="1086" y="438" type="qcurve"/>
      <point x="1086" y="296"/>
      <point x="949" y="86"/>
      <point x="701" y="-30"/>
    </contour>
  </outline>
</glyph>
<glyph name="five.tnum" format="2">
  <advance width="1200"/>
  <unicode hex="0035"/>
  <outline>
    <contour>
      <point x="550" y="-30" type="curve" smooth="yes"/>
      <point x="833" y="-30"/>
      <point x="1077" y="119"/>
      <point x="1077" y="438" type="curve" smooth="yes"/>
      <point x="1077" y="748"/>
      <point x="867" y="898"/>
      <point x="598" y="898" type="curve" smooth="yes"/>
      <point x="563" y="898"/>
      <point x="531" y="896"/>
      <point x="498" y="891" type="curve"/>
      <point x="492" y="891" type="line"/>
      <point x="515" y="1054" type="line"/>
      <point x="1046" y="1054" type="line"/>
      <point x="1046" y="1396" type="line"/>
      <point x="255" y="1400" type="line"/>
      <point x="184" y="738" type="line"/>
      <point x="340" y="554" type="line"/>
      <point x="404" y="587"/>
      <point x="468" y="598"/>
      <point x="525" y="598" type="curve" smooth="yes"/>
      <point x="619" y="598"/>
      <point x="726" y="571"/>
      <point x="726" y="458" type="curve" smooth="yes"/>
      <point x="726" y="334"/>
      <point x="632" y="304"/>
      <point x="529" y="304" type="curve" smooth="yes"/>
      <point x="400" y="304"/>
      <point x="287" y="339"/>
      <point x="203" y="432" type="curve"/>
      <point x="98" y="125" type="line"/>
      <point x="217" y="16"/>
      <point x="395" y="-30"/>
    </contour>
  </outline>
</glyph>
<glyph name="six" format="2">
  <advance width="1304"/>
  <unicode hex="0036"/>
  <outline>
    <contour>
      <point x="652" y="-30" type="qcurve" smooth="yes"/>
      <point x="772" y="-30"/>
      <point x="976" y="48"/>
      <point x="1125" y="184"/>
      <point x="1210" y="368"/>
      <point x="1210" y="474" type="qcurve" smooth="yes"/>
      <point x="1210" y="575"/>
      <point x="1136" y="745"/>
      <point x="1005" y="870"/>
      <point x="828" y="940"/>
      <point x="726" y="940" type="qcurve" smooth="yes"/>
      <point x="669" y="940"/>
      <point x="519" y="915"/>
      <point x="418" y="870" type="qcurve"/>
      <point x="586" y="800" type="line"/>
      <point x="1064" y="1400" type="line"/>
      <point x="648" y="1400" type="line"/>
      <point x="342" y="994" type="line" smooth="yes"/>
      <point x="304" y="943"/>
      <point x="219" y="827"/>
      <point x="149" y="694"/>
      <point x="104" y="550"/>
      <point x="104" y="470" type="qcurve" smooth="yes"/>
      <point x="104" y="366"/>
      <point x="186" y="184"/>
      <point x="333" y="48"/>
      <point x="534" y="-30"/>
    </contour>
    <contour>
      <point x="658" y="286" type="qcurve" smooth="yes"/>
      <point x="622" y="286"/>
      <point x="554" y="312"/>
      <point x="503" y="359"/>
      <point x="472" y="428"/>
      <point x="472" y="472" type="qcurve" smooth="yes"/>
      <point x="472" y="517"/>
      <point x="502" y="587"/>
      <point x="552" y="636"/>
      <point x="620" y="660"/>
      <point x="656" y="660" type="qcurve" smooth="yes"/>
      <point x="694" y="660"/>
      <point x="761" y="637"/>
      <point x="811" y="590"/>
      <point x="840" y="520"/>
      <point x="840" y="472" type="qcurve" smooth="yes"/>
      <point x="840" y="428"/>
      <point x="810" y="359"/>
      <point x="760" y="311"/>
      <point x="694" y="286"/>
    </contour>
  </outline>
</glyph>
<glyph name="six.tnum" format="2">
  <advance width="1200"/>
  <unicode hex="0036"/>
  <outline>
    <contour>
      <point x="612" y="-30" type="curve" smooth="yes"/>
      <point x="296" y="-30"/>
      <point x="66" y="194"/>
      <point x="66" y="542" type="curve" smooth="yes"/>
      <point x="66" y="1042"/>
      <point x="477" y="1430"/>
      <point x="938" y="1430" type="curve"/>
      <point x="1067" y="1138" type="line"/>
      <point x="851" y="1138"/>
      <point x="656" y="1060"/>
      <point x="516" y="883" type="curve"/>
      <point x="522" y="883" type="line"/>
      <point x="574" y="903"/>
      <point x="630" y="914"/>
      <point x="689" y="914" type="curve" smooth="yes"/>
      <point x="954" y="914"/>
      <point x="1141" y="723"/>
      <point x="1141" y="462" type="curve" smooth="yes"/>
      <point x="1141" y="186"/>
      <point x="928" y="-30"/>
    </contour>
    <contour>
      <point x="612" y="286" type="curve" smooth="yes"/>
      <point x="714" y="286"/>
      <point x="790" y="356"/>
      <point x="790" y="452" type="curve" smooth="yes"/>
      <point x="790" y="548"/>
      <point x="714" y="618"/>
      <point x="612" y="618" type="curve" smooth="yes"/>
      <point x="511" y="618"/>
      <point x="436" y="548"/>
      <point x="436" y="452" type="curve" smooth="yes"/>
      <point x="436" y="356"/>
      <point x="511" y="286"/>
    </contour>
  </outline>
</glyph>
<glyph name="seven.tnum" format="2">
  <advance width="1200"/>
  <unicode hex="0037"/>
  <outline>
    <contour>
      <point x="184" y="0" type="line"/>
      <point x="585" y="0" type="line"/>
      <point x="1098" y="1122" type="line"/>
      <point x="1098" y="1400" type="line"/>
      <point x="123" y="1400" type="line"/>
      <point x="123" y="1042" type="line"/>
      <point x="673" y="1042" type="line"/>
    </contour>
  </outline>
</glyph>
<glyph name="eight" format="2">
  <advance width="1236"/>
  <unicode hex="0038"/>
  <outline>
    <contour>
      <point x="608" y="-30" type="curve" smooth="yes"/>
      <point x="494" y="-30"/>
      <point x="397" y="-12"/>
      <point x="317" y="25" type="curve" smooth="yes"/>
      <point x="156" y="98"/>
      <point x="70" y="230"/>
      <point x="70" y="390" type="curve" smooth="yes"/>
      <point x="70" y="445"/>
      <point x="80" y="496"/>
      <point x="100" y="541" type="curve" smooth="yes"/>
      <point x="139" y="631"/>
      <point x="212" y="699"/>
      <point x="312" y="740" type="curve"/>
      <point x="266" y="762"/>
      <point x="223" y="798"/>
      <point x="183" y="848" type="curve" smooth="yes"/>
      <point x="142" y="897"/>
      <point x="122" y="961"/>
      <point x="122" y="1040" type="curve" smooth="yes"/>
      <point x="122" y="1115"/>
      <point x="143" y="1182"/>
      <point x="186" y="1241" type="curve" smooth="yes"/>
      <point x="271" y="1358"/>
      <point x="426" y="1430"/>
      <point x="618" y="1430" type="curve" smooth="yes"/>
      <point x="715" y="1430"/>
      <point x="802" y="1413"/>
      <point x="877" y="1379" type="curve" smooth="yes"/>
      <point x="1028" y="1311"/>
      <point x="1118" y="1189"/>
      <point x="1118" y="1040" type="curve" smooth="yes"/>
      <point x="1118" y="987"/>
      <point x="1109" y="940"/>
      <point x="1090" y="901" type="curve" smooth="yes"/>
      <point x="1052" y="822"/>
      <point x="988" y="769"/>
      <point x="928" y="740" type="curve"/>
      <point x="997" y="709"/>
      <point x="1054" y="664"/>
      <point x="1099" y="603" type="curve" smooth="yes"/>
      <point x="1144" y="542"/>
      <point x="1166" y="471"/>
      <point x="1166" y="390" type="curve" smooth="yes"/>
      <point x="1166" y="310"/>
      <point x="1142" y="238"/>
      <point x="1094" y="175" type="curve" smooth="yes"/>
      <point x="1046" y="112"/>
      <point x="980" y="62"/>
      <point x="896" y="25" type="curve" smooth="yes"/>
      <point x="812" y="-12"/>
      <point x="716" y="-30"/>
    </contour>
    <contour>
      <point x="618" y="276" type="curve" smooth="yes"/>
      <point x="648" y="276"/>
      <point x="677" y="282"/>
      <point x="704" y="295" type="curve" smooth="yes"/>
      <point x="759" y="320"/>
      <point x="798" y="369"/>
      <point x="798" y="438" type="curve" smooth="yes"/>
      <point x="798" y="473"/>
      <point x="790" y="503"/>
      <point x="773" y="527" type="curve" smooth="yes"/>
      <point x="740" y="574"/>
      <point x="682" y="598"/>
      <point x="618" y="598" type="curve" smooth="yes"/>
      <point x="569" y="598"/>
      <point x="527" y="584"/>
      <point x="492" y="557" type="curve" smooth="yes"/>
      <point x="456" y="529"/>
      <point x="438" y="489"/>
      <point x="438" y="438" type="curve" smooth="yes"/>
      <point x="438" y="403"/>
      <point x="447" y="374"/>
      <point x="464" y="350" type="curve" smooth="yes"/>
      <point x="498" y="302"/>
      <point x="555" y="276"/>
    </contour>
    <contour>
      <point x="620" y="892" type="curve" smooth="yes"/>
      <point x="650" y="892"/>
      <point x="677" y="898"/>
      <point x="701" y="910" type="curve" smooth="yes"/>
      <point x="748" y="934"/>
      <point x="776" y="978"/>
      <point x="776" y="1031" type="curve" smooth="yes"/>
      <point x="776" y="1070"/>
      <point x="761" y="1103"/>
      <point x="732" y="1129" type="curve" smooth="yes"/>
      <point x="703" y="1155"/>
      <point x="665" y="1168"/>
      <point x="620" y="1168" type="curve" smooth="yes"/>
      <point x="590" y="1168"/>
      <point x="563" y="1162"/>
      <point x="540" y="1150" type="curve" smooth="yes"/>
      <point x="492" y="1126"/>
      <point x="464" y="1083"/>
      <point x="464" y="1031" type="curve" smooth="yes"/>
      <point x="464" y="991"/>
      <point x="479" y="958"/>
      <point x="509" y="932" type="curve"/>
      <point x="538" y="905"/>
      <point x="575" y="892"/>
    </contour>
  </outline>
</glyph>
<glyph name="eight.tnum" format="2">
  <advance width="1200"/>
  <unicode hex="0038"/>
  <outline>
    <contour>
      <point x="591" y="-30" type="curve" smooth="yes"/>
      <point x="845" y="-30"/>
      <point x="1123" y="108"/>
      <point x="1123" y="390" type="curve" smooth="yes"/>
      <point x="1123" y="543"/>
      <point x="1040" y="678"/>
      <point x="896" y="740" type="curve"/>
      <point x="1012" y="798"/>
      <point x="1077" y="904"/>
      <point x="1077" y="1040" type="curve" smooth="yes"/>
      <point x="1077" y="1299"/>
      <point x="838" y="1430"/>
      <point x="600" y="1430" type="curve" smooth="yes"/>
      <point x="359" y="1430"/>
      <point x="127" y="1292"/>
      <point x="127" y="1040" type="curve" smooth="yes"/>
      <point x="127" y="914"/>
      <point x="192" y="798"/>
      <point x="308" y="740" type="curve"/>
      <point x="165" y="680"/>
      <point x="77" y="554"/>
      <point x="77" y="390" type="curve" smooth="yes"/>
      <point x="77" y="101"/>
      <point x="328" y="-30"/>
    </contour>
    <contour>
      <point x="600" y="276" type="curve" smooth="yes"/>
      <point x="499" y="276"/>
      <point x="426" y="347"/>
      <point x="426" y="439" type="curve" smooth="yes"/>
      <point x="426" y="540"/>
      <point x="506" y="598"/>
      <point x="600" y="598" type="curve" smooth="yes"/>
      <point x="701" y="598"/>
      <point x="774" y="542"/>
      <point x="774" y="438" type="curve" smooth="yes"/>
      <point x="774" y="344"/>
      <point x="699" y="276"/>
    </contour>
    <contour>
      <point x="602" y="892" type="curve" smooth="yes"/>
      <point x="521" y="892"/>
      <point x="451" y="948"/>
      <point x="451" y="1032" type="curve" smooth="yes"/>
      <point x="451" y="1113"/>
      <point x="518" y="1168"/>
      <point x="602" y="1168" type="curve" smooth="yes"/>
      <point x="683" y="1168"/>
      <point x="753" y="1119"/>
      <point x="753" y="1032" type="curve" smooth="yes"/>
      <point x="753" y="945"/>
      <point x="683" y="892"/>
    </contour>
  </outline>
</glyph>
<glyph name="colon" format="2">
  <advance width="634"/>
  <unicode hex="003A"/>
  <outline>
    <contour>
      <point x="318" y="634" type="qcurve"/>
      <point x="268" y="635"/>
      <point x="182" y="666"/>
      <point x="120" y="724"/>
      <point x="84" y="806"/>
      <point x="84" y="856" type="qcurve" smooth="yes"/>
      <point x="84" y="908"/>
      <point x="121" y="991"/>
      <point x="185" y="1050"/>
      <point x="271" y="1080"/>
      <point x="317" y="1080" type="qcurve"/>
      <point x="368" y="1082"/>
      <point x="452" y="1050"/>
      <point x="515" y="990"/>
      <point x="552" y="907"/>
      <point x="552" y="856" type="qcurve" smooth="yes"/>
      <point x="552" y="804"/>
      <point x="513" y="721"/>
      <point x="449" y="664"/>
      <point x="365" y="634"/>
    </contour>
    <contour>
      <point x="318" y="-30" type="qcurve"/>
      <point x="268" y="-29"/>
      <point x="182" y="2"/>
      <point x="120" y="60"/>
      <point x="84" y="142"/>
      <point x="84" y="192" type="qcurve" smooth="yes"/>
      <point x="84" y="244"/>
      <point x="121" y="327"/>
      <point x="185" y="386"/>
      <point x="271" y="416"/>
      <point x="317" y="416" type="qcurve"/>
      <point x="368" y="418"/>
      <point x="452" y="386"/>
      <point x="515" y="326"/>
      <point x="552" y="243"/>
      <point x="552" y="192" type="qcurve" smooth="yes"/>
      <point x="552" y="140"/>
      <point x="513" y="57"/>
      <point x="449" y="0"/>
      <point x="365" y="-30"/>
    </contour>
  </outline>
</glyph>
<glyph name="question" format="2">
  <advance width="1052"/>
  <unicode hex="003F"/>
  <anchor x="519" y="1580" name="top"/>
  <outline>
    <contour>
      <point x="388" y="474" type="line"/>
      <point x="302" y="507"/>
      <point x="221" y="586"/>
      <point x="221" y="664" type="curve" smooth="yes"/>
      <point x="221" y="905"/>
      <point x="512" y="902"/>
      <point x="512" y="1022" type="curve" smooth="yes"/>
      <point x="512" y="1096"/>
      <point x="436" y="1104"/>
      <point x="378" y="1104" type="curve" smooth="yes"/>
      <point x="285" y="1104"/>
      <point x="215" y="1070"/>
      <point x="134" y="1030" type="curve"/>
      <point x="60" y="1354" type="line"/>
      <point x="132" y="1432"/>
      <point x="385" y="1470"/>
      <point x="490" y="1470" type="curve" smooth="yes"/>
      <point x="699" y="1470"/>
      <point x="978" y="1364"/>
      <point x="978" y="1116" type="curve" smooth="yes"/>
      <point x="978" y="776"/>
      <point x="576" y="791"/>
      <point x="576" y="659" type="curve" smooth="yes"/>
      <point x="576" y="611"/>
      <point x="628" y="550"/>
      <point x="660" y="518" type="curve"/>
    </contour>
    <contour>
      <point x="486" y="-30" type="curve" smooth="yes"/>
      <point x="355" y="-30"/>
      <point x="252" y="57"/>
      <point x="252" y="192" type="curve" smooth="yes"/>
      <point x="252" y="327"/>
      <point x="354" y="416"/>
      <point x="486" y="416" type="curve" smooth="yes"/>
      <point x="618" y="416"/>
      <point x="720" y="327"/>
      <point x="720" y="192" type="curve" smooth="yes"/>
      <point x="720" y="58"/>
      <point x="616" y="-30"/>
    </contour>
  </outline>
</glyph>
<glyph name="at" format="2">
  <advance width="1688"/>
  <unicode hex="0040"/>
  <outline>
    <contour>
      <point x="856" y="-234" type="qcurve" smooth="yes"/>
      <point x="740" y="-234"/>
      <point x="536" y="-189"/>
      <point x="447" y="-142" type="qcurve"/>
      <point x="358" y="-97"/>
      <point x="222" y="31"/>
      <point x="170" y="112" type="qcurve"/>
      <point x="120" y="193"/>
      <point x="70" y="380"/>
      <point x="70" y="486" type="qcurve" smooth="yes"/>
      <point x="70" y="650"/>
      <point x="191" y="925"/>
      <point x="299" y="1028" type="qcurve" smooth="yes"/>
      <point x="408" y="1131"/>
      <point x="701" y="1242"/>
      <point x="874" y="1242" type="qcurve" smooth="yes"/>
      <point x="986" y="1242"/>
      <point x="1178" y="1200"/>
      <point x="1262" y="1159" type="qcurve"/>
      <point x="1346" y="1116"/>
      <point x="1476" y="999"/>
      <point x="1525" y="924" type="qcurve"/>
      <point x="1572" y="848"/>
      <point x="1618" y="675"/>
      <point x="1618" y="576" type="qcurve" smooth="yes"/>
      <point x="1618" y="518"/>
      <point x="1593" y="413"/>
      <point x="1568" y="364" type="qcurve" smooth="yes"/>
      <point x="1543" y="317"/>
      <point x="1476" y="240"/>
      <point x="1432" y="211" type="qcurve" smooth="yes"/>
      <point x="1389" y="182"/>
      <point x="1296" y="154"/>
      <point x="1244" y="154" type="qcurve" smooth="yes"/>
      <point x="1167" y="154"/>
      <point x="1051" y="210"/>
      <point x="1018" y="262" type="qcurve"/>
      <point x="964" y="206"/>
      <point x="850" y="154"/>
      <point x="774" y="154" type="qcurve" smooth="yes"/>
      <point x="724" y="154"/>
      <point x="639" y="176"/>
      <point x="600" y="197" type="qcurve"/>
      <point x="525" y="241"/>
      <point x="440" y="392"/>
      <point x="440" y="492" type="qcurve" smooth="yes"/>
      <point x="440" y="546"/>
      <point x="464" y="643"/>
      <point x="488" y="685" type="qcurve" smooth="yes"/>
      <point x="511" y="727"/>
      <point x="573" y="793"/>
      <point x="615" y="818" type="qcurve" smooth="yes"/>
      <point x="657" y="843"/>
      <point x="749" y="866"/>
      <point x="802" y="866" type="qcurve" smooth="yes"/>
      <point x="861" y="866"/>
      <point x="964" y="828"/>
      <point x="1012" y="788" type="qcurve"/>
      <point x="1014" y="840" type="line"/>
      <point x="1200" y="840" type="line"/>
      <point x="1178" y="450" type="line" smooth="yes"/>
      <point x="1176" y="424"/>
      <point x="1187" y="387"/>
      <point x="1197" y="374" type="qcurve" smooth="yes"/>
      <point x="1209" y="359"/>
      <point x="1242" y="346"/>
      <point x="1264" y="346" type="qcurve" smooth="yes"/>
      <point x="1288" y="346"/>
      <point x="1327" y="359"/>
      <point x="1345" y="374" type="qcurve" smooth="yes"/>
      <point x="1377" y="399"/>
      <point x="1410" y="502"/>
      <point x="1410" y="576" type="qcurve" smooth="yes"/>
      <point x="1410" y="649"/>
      <point x="1376" y="772"/>
      <point x="1342" y="826" type="qcurve" smooth="yes"/>
      <point x="1307" y="880"/>
      <point x="1212" y="964"/>
      <point x="1152" y="994" type="qcurve" smooth="yes"/>
      <point x="1090" y="1025"/>
      <point x="950" y="1054"/>
      <point x="868" y="1054" type="qcurve" smooth="yes"/>
      <point x="740" y="1054"/>
      <point x="527" y="970"/>
      <point x="446" y="891" type="qcurve" smooth="yes"/>
      <point x="366" y="814"/>
      <point x="278" y="605"/>
      <point x="278" y="480" type="qcurve" smooth="yes"/>
      <point x="278" y="402"/>
      <point x="314" y="267"/>
      <point x="351" y="209" type="qcurve"/>
      <point x="387" y="149"/>
      <point x="486" y="59"/>
      <point x="552" y="26" type="qcurve" smooth="yes"/>
      <point x="618" y="-6"/>
      <point x="767" y="-40"/>
      <point x="852" y="-40" type="qcurve" smooth="yes"/>
      <point x="898" y="-40"/>
      <point x="985" y="-31"/>
      <point x="1029" y="-21" type="qcurve"/>
      <point x="1114" y="-4"/>
      <point x="1269" y="65"/>
      <point x="1338" y="116" type="qcurve"/>
      <point x="1418" y="-64" type="line"/>
      <point x="1378" y="-91"/>
      <point x="1293" y="-137"/>
      <point x="1248" y="-156" type="qcurve" smooth="yes"/>
      <point x="1155" y="-195"/>
      <point x="960" y="-234"/>
    </contour>
    <contour>
      <point x="800" y="366" type="qcurve" smooth="yes"/>
      <point x="832" y="366"/>
      <point x="885" y="389"/>
      <point x="905" y="411" type="qcurve"/>
      <point x="923" y="433"/>
      <point x="942" y="491"/>
      <point x="942" y="528" type="qcurve" smooth="yes"/>
      <point x="942" y="589"/>
      <point x="882" y="652"/>
      <point x="828" y="652" type="qcurve" smooth="yes"/>
      <point x="796" y="652"/>
      <point x="746" y="630"/>
      <point x="728" y="608" type="qcurve"/>
      <point x="708" y="586"/>
      <point x="688" y="527"/>
      <point x="688" y="490" type="qcurve" smooth="yes"/>
      <point x="688" y="433"/>
      <point x="749" y="366"/>
    </contour>
  </outline>
</glyph>
<glyph name="A" format="2">
  <advance width="1498"/>
  <unicode hex="0041"/>
  <outline>
    <contour>
      <point x="0" y="0" type="line"/>
      <point x="444" y="0" type="line"/>
      <point x="522" y="250" type="line"/>
      <point x="964" y="250" type="line"/>
      <point x="1042" y="0" type="line"/>
      <point x="1498" y="0" type="line"/>
      <point x="990" y="1400" type="line"/>
      <point x="510" y="1400" type="line"/>
    </contour>
    <contour>
      <point x="608" y="584" type="line"/>
      <point x="744" y="984" type="line"/>
      <point x="876" y="584" type="line"/>
    </contour>
  </outline>
</glyph>
<glyph name="B" format="2">
  <advance width="1354"/>
  <unicode hex="0042"/>
  <outline>
    <contour>
      <point x="156" y="0" type="line"/>
      <point x="156" y="1400" type="line"/>
      <point x="740" y="1400" type="line" smooth="yes"/>
      <point x="888" y="1400"/>
      <point x="1006" y="1370"/>
      <point x="1093" y="1311" type="curve" smooth="yes"/>
      <point x="1180" y="1251"/>
      <point x="1224" y="1162"/>
      <point x="1224" y="1044" type="curve" smooth="yes"/>
      <point x="1224" y="1003"/>
      <point x="1216" y="965"/>
      <point x="1201" y="932" type="curve" smooth="yes"/>
      <point x="1186" y="898"/>
      <point x="1164" y="868"/>
      <point x="1137" y="842" type="curve" smooth="yes"/>
      <point x="1110" y="815"/>
      <point x="1078" y="793"/>
      <point x="1042" y="774" type="curve"/>
      <point x="1116" y="746"/>
      <point x="1175" y="701"/>
      <point x="1219" y="639" type="curve" smooth="yes"/>
      <point x="1262" y="576"/>
      <point x="1284" y="504"/>
      <point x="1284" y="422" type="curve" smooth="yes"/>
      <point x="1284" y="335"/>
      <point x="1262" y="260"/>
      <point x="1219" y="197" type="curve" smooth="yes"/>
      <point x="1131" y="71"/>
      <point x="967" y="0"/>
      <point x="746" y="0" type="curve" smooth="yes"/>
    </contour>
    <contour>
      <point x="560" y="290" type="line"/>
      <point x="692" y="290" type="line" smooth="yes"/>
      <point x="804" y="290"/>
      <point x="862" y="340"/>
      <point x="862" y="432" type="curve" smooth="yes"/>
      <point x="862" y="520"/>
      <point x="808" y="574"/>
      <point x="712" y="574" type="curve" smooth="yes"/>
      <point x="560" y="574" type="line"/>
    </contour>
    <contour>
      <point x="560" y="842" type="line"/>
      <point x="688" y="842" type="line" smooth="yes"/>
      <point x="719" y="842"/>
      <point x="745" y="847"/>
      <point x="767" y="858" type="curve" smooth="yes"/>
      <point x="810" y="879"/>
      <point x="834" y="921"/>
      <point x="834" y="978" type="curve" smooth="yes"/>
      <point x="834" y="1062"/>
      <point x="781" y="1110"/>
      <point x="682" y="1110" type="curve" smooth="yes"/>
      <point x="560" y="1110" type="line"/>
    </contour>
  </outline>
</glyph>
<glyph name="C" format="2">
  <advance width="1406"/>
  <unicode hex="0043"/>
  <outline>
    <contour>
      <point x="812" y="-30" type="curve" smooth="yes"/>
      <point x="944" y="-30"/>
      <point x="1051" y="-13"/>
      <point x="1143" y="18" type="curve" smooth="yes"/>
      <point x="1236" y="51"/>
      <point x="1312" y="90"/>
      <point x="1376" y="138" type="curve"/>
      <point x="1192" y="476" type="line"/>
      <point x="1084" y="400"/>
      <point x="965" y="364"/>
      <point x="848" y="364" type="curve" smooth="yes"/>
      <point x="699" y="364"/>
      <point x="592" y="420"/>
      <point x="536" y="521" type="curve" smooth="yes"/>
      <point x="509" y="570"/>
      <point x="494" y="628"/>
      <point x="494" y="700" type="curve" smooth="yes"/>
      <point x="494" y="804"/>
      <point x="525" y="886"/>
      <point x="586" y="946" type="curve" smooth="yes"/>
      <point x="646" y="1006"/>
      <point x="731" y="1036"/>
      <point x="844" y="1036" type="curve" smooth="yes"/>
      <point x="973" y="1036"/>
      <point x="1076" y="999"/>
      <point x="1148" y="918" type="curve"/>
      <point x="1346" y="1250" type="line"/>
      <point x="1278" y="1307"/>
      <point x="1205" y="1352"/>
      <point x="1125" y="1384" type="curve"/>
      <point x="1045" y="1413"/>
      <point x="943" y="1430"/>
      <point x="818" y="1430" type="curve" smooth="yes"/>
      <point x="599" y="1430"/>
      <point x="417" y="1359"/>
      <point x="281" y="1226" type="curve" smooth="yes"/>
      <point x="145" y="1093"/>
      <point x="70" y="915"/>
      <point x="70" y="694" type="curve" smooth="yes"/>
      <point x="70" y="545"/>
      <point x="101" y="418"/>
      <point x="166" y="310" type="curve"/>
      <point x="230" y="198"/>
      <point x="314" y="119"/>
      <point x="427" y="58" type="curve" smooth="yes"/>
      <point x="540" y="-2"/>
      <point x="667" y="-30"/>
    </contour>
  </outline>
</glyph>
<glyph name="D" format="2">
  <advance width="1480"/>
  <unicode hex="0044"/>
  <outline>
    <contour>
      <point x="156" y="0" type="line"/>
      <point x="664" y="0" type="line" smooth="yes"/>
      <point x="892" y="0"/>
      <point x="1073" y="69"/>
      <point x="1206" y="194" type="curve" smooth="yes"/>
      <point x="1339" y="318"/>
      <point x="1410" y="488"/>
      <point x="1410" y="700" type="curve" smooth="yes"/>
      <point x="1410" y="841"/>
      <point x="1381" y="962"/>
      <point x="1317" y="1066" type="curve" smooth="yes"/>
      <point x="1253" y="1171"/>
      <point x="1170" y="1252"/>
      <point x="1057" y="1312" type="curve" smooth="yes"/>
      <point x="941" y="1372"/>
      <point x="813" y="1400"/>
      <point x="664" y="1400" type="curve" smooth="yes"/>
      <point x="156" y="1400" type="line"/>
    </contour>
    <contour>
      <point x="560" y="376" type="line"/>
      <point x="560" y="1024" type="line"/>
      <point x="654" y="1024" type="line" smooth="yes"/>
      <point x="787" y="1024"/>
      <point x="888" y="979"/>
      <point x="945" y="883" type="curve"/>
      <point x="972" y="834"/>
      <point x="986" y="776"/>
      <point x="986" y="700" type="curve" smooth="yes"/>
      <point x="986" y="591"/>
      <point x="954" y="512"/>
      <point x="894" y="456" type="curve"/>
      <point x="834" y="403"/>
      <point x="755" y="376"/>
      <point x="654" y="376" type="curve" smooth="yes"/>
    </contour>
  </outline>
</glyph>
<glyph name="E" format="2">
  <advance width="1306"/>
  <unicode hex="0045"/>
  <outline>
    <contour>
      <point x="156" y="0" type="line"/>
      <point x="156" y="1400" type="line"/>
      <point x="1194" y="1400" type="line"/>
      <point x="1194" y="1052" type="line"/>
      <point x="560" y="1052" type="line"/>
      <point x="560" y="870" type="line"/>
      <point x="1080" y="870" type="line"/>
      <point x="1080" y="552" type="line"/>
      <point x="560" y="552" type="line"/>
      <point x="560" y="352" type="line"/>
      <point x="1202" y="352" type="line"/>
      <point x="1202" y="0" type="line"/>
    </contour>
  </outline>
</glyph>
<glyph name="G" format="2">
  <advance width="1512"/>
  <unicode hex="0047"/>
  <anchor x="790" y="1400" name="top"/>
  <anchor x="850" y="0" name="bottom"/>
  <outline>
    <contour>
      <point x="864" y="-30" type="qcurve"/>
      <point x="704" y="-30"/>
      <point x="418" y="69"/>
      <point x="197" y="257"/>
      <point x="70" y="528"/>
      <point x="70" y="700" type="qcurve"/>
      <point x="70" y="870"/>
      <point x="192" y="1140"/>
      <point x="408" y="1330"/>
      <point x="690" y="1430"/>
      <point x="850" y="1430" type="qcurve"/>
      <point x="923" y="1430"/>
      <point x="1089" y="1408"/>
      <point x="1268" y="1348"/>
      <point x="1358" y="1291" type="qcurve"/>
      <point x="1192" y="980" type="line"/>
      <point x="1123" y="1025"/>
      <point x="972" y="1068"/>
      <point x="882" y="1068" type="qcurve"/>
      <point x="788" y="1068"/>
      <point x="640" y="1017"/>
      <point x="539" y="921"/>
      <point x="486" y="783"/>
      <point x="486" y="696" type="qcurve"/>
      <point x="486" y="568"/>
      <point x="597" y="400"/>
      <point x="781" y="318"/>
      <point x="890" y="318" type="qcurve"/>
      <point x="922" y="318"/>
      <point x="992" y="327"/>
      <point x="1026" y="334" type="qcurve"/>
      <point x="1026" y="522" type="line"/>
      <point x="760" y="522" type="line"/>
      <point x="760" y="838" type="line"/>
      <point x="1376" y="838" type="line"/>
      <point x="1376" y="84" type="line"/>
      <point x="1308" y="49"/>
      <point x="1130" y="-3"/>
      <point x="944" y="-30"/>
    </contour>
  </outline>
</glyph>
<glyph name="H" format="2">
  <advance width="1588"/>
  <unicode hex="0048"/>
  <outline>
    <contour>
      <point x="156" y="0" type="line"/>
      <point x="560" y="0" type="line"/>
      <point x="560" y="538" type="line"/>
      <point x="1028" y="538" type="line"/>
      <point x="1028" y="0" type="line"/>
      <point x="1432" y="0" type="line"/>
      <point x="1432" y="1400" type="line"/>
      <point x="1028" y="1400" type="line"/>
      <point x="1028" y="906" type="line"/>
      <point x="560" y="906" type="line"/>
      <point x="560" y="1400" type="line"/>
      <point x="156" y="1400" type="line"/>
    </contour>
  </outline>
</glyph>
<glyph name="I" format="2">
  <advance width="716"/>
  <unicode hex="0049"/>
  <anchor x="358" y="1400" name="top"/>
  <anchor x="358" y="0" name="bottom"/>
  <outline>
    <contour>
      <point x="156" y="0" type="line"/>
      <point x="156" y="1400" type="line"/>
      <point x="560" y="1400" type="line"/>
      <point x="560" y="0" type="line"/>
    </contour>
  </outline>
</glyph>
<glyph name="J" format="2">
  <advance width="1100"/>
  <unicode hex="004A"/>
  <outline>
    <contour>
      <point x="424" y="-30" type="curve" smooth="yes"/>
      <point x="252" y="-30"/>
      <point x="108" y="18"/>
      <point x="1" y="94" type="curve"/>
      <point x="114" y="418" type="line"/>
      <point x="211" y="366"/>
      <point x="290" y="338"/>
      <point x="366" y="338" type="curve" smooth="yes"/>
      <point x="474" y="338"/>
      <point x="542" y="402"/>
      <point x="542" y="538" type="curve" smooth="yes"/>
      <point x="542" y="1400" type="line"/>
      <point x="946" y="1400" type="line"/>
      <point x="946" y="448" type="line" smooth="yes"/>
      <point x="946" y="353"/>
      <point x="926" y="272"/>
      <point x="886" y="201" type="curve" smooth="yes"/>
      <point x="803" y="54"/>
      <point x="647" y="-30"/>
    </contour>
  </outline>
</glyph>
<glyph name="L" format="2">
  <advance width="1150"/>
  <unicode hex="004C"/>
  <anchor x="358" y="1400" name="top"/>
  <anchor x="560" y="1440" name="Anchor_2"/>
  <anchor x="624" y="0" name="bottom"/>
  <outline>
    <contour>
      <point x="156" y="0" type="line"/>
      <point x="156" y="1400" type="line"/>
      <point x="560" y="1400" type="line"/>
      <point x="560" y="368" type="line"/>
      <point x="1090" y="368" type="line"/>
      <point x="1090" y="0" type="line"/>
    </contour>
  </outline>
</glyph>
<glyph name="N" format="2">
  <advance width="1596"/>
  <unicode hex="004E"/>
  <outline>
    <contour>
      <point x="156" y="0" type="line"/>
      <point x="546" y="0" type="line"/>
      <point x="546" y="764" type="line"/>
      <point x="1036" y="0" type="line"/>
      <point x="1440" y="0" type="line"/>
      <point x="1440" y="1400" type="line"/>
      <point x="1050" y="1400" type="line"/>
      <point x="1050" y="648" type="line"/>
      <point x="560" y="1400" type="line"/>
      <point x="156" y="1400" type="line"/>
    </contour>
  </outline>
</glyph>
<glyph name="O" format="2">
  <advance width="1648"/>
  <unicode hex="004F"/>
  <anchor x="824" y="1400" name="top"/>
  <anchor x="1228" y="1400" name="horn"/>
  <anchor x="824" y="0" name="bottom"/>
  <outline>
    <contour>
      <point x="824" y="-30" type="curve" smooth="yes"/>
      <point x="605" y="-30"/>
      <point x="418" y="48"/>
      <point x="283" y="180" type="curve" smooth="yes"/>
      <point x="147" y="312"/>
      <point x="70" y="493"/>
      <point x="70" y="700" type="curve" smooth="yes"/>
      <point x="70" y="908"/>
      <point x="147" y="1089"/>
      <point x="283" y="1221" type="curve" smooth="yes"/>
      <point x="418" y="1353"/>
      <point x="605" y="1430"/>
      <point x="824" y="1430" type="curve" smooth="yes"/>
      <point x="1043" y="1430"/>
      <point x="1229" y="1351"/>
      <point x="1365" y="1218" type="curve" smooth="yes"/>
      <point x="1500" y="1085"/>
      <point x="1578" y="904"/>
      <point x="1578" y="700" type="curve" smooth="yes"/>
      <point x="1578" y="493"/>
      <point x="1500" y="312"/>
      <point x="1365" y="180" type="curve" smooth="yes"/>
      <point x="1229" y="48"/>
      <point x="1043" y="-30"/>
    </contour>
    <contour>
      <point x="824" y="348" type="curve" smooth="yes"/>
      <point x="921" y="348"/>
      <point x="1003" y="382"/>
      <point x="1062" y="443" type="curve" smooth="yes"/>
      <point x="1121" y="504"/>
      <point x="1154" y="592"/>
      <point x="1154" y="700" type="curve" smooth="yes"/>
      <point x="1154" y="772"/>
      <point x="1140" y="834"/>
      <point x="1112" y="887" type="curve" smooth="yes"/>
      <point x="1084" y="940"/>
      <point x="1045" y="980"/>
      <point x="996" y="1009" type="curve" smooth="yes"/>
      <point x="946" y="1038"/>
      <point x="889" y="1052"/>
      <point x="824" y="1052" type="curve" smooth="yes"/>
      <point x="727" y="1052"/>
      <point x="645" y="1018"/>
      <point x="586" y="957" type="curve" smooth="yes"/>
      <point x="527" y="896"/>
      <point x="494" y="808"/>
      <point x="494" y="700" type="curve" smooth="yes"/>
      <point x="494" y="628"/>
      <point x="508" y="566"/>
      <point x="536" y="513" type="curve" smooth="yes"/>
      <point x="564" y="460"/>
      <point x="603" y="420"/>
      <point x="653" y="391" type="curve" smooth="yes"/>
      <point x="702" y="362"/>
      <point x="759" y="348"/>
    </contour>
  </outline>
</glyph>
<glyph name="P" format="2">
  <advance width="1352"/>
  <unicode hex="0050"/>
  <outline>
    <contour>
      <point x="156" y="0" type="line"/>
      <point x="560" y="0" type="line"/>
      <point x="560" y="432" type="line"/>
      <point x="744" y="432" type="line" smooth="yes"/>
      <point x="987" y="432"/>
      <point x="1157" y="507"/>
      <point x="1246" y="655" type="curve" smooth="yes"/>
      <point x="1291" y="727"/>
      <point x="1312" y="812"/>
      <point x="1312" y="916" type="curve" smooth="yes"/>
      <point x="1312" y="1123"/>
      <point x="1211" y="1267"/>
      <point x="1042" y="1344" type="curve" smooth="yes"/>
      <point x="957" y="1381"/>
      <point x="863" y="1400"/>
      <point x="754" y="1400" type="curve" smooth="yes"/>
      <point x="156" y="1400" type="line"/>
    </contour>
    <contour>
      <point x="560" y="766" type="line"/>
      <point x="560" y="1056" type="line"/>
      <point x="730" y="1056" type="line" smooth="yes"/>
      <point x="782" y="1056"/>
      <point x="826" y="1047"/>
      <point x="859" y="1026" type="curve"/>
      <point x="892" y="1003"/>
      <point x="908" y="966"/>
      <point x="908" y="910" type="curve" smooth="yes"/>
      <point x="908" y="802"/>
      <point x="841" y="766"/>
      <point x="728" y="766" type="curve" smooth="yes"/>
    </contour>
  </outline>
</glyph>
<glyph name="Q" format="2">
  <advance width="1648"/>
  <unicode hex="0051"/>
  <anchor x="824" y="1400" name="top"/>
  <anchor x="1228" y="1400" name="horn"/>
  <anchor x="824" y="0" name="bottom"/>
  <outline>
    <contour>
      <point x="824" y="-30" type="curve" smooth="yes"/>
      <point x="605" y="-30"/>
      <point x="418" y="48"/>
      <point x="283" y="180" type="curve" smooth="yes"/>
      <point x="147" y="312"/>
      <point x="70" y="493"/>
      <point x="70" y="700" type="curve" smooth="yes"/>
      <point x="70" y="908"/>
      <point x="147" y="1089"/>
      <point x="283" y="1221" type="curve" smooth="yes"/>
      <point x="418" y="1353"/>
      <point x="605" y="1430"/>
      <point x="824" y="1430" type="curve" smooth="yes"/>
      <point x="1043" y="1430"/>
      <point x="1229" y="1351"/>
      <point x="1365" y="1218" type="curve" smooth="yes"/>
      <point x="1500" y="1085"/>
      <point x="1578" y="904"/>
      <point x="1578" y="700" type="curve" smooth="yes"/>
      <point x="1578" y="493"/>
      <point x="1500" y="312"/>
      <point x="1365" y="180" type="curve" smooth="yes"/>
      <point x="1229" y="48"/>
      <point x="1043" y="-30"/>
    </contour>
    <contour>
      <point x="824" y="348" type="curve" smooth="yes"/>
      <point x="921" y="348"/>
      <point x="1003" y="382"/>
      <point x="1062" y="443" type="curve" smooth="yes"/>
      <point x="1121" y="504"/>
      <point x="1154" y="592"/>
      <point x="1154" y="700" type="curve" smooth="yes"/>
      <point x="1154" y="772"/>
      <point x="1140" y="834"/>
      <point x="1112" y="887" type="curve" smooth="yes"/>
      <point x="1084" y="940"/>
      <point x="1045" y="980"/>
      <point x="996" y="1009" type="curve" smooth="yes"/>
      <point x="946" y="1038"/>
      <point x="889" y="1052"/>
      <point x="824" y="1052" type="curve" smooth="yes"/>
      <point x="727" y="1052"/>
      <point x="645" y="1018"/>
      <point x="586" y="957" type="curve" smooth="yes"/>
      <point x="527" y="896"/>
      <point x="494" y="808"/>
      <point x="494" y="700" type="curve" smooth="yes"/>
      <point x="494" y="628"/>
      <point x="508" y="566"/>
      <point x="536" y="513" type="curve" smooth="yes"/>
      <point x="564" y="460"/>
      <point x="603" y="420"/>
      <point x="653" y="391" type="curve" smooth="yes"/>
      <point x="702" y="362"/>
      <point x="759" y="348"/>
    </contour>
    <contour>
      <point x="1202" y="-23" type="curve" smooth="yes"/>
      <point x="1326" y="-23"/>
      <point x="1484" y="35"/>
      <point x="1491" y="45" type="curve"/>
      <point x="1614" y="-194" type="line"/>
      <point x="1566" y="-280"/>
      <point x="1381" y="-383"/>
      <point x="1207" y="-383" type="curve" smooth="yes"/>
      <point x="1018" y="-383"/>
      <point x="911" y="-261"/>
      <point x="708" y="-261" type="curve" smooth="yes"/>
      <point x="567" y="-261"/>
      <point x="488" y="-315"/>
      <point x="485" y="-321" type="curve"/>
      <point x="335" y="-151" type="line"/>
      <point x="423" y="-44"/>
      <point x="595" y="34"/>
      <point x="800" y="34" type="curve" smooth="yes"/>
      <point x="954" y="34"/>
      <point x="1070" y="-23"/>
    </contour>
  </outline>
</glyph>
<glyph name="R" format="2">
  <advance width="1410"/>
  <unicode hex="0052"/>
  <anchor x="668" y="1400" name="top"/>
  <anchor x="734" y="0" name="bottom"/>
  <outline>
    <contour>
      <point x="156" y="0" type="line"/>
      <point x="156" y="1400" type="line"/>
      <point x="750" y="1400" type="line" smooth="yes"/>
      <point x="859" y="1400"/>
      <point x="955" y="1383"/>
      <point x="1037" y="1349" type="curve" smooth="yes"/>
      <point x="1200" y="1281"/>
      <point x="1294" y="1149"/>
      <point x="1294" y="964" type="curve" smooth="yes"/>
      <point x="1294" y="896"/>
      <point x="1282" y="836"/>
      <point x="1258" y="785" type="curve" smooth="yes"/>
      <point x="1210" y="682"/>
      <point x="1126" y="612"/>
      <point x="1030" y="572" type="curve"/>
      <point x="1376" y="0" type="line"/>
      <point x="900" y="0" type="line"/>
      <point x="638" y="482" type="line"/>
      <point x="560" y="482" type="line"/>
      <point x="560" y="0" type="line"/>
    </contour>
    <contour>
      <point x="560" y="800" type="line"/>
      <point x="708" y="800" type="line" smooth="yes"/>
      <point x="763" y="800"/>
      <point x="807" y="810"/>
      <point x="839" y="830" type="curve" smooth="yes"/>
      <point x="870" y="850"/>
      <point x="886" y="885"/>
      <point x="886" y="936" type="curve" smooth="yes"/>
      <point x="886" y="987"/>
      <point x="870" y="1023"/>
      <point x="839" y="1043" type="curve"/>
      <point x="807" y="1062"/>
      <point x="764" y="1072"/>
      <point x="710" y="1072" type="curve" smooth="yes"/>
      <point x="560" y="1072" type="line"/>
    </contour>
  </outline>
</glyph>
<glyph name="S" format="2">
  <advance width="1298"/>
  <unicode hex="0053"/>
  <anchor x="696" y="1400" name="top"/>
  <anchor x="668" y="0" name="bottom"/>
  <outline>
    <contour>
      <point x="668" y="-30" type="qcurve"/>
      <point x="500" y="-30"/>
      <point x="183" y="72"/>
      <point x="73" y="168" type="qcurve"/>
      <point x="260" y="466" type="line"/>
      <point x="301" y="418"/>
      <point x="439" y="346"/>
      <point x="597" y="306"/>
      <point x="668" y="306" type="qcurve"/>
      <point x="748" y="306"/>
      <point x="852" y="352"/>
      <point x="852" y="394" type="qcurve"/>
      <point x="852" y="435"/>
      <point x="772" y="488"/>
      <point x="664" y="516" type="qcurve"/>
      <point x="560" y="544" type="line"/>
      <point x="332" y="606"/>
      <point x="136" y="827"/>
      <point x="136" y="978" type="qcurve"/>
      <point x="136" y="1073"/>
      <point x="219" y="1237"/>
      <point x="368" y="1360"/>
      <point x="570" y="1428"/>
      <point x="688" y="1428" type="qcurve"/>
      <point x="858" y="1428"/>
      <point x="1151" y="1329"/>
      <point x="1238" y="1242" type="qcurve"/>
      <point x="1044" y="952" type="line"/>
      <point x="1009" y="993"/>
      <point x="899" y="1056"/>
      <point x="767" y="1092"/>
      <point x="700" y="1092" type="qcurve"/>
      <point x="647" y="1092"/>
      <point x="569" y="1067"/>
      <point x="526" y="1024"/>
      <point x="526" y="996" type="qcurve"/>
      <point x="526" y="971"/>
      <point x="562" y="939"/>
      <point x="645" y="909"/>
      <point x="716" y="888" type="qcurve"/>
      <point x="818" y="858" type="line"/>
      <point x="1046" y="791"/>
      <point x="1246" y="595"/>
      <point x="1246" y="440" type="qcurve"/>
      <point x="1246" y="301"/>
      <point x="1102" y="89"/>
      <point x="842" y="-30"/>
    </contour>
  </outline>
</glyph>
<glyph name="U" format="2">
  <advance width="1542"/>
  <unicode hex="0055"/>
  <anchor x="771" y="1400" name="top"/>
  <anchor x="1393" y="1400" name="horn"/>
  <anchor x="771" y="0" name="bottom"/>
  <outline>
    <contour>
      <point x="771" y="-30" type="qcurve"/>
      <point x="568" y="-30"/>
      <point x="291" y="128"/>
      <point x="149" y="410"/>
      <point x="149" y="596" type="qcurve"/>
      <point x="149" y="1400" type="line"/>
      <point x="553" y="1400" type="line"/>
      <point x="553" y="574" type="line"/>
      <point x="553" y="459"/>
      <point x="666" y="348"/>
      <point x="771" y="348" type="qcurve"/>
      <point x="875" y="348"/>
      <point x="987" y="459"/>
      <point x="987" y="574" type="qcurve"/>
      <point x="987" y="1400" type="line"/>
      <point x="1393" y="1400" type="line"/>
      <point x="1393" y="596" type="line"/>
      <point x="1393" y="411"/>
      <point x="1251" y="129"/>
      <point x="974" y="-30"/>
    </contour>
  </outline>
</glyph>
<glyph name="V" format="2">
  <advance width="1440"/>
  <unicode hex="0056"/>
  <outline>
    <contour>
      <point x="484" y="0" type="line"/>
      <point x="954" y="0" type="line"/>
      <point x="1458" y="1400" type="line"/>
      <point x="1010" y="1400" type="line"/>
      <point x="724" y="504" type="line"/>
      <point x="438" y="1400" type="line"/>
      <point x="-18" y="1400" type="line"/>
    </contour>
  </outline>
</glyph>
<glyph name="Y" format="2">
  <advance width="1342"/>
  <unicode hex="0059"/>
  <outline>
    <contour>
      <point x="468" y="0" type="line"/>
      <point x="874" y="0" type="line"/>
      <point x="874" y="568" type="line"/>
      <point x="1362" y="1400" type="line"/>
      <point x="924" y="1400" type="line"/>
      <point x="678" y="958" type="line"/>
      <point x="430" y="1400" type="line"/>
      <point x="-20" y="1400" type="line"/>
      <point x="468" y="572" type="line"/>
    </contour>
  </outline>
</glyph>
<glyph name="a" format="2">
  <advance width="1203"/>
  <unicode hex="0061"/>
  <anchor x="570" y="1040" name="top"/>
  <anchor x="570" y="0" name="bottom"/>
  <outline>
    <contour>
      <point x="422" y="-30" type="curve" smooth="yes"/>
      <point x="355" y="-30"/>
      <point x="294" y="-17"/>
      <point x="239" y="10" type="curve" smooth="yes"/>
      <point x="128" y="63"/>
      <point x="56" y="165"/>
      <point x="56" y="308" type="curve" smooth="yes"/>
      <point x="56" y="432"/>
      <point x="117" y="526"/>
      <point x="236" y="586" type="curve" smooth="yes"/>
      <point x="355" y="645"/>
      <point x="531" y="667"/>
      <point x="760" y="648" type="curve"/>
      <point x="762" y="410" type="line"/>
      <point x="671" y="430"/>
      <point x="586" y="435"/>
      <point x="522" y="423" type="curve" smooth="yes"/>
      <point x="458" y="411"/>
      <point x="418" y="382"/>
      <point x="418" y="331" type="curve" smooth="yes"/>
      <point x="418" y="276"/>
      <point x="466" y="250"/>
      <point x="537" y="250" type="curve" smooth="yes"/>
      <point x="569" y="250"/>
      <point x="598" y="255"/>
      <point x="624" y="266" type="curve" smooth="yes"/>
      <point x="675" y="287"/>
      <point x="708" y="331"/>
      <point x="708" y="402" type="curve" smooth="yes"/>
      <point x="708" y="614" type="line" smooth="yes"/>
      <point x="708" y="646"/>
      <point x="702" y="675"/>
      <point x="689" y="700" type="curve" smooth="yes"/>
      <point x="664" y="750"/>
      <point x="607" y="780"/>
      <point x="500" y="780" type="curve" smooth="yes"/>
      <point x="393" y="780"/>
      <point x="283" y="747"/>
      <point x="204" y="688" type="curve"/>
      <point x="106" y="954" type="line"/>
      <point x="245" y="1038"/>
      <point x="413" y="1080"/>
      <point x="570" y="1080" type="curve" smooth="yes"/>
      <point x="669" y="1080"/>
      <point x="758" y="1064"/>
      <point x="836" y="1033" type="curve" smooth="yes"/>
      <point x="992" y="969"/>
      <point x="1088" y="836"/>
      <point x="1088" y="620" type="curve" smooth="yes"/>
      <point x="1088" y="0" type="line"/>
      <point x="748" y="0" type="line"/>
      <point x="748" y="102" type="line"/>
      <point x="684" y="18"/>
      <point x="569" y="-30"/>
    </contour>
  </outline>
</glyph>
<glyph name="b" format="2">
  <advance width="1364"/>
  <unicode hex="0062"/>
  <outline>
    <contour>
      <point x="800" y="-30" type="curve" smooth="yes"/>
      <point x="738" y="-30"/>
      <point x="681" y="-21"/>
      <point x="629" y="-3" type="curve" smooth="yes"/>
      <point x="524" y="34"/>
      <point x="447" y="103"/>
      <point x="414" y="192" type="curve"/>
      <point x="468" y="282" type="line"/>
      <point x="468" y="0" type="line"/>
      <point x="128" y="0" type="line"/>
      <point x="128" y="1440" type="line"/>
      <point x="526" y="1440" type="line"/>
      <point x="526" y="808" type="line"/>
      <point x="434" y="900" type="line"/>
      <point x="482" y="959"/>
      <point x="536" y="1003"/>
      <point x="597" y="1030" type="curve" smooth="yes"/>
      <point x="657" y="1057"/>
      <point x="722" y="1070"/>
      <point x="792" y="1070" type="curve" smooth="yes"/>
      <point x="893" y="1070"/>
      <point x="983" y="1046"/>
      <point x="1062" y="998" type="curve" smooth="yes"/>
      <point x="1141" y="950"/>
      <point x="1202" y="885"/>
      <point x="1247" y="802" type="curve" smooth="yes"/>
      <point x="1292" y="719"/>
      <point x="1314" y="625"/>
      <point x="1314" y="520" type="curve" smooth="yes"/>
      <point x="1314" y="351"/>
      <point x="1259" y="213"/>
      <point x="1167" y="118" type="curve" smooth="yes"/>
      <point x="1074" y="22"/>
      <point x="947" y="-30"/>
    </contour>
    <contour>
      <point x="726" y="310" type="curve" smooth="yes"/>
      <point x="763" y="310"/>
      <point x="797" y="319"/>
      <point x="828" y="336" type="curve" smooth="yes"/>
      <point x="888" y="370"/>
      <point x="926" y="433"/>
      <point x="926" y="520" type="curve" smooth="yes"/>
      <point x="926" y="563"/>
      <point x="917" y="601"/>
      <point x="900" y="632" type="curve" smooth="yes"/>
      <point x="865" y="695"/>
      <point x="802" y="730"/>
      <point x="726" y="730" type="curve" smooth="yes"/>
      <point x="688" y="730"/>
      <point x="654" y="722"/>
      <point x="624" y="705" type="curve" smooth="yes"/>
      <point x="563" y="671"/>
      <point x="526" y="607"/>
      <point x="526" y="520" type="curve" smooth="yes"/>
      <point x="526" y="477"/>
      <point x="535" y="439"/>
      <point x="553" y="408" type="curve" smooth="yes"/>
      <point x="588" y="345"/>
      <point x="651" y="310"/>
    </contour>
  </outline>
</glyph>
<glyph name="c" format="2">
  <advance width="1106"/>
  <unicode hex="0063"/>
  <outline>
    <contour>
      <point x="632" y="-30" type="curve" smooth="yes"/>
      <point x="520" y="-30"/>
      <point x="423" y="-5"/>
      <point x="335" y="43" type="curve" smooth="yes"/>
      <point x="247" y="90"/>
      <point x="179" y="155"/>
      <point x="128" y="240" type="curve"/>
      <point x="76" y="323"/>
      <point x="50" y="416"/>
      <point x="50" y="520" type="curve" smooth="yes"/>
      <point x="50" y="677"/>
      <point x="113" y="813"/>
      <point x="222" y="913" type="curve" smooth="yes"/>
      <point x="329" y="1013"/>
      <point x="475" y="1070"/>
      <point x="644" y="1070" type="curve" smooth="yes"/>
      <point x="813" y="1070"/>
      <point x="958" y="1025"/>
      <point x="1070" y="932" type="curve"/>
      <point x="900" y="638" type="line"/>
      <point x="832" y="702"/>
      <point x="756" y="730"/>
      <point x="672" y="730" type="curve" smooth="yes"/>
      <point x="624" y="730"/>
      <point x="585" y="722"/>
      <point x="549" y="707" type="curve"/>
      <point x="481" y="672"/>
      <point x="444" y="609"/>
      <point x="444" y="520" type="curve" smooth="yes"/>
      <point x="444" y="455"/>
      <point x="463" y="403"/>
      <point x="506" y="366" type="curve"/>
      <point x="546" y="329"/>
      <point x="602" y="310"/>
      <point x="674" y="310" type="curve" smooth="yes"/>
      <point x="721" y="310"/>
      <point x="763" y="320"/>
      <point x="806" y="336" type="curve"/>
      <point x="849" y="355"/>
      <point x="887" y="381"/>
      <point x="926" y="416" type="curve"/>
      <point x="1078" y="114" type="line"/>
      <point x="1018" y="69"/>
      <point x="950" y="34"/>
      <point x="870" y="10" type="curve"/>
      <point x="790" y="-18"/>
      <point x="711" y="-30"/>
    </contour>
  </outline>
</glyph>
<glyph name="d" format="2">
  <advance width="1364"/>
  <unicode hex="0064"/>
  <anchor x="1236" y="1440" name="Anchor_2"/>
  <anchor x="998" y="1224" name="strokeshort"/>
  <outline>
    <contour>
      <point x="564" y="-30" type="curve" smooth="yes"/>
      <point x="467" y="-30"/>
      <point x="379" y="-8"/>
      <point x="302" y="37" type="curve" smooth="yes"/>
      <point x="224" y="81"/>
      <point x="163" y="144"/>
      <point x="118" y="227" type="curve" smooth="yes"/>
      <point x="73" y="309"/>
      <point x="50" y="407"/>
      <point x="50" y="520" type="curve" smooth="yes"/>
      <point x="50" y="677"/>
      <point x="104" y="813"/>
      <point x="197" y="913" type="curve" smooth="yes"/>
      <point x="290" y="1012"/>
      <point x="420" y="1070"/>
      <point x="572" y="1070" type="curve" smooth="yes"/>
      <point x="642" y="1070"/>
      <point x="707" y="1057"/>
      <point x="768" y="1030" type="curve" smooth="yes"/>
      <point x="828" y="1003"/>
      <point x="882" y="959"/>
      <point x="930" y="900" type="curve"/>
      <point x="836" y="808" type="line"/>
      <point x="836" y="1440" type="line"/>
      <point x="1236" y="1440" type="line"/>
      <point x="1236" y="0" type="line"/>
      <point x="896" y="0" type="line"/>
      <point x="896" y="282" type="line"/>
      <point x="950" y="192" type="line"/>
      <point x="925" y="125"/>
      <point x="878" y="72"/>
      <point x="809" y="31" type="curve" smooth="yes"/>
      <point x="739" y="-10"/>
      <point x="657" y="-30"/>
    </contour>
    <contour>
      <point x="638" y="310" type="curve" smooth="yes"/>
      <point x="675" y="310"/>
      <point x="709" y="319"/>
      <point x="740" y="336" type="curve" smooth="yes"/>
      <point x="800" y="370"/>
      <point x="838" y="433"/>
      <point x="838" y="520" type="curve" smooth="yes"/>
      <point x="838" y="563"/>
      <point x="829" y="601"/>
      <point x="812" y="632" type="curve" smooth="yes"/>
      <point x="777" y="695"/>
      <point x="714" y="730"/>
      <point x="638" y="730" type="curve" smooth="yes"/>
      <point x="600" y="730"/>
      <point x="566" y="722"/>
      <point x="536" y="705" type="curve" smooth="yes"/>
      <point x="475" y="671"/>
      <point x="438" y="607"/>
      <point x="438" y="520" type="curve" smooth="yes"/>
      <point x="438" y="477"/>
      <point x="447" y="439"/>
      <point x="465" y="408" type="curve" smooth="yes"/>
      <point x="500" y="345"/>
      <point x="563" y="310"/>
    </contour>
  </outline>
</glyph>
<glyph name="e" format="2">
  <advance width="1223"/>
  <unicode hex="0065"/>
  <outline>
    <contour>
      <point x="632" y="-30" type="qcurve" smooth="yes"/>
      <point x="545" y="-30"/>
      <point x="393" y="4"/>
      <point x="327" y="40" type="qcurve"/>
      <point x="194" y="109"/>
      <point x="50" y="356"/>
      <point x="50" y="522" type="qcurve" smooth="yes"/>
      <point x="50" y="643"/>
      <point x="136" y="844"/>
      <point x="213" y="918" type="qcurve"/>
      <point x="292" y="991"/>
      <point x="500" y="1070"/>
      <point x="628" y="1070" type="qcurve" smooth="yes"/>
      <point x="772" y="1070"/>
      <point x="992" y="972"/>
      <point x="1063" y="882" type="qcurve" smooth="yes"/>
      <point x="1136" y="790"/>
      <point x="1187" y="552"/>
      <point x="1158" y="408" type="qcurve"/>
      <point x="408" y="408" type="line"/>
      <point x="411" y="389"/>
      <point x="428" y="352"/>
      <point x="443" y="336" type="qcurve" smooth="yes"/>
      <point x="473" y="306"/>
      <point x="575" y="270"/>
      <point x="640" y="270" type="qcurve" smooth="yes"/>
      <point x="736" y="270"/>
      <point x="900" y="315"/>
      <point x="980" y="362" type="qcurve"/>
      <point x="1097" y="98" type="line"/>
      <point x="1074" y="82"/>
      <point x="1012" y="48"/>
      <point x="971" y="34" type="qcurve"/>
      <point x="892" y="5"/>
      <point x="713" y="-30"/>
    </contour>
    <contour>
      <point x="782" y="668" type="line"/>
      <point x="783" y="696"/>
      <point x="760" y="739"/>
      <point x="736" y="757" type="qcurve" smooth="yes"/>
      <point x="714" y="774"/>
      <point x="654" y="790"/>
      <point x="616" y="790" type="qcurve" smooth="yes"/>
      <point x="578" y="790"/>
      <point x="516" y="774"/>
      <point x="491" y="757" type="qcurve" smooth="yes"/>
      <point x="464" y="739"/>
      <point x="436" y="696"/>
      <point x="434" y="668" type="qcurve"/>
    </contour>
  </outline>
</glyph>
<glyph name="f" format="2">
  <advance width="884"/>
  <unicode hex="0066"/>
  <outline>
    <contour>
      <point x="204" y="0" type="line"/>
      <point x="204" y="1086" type="line"/>
      <point x="204" y="1260"/>
      <point x="415" y="1470"/>
      <point x="616" y="1470" type="qcurve"/>
      <point x="678" y="1470"/>
      <point x="801" y="1446"/>
      <point x="864" y="1416" type="qcurve"/>
      <point x="810" y="1116" type="line"/>
      <point x="782" y="1133"/>
      <point x="730" y="1144"/>
      <point x="706" y="1144" type="qcurve"/>
      <point x="657" y="1144"/>
      <point x="604" y="1102"/>
      <point x="604" y="1064" type="qcurve"/>
      <point x="604" y="1040" type="line"/>
      <point x="846" y="1040" type="line"/>
      <point x="846" y="728" type="line"/>
      <point x="604" y="728" type="line"/>
      <point x="604" y="0" type="line"/>
    </contour>
    <contour>
      <point x="40" y="728" type="line"/>
      <point x="40" y="1040" type="line"/>
      <point x="236" y="1040" type="line"/>
      <point x="236" y="728" type="line"/>
    </contour>
  </outline>
</glyph>
<glyph name="g" format="2">
  <advance width="1250"/>
  <unicode hex="0067"/>
  <anchor x="594" y="1040" name="top"/>
  <outline>
    <contour>
      <point x="530" y="-450" type="qcurve"/>
      <point x="414" y="-450"/>
      <point x="226" y="-412"/>
      <point x="92" y="-339"/>
      <point x="20" y="-236"/>
      <point x="20" y="-172" type="qcurve"/>
      <point x="20" y="-124"/>
      <point x="75" y="-36"/>
      <point x="176" y="29"/>
      <point x="246" y="44" type="qcurve"/>
      <point x="189" y="79"/>
      <point x="136" y="166"/>
      <point x="136" y="220" type="qcurve"/>
      <point x="136" y="270"/>
      <point x="196" y="362"/>
      <point x="303" y="434"/>
      <point x="444" y="474"/>
      <point x="526" y="470" type="qcurve"/>
      <point x="592" y="328" type="line"/>
      <point x="539" y="329"/>
      <point x="478" y="318"/>
      <point x="452" y="296"/>
      <point x="452" y="282" type="qcurve"/>
      <point x="452" y="266"/>
      <point x="495" y="240"/>
      <point x="564" y="234" type="qcurve"/>
      <point x="742" y="218" type="line"/>
      <point x="869" y="206"/>
      <point x="1061" y="143"/>
      <point x="1168" y="24"/>
      <point x="1168" y="-72" type="qcurve"/>
      <point x="1168" y="-154"/>
      <point x="1078" y="-293"/>
      <point x="910" y="-394"/>
      <point x="675" y="-450"/>
    </contour>
    <contour>
      <point x="594" y="-208" type="qcurve"/>
      <point x="693" y="-208"/>
      <point x="810" y="-163"/>
      <point x="810" y="-126" type="qcurve"/>
      <point x="810" y="-96"/>
      <point x="749" y="-68"/>
      <point x="678" y="-62" type="qcurve"/>
      <point x="476" y="-46" type="line"/>
      <point x="438" y="-51"/>
      <point x="385" y="-73"/>
      <point x="358" y="-104"/>
      <point x="358" y="-122" type="qcurve"/>
      <point x="358" y="-148"/>
      <point x="416" y="-187"/>
      <point x="522" y="-208"/>
    </contour>
    <contour>
      <point x="574" y="320" type="qcurve"/>
      <point x="431" y="320"/>
      <point x="217" y="419"/>
      <point x="98" y="589"/>
      <point x="98" y="696" type="qcurve"/>
      <point x="98" y="800"/>
      <point x="219" y="970"/>
      <point x="434" y="1070"/>
      <point x="574" y="1070" type="qcurve"/>
      <point x="713" y="1070"/>
      <point x="927" y="971"/>
      <point x="1048" y="802"/>
      <point x="1048" y="696" type="qcurve"/>
      <point x="1048" y="592"/>
      <point x="929" y="421"/>
      <point x="716" y="320"/>
    </contour>
    <contour>
      <point x="574" y="580" type="qcurve"/>
      <point x="615" y="580"/>
      <point x="683" y="610"/>
      <point x="724" y="662"/>
      <point x="724" y="696" type="qcurve"/>
      <point x="724" y="747"/>
      <point x="636" y="812"/>
      <point x="574" y="812" type="qcurve"/>
      <point x="532" y="812"/>
      <point x="464" y="782"/>
      <point x="424" y="730"/>
      <point x="424" y="696" type="qcurve"/>
      <point x="424" y="645"/>
      <point x="511" y="580"/>
    </contour>
    <contour>
      <point x="726" y="748" type="line"/>
      <point x="574" y="1000" type="line"/>
      <point x="1228" y="1040" type="line"/>
      <point x="1228" y="728" type="line"/>
    </contour>
  </outline>
</glyph>
<glyph name="h" format="2">
  <advance width="1366"/>
  <unicode hex="0068"/>
  <anchor x="328" y="1440" name="top"/>
  <anchor x="406" y="1224" name="strokeshort"/>
  <outline>
    <contour>
      <point x="128" y="0" type="line"/>
      <point x="128" y="1440" type="line"/>
      <point x="528" y="1440" type="line"/>
      <point x="528" y="794" type="line"/>
      <point x="444" y="896" type="line"/>
      <point x="510" y="971"/>
      <point x="690" y="1070"/>
      <point x="804" y="1070" type="qcurve"/>
      <point x="953" y="1070"/>
      <point x="1150" y="953"/>
      <point x="1248" y="760"/>
      <point x="1248" y="646" type="qcurve"/>
      <point x="1248" y="0" type="line"/>
      <point x="848" y="0" type="line"/>
      <point x="848" y="534" type="line"/>
      <point x="848" y="612"/>
      <point x="764" y="709"/>
      <point x="686" y="710" type="qcurve"/>
      <point x="632" y="711"/>
      <point x="562" y="669"/>
      <point x="528" y="589"/>
      <point x="528" y="534" type="qcurve"/>
      <point x="528" y="0" type="line"/>
    </contour>
  </outline>
</glyph>
<glyph name="k" format="2">
  <advance width="1272"/>
  <unicode hex="006B"/>
  <outline>
    <contour>
      <point x="128" y="0" type="line"/>
      <point x="128" y="1440" type="line"/>
      <point x="528" y="1440" type="line"/>
      <point x="528" y="744" type="line"/>
      <point x="780" y="1040" type="line"/>
      <point x="1240" y="1040" type="line"/>
      <point x="878" y="606" type="line"/>
      <point x="1258" y="0" type="line"/>
      <point x="788" y="0" type="line"/>
      <point x="588" y="344" type="line"/>
      <point x="528" y="276" type="line"/>
      <point x="528" y="0" type="line"/>
    </contour>
  </outline>
</glyph>
<glyph name="l" format="2">
  <advance width="770"/>
  <unicode hex="006C"/>
  <outline>
    <contour>
      <point x="512" y="-28" type="qcurve" smooth="yes"/>
      <point x="455" y="-28"/>
      <point x="353" y="-7"/>
      <point x="311" y="16" type="qcurve"/>
      <point x="222" y="60"/>
      <point x="128" y="240"/>
      <point x="128" y="384" type="qcurve" smooth="yes"/>
      <point x="128" y="1440" type="line"/>
      <point x="528" y="1440" type="line"/>
      <point x="528" y="426" type="line" smooth="yes"/>
      <point x="528" y="394"/>
      <point x="541" y="348"/>
      <point x="552" y="333" type="qcurve"/>
      <point x="565" y="319"/>
      <point x="598" y="306"/>
      <point x="618" y="306" type="qcurve" smooth="yes"/>
      <point x="637" y="306"/>
      <point x="678" y="316"/>
      <point x="700" y="322" type="qcurve"/>
      <point x="748" y="8" type="line"/>
      <point x="685" y="-9"/>
      <point x="566" y="-28"/>
    </contour>
  </outline>
</glyph>
<glyph name="m" format="2">
  <advance width="2026"/>
  <unicode hex="006D"/>
  <outline>
    <contour>
      <point x="128" y="0" type="line"/>
      <point x="128" y="1040" type="line"/>
      <point x="528" y="1040" type="line"/>
      <point x="528" y="920" type="line"/>
      <point x="562" y="968"/>
      <point x="660" y="1035"/>
      <point x="773" y="1070"/>
      <point x="830" y="1070" type="qcurve"/>
      <point x="935" y="1070"/>
      <point x="1100" y="973"/>
      <point x="1128" y="886" type="qcurve"/>
      <point x="1179" y="975"/>
      <point x="1385" y="1070"/>
      <point x="1508" y="1070" type="qcurve"/>
      <point x="1663" y="1070"/>
      <point x="1837" y="954"/>
      <point x="1908" y="768"/>
      <point x="1908" y="662" type="qcurve"/>
      <point x="1908" y="0" type="line"/>
      <point x="1508" y="0" type="line"/>
      <point x="1508" y="548" type="line"/>
      <point x="1508" y="622"/>
      <point x="1432" y="710"/>
      <point x="1362" y="710" type="qcurve"/>
      <point x="1318" y="710"/>
      <point x="1253" y="675"/>
      <point x="1218" y="619"/>
      <point x="1218" y="586" type="qcurve"/>
      <point x="1218" y="0" type="line"/>
      <point x="818" y="0" type="line"/>
      <point x="818" y="548" type="line"/>
      <point x="818" y="622"/>
      <point x="742" y="710"/>
      <point x="672" y="710" type="qcurve"/>
      <point x="628" y="710"/>
      <point x="563" y="675"/>
      <point x="528" y="619"/>
      <point x="528" y="586" type="qcurve"/>
      <point x="528" y="0" type="line"/>
    </contour>
  </outline>
</glyph>
<glyph name="n" format="2">
  <advance width="1366"/>
  <unicode hex="006E"/>
  <outline>
    <contour>
      <point x="128" y="0" type="line"/>
      <point x="128" y="1040" type="line"/>
      <point x="528" y="1040" type="line"/>
      <point x="528" y="944" type="line"/>
      <point x="582" y="1009"/>
      <point x="732" y="1070"/>
      <point x="816" y="1070" type="qcurve" smooth="yes"/>
      <point x="892" y="1070"/>
      <point x="1015" y="1042"/>
      <point x="1062" y="1012" type="qcurve"/>
      <point x="1111" y="984"/>
      <point x="1180" y="909"/>
      <point x="1204" y="861" type="qcurve" smooth="yes"/>
      <point x="1227" y="815"/>
      <point x="1248" y="717"/>
      <point x="1248" y="662" type="qcurve" smooth="yes"/>
      <point x="1248" y="0" type="line"/>
      <point x="848" y="0" type="line"/>
      <point x="848" y="536" type="line" smooth="yes"/>
      <point x="848" y="578"/>
      <point x="829" y="643"/>
      <point x="811" y="665" type="qcurve" smooth="yes"/>
      <point x="791" y="689"/>
      <point x="732" y="710"/>
      <point x="690" y="710" type="qcurve" smooth="yes"/>
      <point x="665" y="710"/>
      <point x="621" y="699"/>
      <point x="602" y="689" type="qcurve"/>
      <point x="567" y="666"/>
      <point x="528" y="588"/>
      <point x="528" y="536" type="qcurve" smooth="yes"/>
      <point x="528" y="0" type="line"/>
    </contour>
  </outline>
</glyph>
<glyph name="o" format="2">
  <advance width="1276"/>
  <unicode hex="006F"/>
  <anchor x="638" y="1040" name="top"/>
  <anchor x="1038" y="1040" name="horn"/>
  <anchor x="638" y="0" name="bottom"/>
  <outline>
    <contour>
      <point x="638" y="-30" type="curve" smooth="yes"/>
      <point x="522" y="-30"/>
      <point x="420" y="-5"/>
      <point x="332" y="45" type="curve" smooth="yes"/>
      <point x="243" y="95"/>
      <point x="174" y="162"/>
      <point x="125" y="245" type="curve" smooth="yes"/>
      <point x="75" y="328"/>
      <point x="50" y="420"/>
      <point x="50" y="520" type="curve" smooth="yes"/>
      <point x="50" y="664"/>
      <point x="109" y="800"/>
      <point x="214" y="903" type="curve" smooth="yes"/>
      <point x="318" y="1006"/>
      <point x="465" y="1070"/>
      <point x="638" y="1070" type="curve" smooth="yes"/>
      <point x="754" y="1070"/>
      <point x="856" y="1045"/>
      <point x="945" y="995" type="curve" smooth="yes"/>
      <point x="1033" y="945"/>
      <point x="1102" y="878"/>
      <point x="1152" y="795" type="curve" smooth="yes"/>
      <point x="1201" y="712"/>
      <point x="1226" y="620"/>
      <point x="1226" y="520" type="curve" smooth="yes"/>
      <point x="1226" y="376"/>
      <point x="1167" y="240"/>
      <point x="1063" y="137" type="curve" smooth="yes"/>
      <point x="958" y="34"/>
      <point x="813" y="-30"/>
    </contour>
    <contour>
      <point x="638" y="310" type="curve" smooth="yes"/>
      <point x="675" y="310"/>
      <point x="709" y="319"/>
      <point x="740" y="336" type="curve" smooth="yes"/>
      <point x="800" y="370"/>
      <point x="838" y="433"/>
      <point x="838" y="520" type="curve" smooth="yes"/>
      <point x="838" y="563"/>
      <point x="829" y="601"/>
      <point x="812" y="632" type="curve" smooth="yes"/>
      <point x="777" y="695"/>
      <point x="714" y="730"/>
      <point x="638" y="730" type="curve" smooth="yes"/>
      <point x="600" y="730"/>
      <point x="566" y="722"/>
      <point x="536" y="705" type="curve" smooth="yes"/>
      <point x="475" y="671"/>
      <point x="438" y="607"/>
      <point x="438" y="520" type="curve" smooth="yes"/>
      <point x="438" y="477"/>
      <point x="447" y="439"/>
      <point x="465" y="408" type="curve" smooth="yes"/>
      <point x="500" y="345"/>
      <point x="563" y="310"/>
    </contour>
  </outline>
</glyph>
<glyph name="p" format="2">
  <advance width="1364"/>
  <unicode hex="0070"/>
  <outline>
    <contour>
      <point x="128" y="-420" type="line"/>
      <point x="128" y="1040" type="line"/>
      <point x="468" y="1040" type="line"/>
      <point x="468" y="938" type="line"/>
      <point x="504" y="979"/>
      <point x="551" y="1012"/>
      <point x="609" y="1035" type="curve" smooth="yes"/>
      <point x="666" y="1058"/>
      <point x="730" y="1070"/>
      <point x="800" y="1070" type="curve" smooth="yes"/>
      <point x="897" y="1070"/>
      <point x="985" y="1048"/>
      <point x="1063" y="1004" type="curve" smooth="yes"/>
      <point x="1140" y="959"/>
      <point x="1202" y="896"/>
      <point x="1247" y="814" type="curve" smooth="yes"/>
      <point x="1292" y="731"/>
      <point x="1314" y="633"/>
      <point x="1314" y="520" type="curve" smooth="yes"/>
      <point x="1314" y="363"/>
      <point x="1260" y="227"/>
      <point x="1167" y="128" type="curve" smooth="yes"/>
      <point x="1074" y="28"/>
      <point x="944" y="-30"/>
      <point x="792" y="-30" type="curve" smooth="yes"/>
      <point x="695" y="-30"/>
      <point x="605" y="-4"/>
      <point x="526" y="52" type="curve"/>
      <point x="526" y="-420" type="line"/>
    </contour>
    <contour>
      <point x="726" y="310" type="curve" smooth="yes"/>
      <point x="764" y="310"/>
      <point x="798" y="319"/>
      <point x="829" y="336" type="curve" smooth="yes"/>
      <point x="889" y="370"/>
      <point x="926" y="433"/>
      <point x="926" y="520" type="curve" smooth="yes"/>
      <point x="926" y="563"/>
      <point x="917" y="601"/>
      <point x="900" y="632" type="curve" smooth="yes"/>
      <point x="864" y="695"/>
      <point x="801" y="730"/>
      <point x="726" y="730" type="curve" smooth="yes"/>
      <point x="689" y="730"/>
      <point x="655" y="722"/>
      <point x="625" y="705" type="curve" smooth="yes"/>
      <point x="564" y="671"/>
      <point x="526" y="607"/>
      <point x="526" y="520" type="curve" smooth="yes"/>
      <point x="526" y="477"/>
      <point x="535" y="439"/>
      <point x="552" y="408" type="curve" smooth="yes"/>
      <point x="587" y="345"/>
      <point x="650" y="310"/>
    </contour>
  </outline>
</glyph>
<glyph name="q" format="2">
  <advance width="1364"/>
  <unicode hex="0071"/>
  <outline>
    <contour>
      <point x="838" y="-420" type="line"/>
      <point x="838" y="232" type="line"/>
      <point x="930" y="140" type="line"/>
      <point x="882" y="81"/>
      <point x="828" y="39"/>
      <point x="769" y="11" type="curve"/>
      <point x="708" y="-16"/>
      <point x="643" y="-30"/>
      <point x="572" y="-30" type="curve" smooth="yes"/>
      <point x="472" y="-30"/>
      <point x="383" y="-5"/>
      <point x="302" y="42" type="curve"/>
      <point x="223" y="91"/>
      <point x="164" y="156"/>
      <point x="117" y="239" type="curve"/>
      <point x="73" y="324"/>
      <point x="50" y="416"/>
      <point x="50" y="520" type="curve" smooth="yes"/>
      <point x="50" y="692"/>
      <point x="104" y="827"/>
      <point x="199" y="924" type="curve" smooth="yes"/>
      <point x="291" y="1019"/>
      <point x="419" y="1070"/>
      <point x="564" y="1070" type="curve" smooth="yes"/>
      <point x="627" y="1070"/>
      <point x="683" y="1063"/>
      <point x="736" y="1044" type="curve" smooth="yes"/>
      <point x="841" y="1005"/>
      <point x="917" y="937"/>
      <point x="950" y="848" type="curve"/>
      <point x="896" y="758" type="line"/>
      <point x="896" y="1040" type="line"/>
      <point x="1236" y="1040" type="line"/>
      <point x="1236" y="-420" type="line"/>
    </contour>
    <contour>
      <point x="638" y="310" type="curve" smooth="yes"/>
      <point x="677" y="310"/>
      <point x="710" y="319"/>
      <point x="742" y="336" type="curve"/>
      <point x="801" y="371"/>
      <point x="838" y="432"/>
      <point x="838" y="520" type="curve" smooth="yes"/>
      <point x="838" y="563"/>
      <point x="830" y="603"/>
      <point x="813" y="632" type="curve" smooth="yes"/>
      <point x="776" y="697"/>
      <point x="715" y="730"/>
      <point x="638" y="730" type="curve" smooth="yes"/>
      <point x="602" y="730"/>
      <point x="567" y="722"/>
      <point x="538" y="705" type="curve"/>
      <point x="477" y="672"/>
      <point x="438" y="608"/>
      <point x="438" y="520" type="curve" smooth="yes"/>
      <point x="438" y="477"/>
      <point x="447" y="440"/>
      <point x="464" y="409" type="curve" smooth="yes"/>
      <point x="499" y="344"/>
      <point x="563" y="310"/>
    </contour>
  </outline>
</glyph>
<glyph name="r" format="2">
  <advance width="936"/>
  <unicode hex="0072"/>
  <anchor x="528" y="1040" name="top"/>
  <anchor x="328" y="0" name="bottom"/>
  <outline>
    <contour>
      <point x="128" y="0" type="line"/>
      <point x="128" y="1040" type="line"/>
      <point x="528" y="1040" type="line"/>
      <point x="528" y="932" type="line"/>
      <point x="567" y="1003"/>
      <point x="713" y="1072"/>
      <point x="801" y="1072" type="qcurve"/>
      <point x="838" y="1072"/>
      <point x="891" y="1063"/>
      <point x="917" y="1058" type="qcurve"/>
      <point x="872" y="648" type="line"/>
      <point x="835" y="663"/>
      <point x="750" y="680"/>
      <point x="708" y="680" type="qcurve"/>
      <point x="630" y="680"/>
      <point x="528" y="596"/>
      <point x="528" y="506" type="qcurve"/>
      <point x="528" y="0" type="line"/>
    </contour>
  </outline>
</glyph>
<glyph name="s" format="2">
  <advance width="1088"/>
  <unicode hex="0073"/>
  <anchor x="550" y="1040" name="top"/>
  <anchor x="544" y="0" name="bottom"/>
  <outline>
    <contour>
      <point x="544" y="-28" type="curve" smooth="yes"/>
      <point x="441" y="-28"/>
      <point x="348" y="-16"/>
      <point x="265" y="8" type="curve" smooth="yes"/>
      <point x="182" y="31"/>
      <point x="109" y="65"/>
      <point x="46" y="110" type="curve"/>
      <point x="162" y="378" type="line"/>
      <point x="223" y="343"/>
      <point x="288" y="316"/>
      <point x="355" y="295" type="curve" smooth="yes"/>
      <point x="422" y="274"/>
      <point x="483" y="264"/>
      <point x="540" y="264" type="curve" smooth="yes"/>
      <point x="627" y="264"/>
      <point x="670" y="282"/>
      <point x="670" y="318" type="curve" smooth="yes"/>
      <point x="670" y="333"/>
      <point x="660" y="344"/>
      <point x="639" y="351" type="curve"/>
      <point x="618" y="357"/>
      <point x="576" y="365"/>
      <point x="512" y="374" type="curve" smooth="yes"/>
      <point x="366" y="395"/>
      <point x="259" y="435"/>
      <point x="191" y="492" type="curve" smooth="yes"/>
      <point x="122" y="549"/>
      <point x="88" y="628"/>
      <point x="88" y="728" type="curve" smooth="yes"/>
      <point x="88" y="799"/>
      <point x="108" y="861"/>
      <point x="147" y="914" type="curve" smooth="yes"/>
      <point x="226" y="1019"/>
      <point x="369" y="1080"/>
      <point x="550" y="1080" type="curve" smooth="yes"/>
      <point x="638" y="1080"/>
      <point x="722" y="1069"/>
      <point x="801" y="1046" type="curve" smooth="yes"/>
      <point x="880" y="1023"/>
      <point x="948" y="991"/>
      <point x="1004" y="952" type="curve"/>
      <point x="892" y="684" type="line"/>
      <point x="862" y="705"/>
      <point x="828" y="723"/>
      <point x="791" y="739" type="curve" smooth="yes"/>
      <point x="716" y="770"/>
      <point x="635" y="788"/>
      <point x="564" y="788" type="curve" smooth="yes"/>
      <point x="526" y="788"/>
      <point x="496" y="784"/>
      <point x="474" y="776" type="curve" smooth="yes"/>
      <point x="451" y="767"/>
      <point x="440" y="755"/>
      <point x="440" y="740" type="curve" smooth="yes"/>
      <point x="440" y="725"/>
      <point x="449" y="714"/>
      <point x="467" y="707" type="curve" smooth="yes"/>
      <point x="484" y="700"/>
      <point x="526" y="689"/>
      <point x="592" y="676" type="curve" smooth="yes"/>
      <point x="748" y="645"/>
      <point x="858" y="604"/>
      <point x="923" y="553" type="curve" smooth="yes"/>
      <point x="988" y="501"/>
      <point x="1020" y="428"/>
      <point x="1020" y="334" type="curve" smooth="yes"/>
      <point x="1020" y="261"/>
      <point x="1000" y="198"/>
      <point x="960" y="144" type="curve" smooth="yes"/>
      <point x="879" y="35"/>
      <point x="732" y="-28"/>
    </contour>
  </outline>
</glyph>
<glyph name="t" format="2">
  <advance width="930"/>
  <unicode hex="0074"/>
  <anchor x="604" y="1440" name="Anchor_2"/>
  <anchor x="558" y="0" name="bottom"/>
  <anchor x="420" y="534" name="strokeshort"/>
  <outline>
    <contour>
      <point x="598" y="-30" type="curve" smooth="yes"/>
      <point x="474" y="-30"/>
      <point x="377" y="5"/>
      <point x="308" y="74" type="curve" smooth="yes"/>
      <point x="239" y="143"/>
      <point x="204" y="244"/>
      <point x="204" y="378" type="curve" smooth="yes"/>
      <point x="204" y="1334" type="line"/>
      <point x="604" y="1334" type="line"/>
      <point x="604" y="1040" type="line"/>
      <point x="820" y="1040" type="line"/>
      <point x="820" y="728" type="line"/>
      <point x="604" y="728" type="line"/>
      <point x="604" y="440" type="line" smooth="yes"/>
      <point x="604" y="396"/>
      <point x="615" y="365"/>
      <point x="638" y="347" type="curve" smooth="yes"/>
      <point x="661" y="329"/>
      <point x="687" y="320"/>
      <point x="718" y="320" type="curve" smooth="yes"/>
      <point x="757" y="320"/>
      <point x="798" y="330"/>
      <point x="834" y="350" type="curve"/>
      <point x="878" y="40" type="line"/>
      <point x="813" y="3"/>
      <point x="710" y="-30"/>
    </contour>
    <contour>
      <point x="20" y="728" type="line"/>
      <point x="20" y="1040" type="line"/>
      <point x="236" y="1040" type="line"/>
      <point x="236" y="728" type="line"/>
    </contour>
  </outline>
</glyph>
<glyph name="y" format="2">
  <advance width="1236"/>
  <unicode hex="0079"/>
  <anchor x="618" y="1040" name="top"/>
  <anchor x="1116" y="0" name="bottom"/>
  <outline>
    <contour>
      <point x="324" y="-446" type="qcurve"/>
      <point x="243" y="-446"/>
      <point x="90" y="-415"/>
      <point x="29" y="-384" type="qcurve"/>
      <point x="112" y="-52" type="line"/>
      <point x="145" y="-68"/>
      <point x="227" y="-88"/>
      <point x="264" y="-88" type="qcurve"/>
      <point x="309" y="-88"/>
      <point x="384" y="-55"/>
      <point x="396" y="-12" type="qcurve"/>
      <point x="400" y="4" type="line"/>
      <point x="0" y="1040" type="line"/>
      <point x="432" y="1040" type="line"/>
      <point x="626" y="386" type="line"/>
      <point x="814" y="1040" type="line"/>
      <point x="1236" y="1040" type="line"/>
      <point x="816" y="-74" type="line"/>
      <point x="761" y="-211"/>
      <point x="608" y="-374"/>
      <point x="424" y="-446"/>
    </contour>
  </outline>
</glyph>
<glyph name="z" format="2">
  <advance width="1070"/>
  <unicode hex="007A"/>
  <outline>
    <contour>
      <point x="80" y="0" type="line"/>
      <point x="990" y="0" type="line"/>
      <point x="990" y="350" type="line"/>
      <point x="606" y="350" type="line"/>
      <point x="982" y="780" type="line"/>
      <point x="982" y="1040" type="line"/>
      <point x="98" y="1040" type="line"/>
      <point x="98" y="690" type="line"/>
      <point x="486" y="690" type="line"/>
      <point x="80" y="260" type="line"/>
    </contour>
  </outline>
</glyph>
<glyph name="braceleft" format="2">
  <advance width="732"/>
  <unicode hex="007B"/>
  <outline>
    <contour>
      <point x="666" y="-226" type="line"/>
      <point x="479" y="-239"/>
      <point x="350" y="-213"/>
      <point x="273" y="-145" type="curve"/>
      <point x="193" y="-77"/>
      <point x="169" y="34"/>
      <point x="196" y="190" type="curve" smooth="yes"/>
      <point x="240" y="434" type="line"/>
      <point x="247" y="465"/>
      <point x="245" y="488"/>
      <point x="236" y="507" type="curve" smooth="yes"/>
      <point x="219" y="544"/>
      <point x="167" y="558"/>
      <point x="66" y="558" type="curve"/>
      <point x="66" y="824" type="line"/>
      <point x="117" y="824"/>
      <point x="155" y="828"/>
      <point x="182" y="837" type="curve"/>
      <point x="237" y="853"/>
      <point x="252" y="888"/>
      <point x="240" y="948" type="curve" smooth="yes"/>
      <point x="196" y="1188" type="line" smooth="yes"/>
      <point x="167" y="1348"/>
      <point x="191" y="1459"/>
      <point x="271" y="1526" type="curve" smooth="yes"/>
      <point x="351" y="1594"/>
      <point x="479" y="1622"/>
      <point x="666" y="1606" type="curve"/>
      <point x="666" y="1340" type="line"/>
      <point x="543" y="1349"/>
      <point x="497" y="1312"/>
      <point x="512" y="1216" type="curve"/>
      <point x="562" y="938" type="line" smooth="yes"/>
      <point x="586" y="810"/>
      <point x="526" y="715"/>
      <point x="394" y="692" type="curve"/>
      <point x="394" y="690" type="line"/>
      <point x="463" y="677"/>
      <point x="512" y="649"/>
      <point x="541" y="606" type="curve" smooth="yes"/>
      <point x="570" y="561"/>
      <point x="578" y="506"/>
      <point x="566" y="442" type="curve" smooth="yes"/>
      <point x="512" y="164" type="line" smooth="yes"/>
      <point x="503" y="120"/>
      <point x="512" y="88"/>
      <point x="537" y="67" type="curve" smooth="yes"/>
      <point x="562" y="46"/>
      <point x="603" y="39"/>
      <point x="666" y="40" type="curve"/>
    </contour>
  </outline>
</glyph>
<glyph name="braceright" format="2">
  <advance width="732"/>
  <unicode hex="007D"/>
  <outline>
    <contour>
      <point x="66" y="40" type="line"/>
      <point x="128" y="37"/>
      <point x="172" y="46"/>
      <point x="197" y="67" type="curve" smooth="yes"/>
      <point x="222" y="87"/>
      <point x="229" y="119"/>
      <point x="220" y="164" type="curve" smooth="yes"/>
      <point x="166" y="442" type="line" smooth="yes"/>
      <point x="154" y="506"/>
      <point x="163" y="560"/>
      <point x="192" y="605" type="curve" smooth="yes"/>
      <point x="221" y="649"/>
      <point x="270" y="677"/>
      <point x="338" y="690" type="curve"/>
      <point x="338" y="692" type="line"/>
      <point x="209" y="715"/>
      <point x="146" y="809"/>
      <point x="170" y="938" type="curve" smooth="yes"/>
      <point x="220" y="1216" type="line" smooth="yes"/>
      <point x="236" y="1311"/>
      <point x="190" y="1348"/>
      <point x="66" y="1340" type="curve"/>
      <point x="66" y="1606" type="line"/>
      <point x="251" y="1620"/>
      <point x="383" y="1593"/>
      <point x="462" y="1526" type="curve" smooth="yes"/>
      <point x="541" y="1459"/>
      <point x="565" y="1346"/>
      <point x="536" y="1188" type="curve" smooth="yes"/>
      <point x="492" y="948" type="line" smooth="yes"/>
      <point x="487" y="917"/>
      <point x="488" y="893"/>
      <point x="497" y="875" type="curve" smooth="yes"/>
      <point x="514" y="839"/>
      <point x="566" y="824"/>
      <point x="666" y="824" type="curve"/>
      <point x="666" y="558" type="line"/>
      <point x="616" y="558"/>
      <point x="578" y="554"/>
      <point x="551" y="546" type="curve" smooth="yes"/>
      <point x="497" y="530"/>
      <point x="481" y="495"/>
      <point x="492" y="434" type="curve" smooth="yes"/>
      <point x="536" y="190" type="line" smooth="yes"/>
      <point x="564" y="33"/>
      <point x="539" y="-79"/>
      <point x="461" y="-146" type="curve" smooth="yes"/>
      <point x="383" y="-213"/>
      <point x="251" y="-240"/>
      <point x="66" y="-226" type="curve"/>
    </contour>
  </outline>
</glyph>
<glyph name="asciitilde" format="2">
  <advance width="1296"/>
  <unicode hex="007E"/>
  <outline>
    <contour>
      <point x="886" y="460" type="curve" smooth="yes"/>
      <point x="803" y="460"/>
      <point x="718" y="495"/>
      <point x="633" y="534" type="curve" smooth="yes"/>
      <point x="550" y="573"/>
      <point x="479" y="608"/>
      <point x="422" y="608" type="curve" smooth="yes"/>
      <point x="339" y="608"/>
      <point x="260" y="562"/>
      <point x="196" y="466" type="curve"/>
      <point x="60" y="684" type="line"/>
      <point x="156" y="816"/>
      <point x="277" y="880"/>
      <point x="410" y="880" type="curve" smooth="yes"/>
      <point x="494" y="880"/>
      <point x="580" y="845"/>
      <point x="664" y="806" type="curve" smooth="yes"/>
      <point x="748" y="767"/>
      <point x="819" y="732"/>
      <point x="874" y="732" type="curve" smooth="yes"/>
      <point x="959" y="732"/>
      <point x="1036" y="778"/>
      <point x="1100" y="874" type="curve"/>
      <point x="1236" y="656" type="line"/>
      <point x="1144" y="527"/>
      <point x="1021" y="460"/>
    </contour>
  </outline>
</glyph>
<glyph name="exclamdown" format="2">
  <advance width="720"/>
  <unicode hex="00A1"/>
  <outline>
    <contour>
      <point x="130" y="-360" type="line"/>
      <point x="190" y="504" type="line"/>
      <point x="530" y="504" type="line"/>
      <point x="590" y="-360" type="line"/>
    </contour>
    <contour>
      <point x="360" y="624" type="curve" smooth="yes"/>
      <point x="297" y="624"/>
      <point x="243" y="644"/>
      <point x="196" y="684" type="curve" smooth="yes"/>
      <point x="149" y="723"/>
      <point x="126" y="778"/>
      <point x="126" y="848" type="curve" smooth="yes"/>
      <point x="126" y="894"/>
      <point x="137" y="934"/>
      <point x="158" y="967" type="curve" smooth="yes"/>
      <point x="201" y="1033"/>
      <point x="276" y="1070"/>
      <point x="360" y="1070" type="curve" smooth="yes"/>
      <point x="423" y="1070"/>
      <point x="478" y="1050"/>
      <point x="525" y="1011" type="curve" smooth="yes"/>
      <point x="571" y="972"/>
      <point x="594" y="917"/>
      <point x="594" y="848" type="curve" smooth="yes"/>
      <point x="594" y="801"/>
      <point x="583" y="761"/>
      <point x="562" y="728" type="curve" smooth="yes"/>
      <point x="519" y="661"/>
      <point x="444" y="624"/>
    </contour>
  </outline>
</glyph>
<glyph name="cent" format="2">
  <advance width="1200"/>
  <unicode hex="00A2"/>
  <outline>
    <contour>
      <point x="531" y="-160" type="line"/>
      <point x="783" y="-160" type="line"/>
      <point x="783" y="10" type="line"/>
      <point x="778" y="10" type="line"/>
      <point x="870" y="26"/>
      <point x="947" y="51"/>
      <point x="1010" y="99" type="curve"/>
      <point x="925" y="387" type="line"/>
      <point x="872" y="355"/>
      <point x="826" y="339"/>
      <point x="778" y="331" type="curve"/>
      <point x="778" y="711" type="line"/>
      <point x="815" y="707"/>
      <point x="859" y="691"/>
      <point x="898" y="666" type="curve"/>
      <point x="1022" y="923" type="line"/>
      <point x="958" y="981"/>
      <point x="860" y="1019"/>
      <point x="778" y="1030" type="curve"/>
      <point x="783" y="1030" type="line"/>
      <point x="783" y="1200" type="line"/>
      <point x="531" y="1200" type="line"/>
      <point x="531" y="1028" type="line"/>
      <point x="537" y="1028" type="line"/>
      <point x="302" y="983"/>
      <point x="145" y="775"/>
      <point x="145" y="520" type="curve" smooth="yes"/>
      <point x="145" y="262"/>
      <point x="304" y="54"/>
      <point x="537" y="12" type="curve"/>
      <point x="531" y="12" type="line"/>
    </contour>
    <contour>
      <point x="537" y="701" type="curve"/>
      <point x="537" y="342" type="line"/>
      <point x="465" y="363"/>
      <point x="434" y="446"/>
      <point x="434" y="520" type="curve" smooth="yes"/>
      <point x="434" y="588"/>
      <point x="462" y="692"/>
    </contour>
  </outline>
</glyph>
<glyph name="sterling" format="2">
  <advance width="1200"/>
  <unicode hex="00A3"/>
  <outline>
    <contour>
      <point x="108" y="0" type="line"/>
      <point x="1140" y="0" type="line"/>
      <point x="1140" y="298" type="line"/>
      <point x="585" y="298" type="line"/>
      <point x="626" y="362"/>
      <point x="647" y="428"/>
      <point x="647" y="506" type="curve" smooth="yes"/>
      <point x="647" y="569"/>
      <point x="624" y="651"/>
      <point x="608" y="738" type="curve" smooth="yes"/>
      <point x="595" y="809"/>
      <point x="572" y="879"/>
      <point x="572" y="954" type="curve" smooth="yes"/>
      <point x="572" y="1010"/>
      <point x="586" y="1056"/>
      <point x="615" y="1087" type="curve" smooth="yes"/>
      <point x="639" y="1113"/>
      <point x="674" y="1128"/>
      <point x="720" y="1128" type="curve" smooth="yes"/>
      <point x="801" y="1128"/>
      <point x="885" y="1100"/>
      <point x="983" y="1002" type="curve"/>
      <point x="1116" y="1256" type="line"/>
      <point x="1039" y="1364"/>
      <point x="844" y="1430"/>
      <point x="712" y="1430" type="curve" smooth="yes"/>
      <point x="516" y="1430"/>
      <point x="364" y="1353"/>
      <point x="281" y="1217" type="curve" smooth="yes"/>
      <point x="239" y="1148"/>
      <point x="217" y="1075"/>
      <point x="217" y="992" type="curve" smooth="yes"/>
      <point x="217" y="941"/>
      <point x="231" y="889"/>
      <point x="244" y="840" type="curve" smooth="yes"/>
      <point x="256" y="791"/>
      <point x="271" y="743"/>
      <point x="286" y="695" type="curve" smooth="yes"/>
      <point x="303" y="638"/>
      <point x="332" y="561"/>
      <point x="332" y="502" type="curve" smooth="yes"/>
      <point x="332" y="399"/>
      <point x="304" y="347"/>
      <point x="240" y="319" type="curve"/>
      <point x="207" y="306"/>
      <point x="162" y="292"/>
      <point x="108" y="285" type="curve"/>
    </contour>
    <contour>
      <point x="90" y="560" type="line"/>
      <point x="945" y="560" type="line"/>
      <point x="945" y="810" type="line"/>
      <point x="90" y="810" type="line"/>
    </contour>
  </outline>
</glyph>
<glyph name="currency" format="2">
  <advance width="1296"/>
  <unicode hex="00A4"/>
  <outline>
    <contour>
      <point x="290" y="66" type="line"/>
      <point x="90" y="264" type="line"/>
      <point x="244" y="414" type="line"/>
      <point x="212" y="478"/>
      <point x="192" y="552"/>
      <point x="192" y="620" type="curve" smooth="yes"/>
      <point x="192" y="692"/>
      <point x="212" y="765"/>
      <point x="244" y="826" type="curve"/>
      <point x="90" y="980" type="line"/>
      <point x="290" y="1178" type="line"/>
      <point x="442" y="1024" type="line"/>
      <point x="506" y="1060"/>
      <point x="577" y="1074"/>
      <point x="648" y="1074" type="curve" smooth="yes"/>
      <point x="720" y="1074"/>
      <point x="791" y="1059"/>
      <point x="854" y="1024" type="curve"/>
      <point x="1006" y="1178" type="line"/>
      <point x="1206" y="980" type="line"/>
      <point x="1052" y="826" type="line"/>
      <point x="1087" y="765"/>
      <point x="1104" y="692"/>
      <point x="1104" y="620" type="curve" smooth="yes"/>
      <point x="1104" y="553"/>
      <point x="1087" y="479"/>
      <point x="1052" y="414" type="curve"/>
      <point x="1206" y="264" type="line"/>
      <point x="1006" y="66" type="line"/>
      <point x="854" y="220" type="line"/>
      <point x="790" y="187"/>
      <point x="724" y="170"/>
      <point x="648" y="170" type="curve" smooth="yes"/>
      <point x="576" y="170"/>
      <point x="506" y="188"/>
      <point x="442" y="220" type="curve"/>
    </contour>
    <contour>
      <point x="648" y="456" type="curve" smooth="yes"/>
      <point x="681" y="456"/>
      <point x="708" y="464"/>
      <point x="735" y="477" type="curve"/>
      <point x="784" y="506"/>
      <point x="814" y="557"/>
      <point x="814" y="620" type="curve" smooth="yes"/>
      <point x="814" y="653"/>
      <point x="809" y="683"/>
      <point x="794" y="707" type="curve" smooth="yes"/>
      <point x="763" y="759"/>
      <point x="713" y="786"/>
      <point x="648" y="786" type="curve" smooth="yes"/>
      <point x="616" y="786"/>
      <point x="590" y="781"/>
      <point x="563" y="766" type="curve" smooth="yes"/>
      <point x="514" y="737"/>
      <point x="482" y="685"/>
      <point x="482" y="620" type="curve" smooth="yes"/>
      <point x="482" y="588"/>
      <point x="489" y="561"/>
      <point x="505" y="536" type="curve"/>
      <point x="532" y="487"/>
      <point x="585" y="456"/>
    </contour>
  </outline>
</glyph>
<glyph name="yen" format="2">
  <advance width="1200"/>
  <unicode hex="00A5"/>
  <outline>
    <contour>
      <point x="417" y="0" type="line"/>
      <point x="769" y="0" type="line"/>
      <point x="769" y="246" type="line"/>
      <point x="1098" y="246" type="line"/>
      <point x="1098" y="472" type="line"/>
      <point x="769" y="472" type="line"/>
      <point x="769" y="584" type="line"/>
      <point x="1098" y="584" type="line"/>
      <point x="1098" y="810" type="line"/>
      <point x="858" y="810" type="line"/>
      <point x="1215" y="1400" type="line"/>
      <point x="845" y="1400" type="line"/>
      <point x="598" y="942" type="line"/>
      <point x="368" y="1400" type="line"/>
      <point x="-14" y="1400" type="line"/>
      <point x="330" y="810" type="line"/>
      <point x="90" y="810" type="line"/>
      <point x="90" y="584" type="line"/>
      <point x="417" y="584" type="line"/>
      <point x="417" y="472" type="line"/>
      <point x="90" y="472" type="line"/>
      <point x="90" y="246" type="line"/>
      <point x="417" y="246" type="line"/>
    </contour>
  </outline>
</glyph>
<glyph name="section" format="2">
  <advance width="1320"/>
  <unicode hex="00A7"/>
  <outline>
    <contour>
      <point x="642" y="-450" type="qcurve" smooth="yes"/>
      <point x="565" y="-450"/>
      <point x="424" y="-428"/>
      <point x="355" y="-405" type="qcurve"/>
      <point x="286" y="-384"/>
      <point x="172" y="-326"/>
      <point x="126" y="-292" type="qcurve"/>
      <point x="248" y="-8" type="line"/>
      <point x="289" y="-39"/>
      <point x="385" y="-87"/>
      <point x="441" y="-106" type="qcurve" smooth="yes"/>
      <point x="495" y="-124"/>
      <point x="602" y="-142"/>
      <point x="654" y="-142" type="qcurve" smooth="yes"/>
      <point x="696" y="-142"/>
      <point x="765" y="-128"/>
      <point x="791" y="-113" type="qcurve"/>
      <point x="817" y="-100"/>
      <point x="844" y="-62"/>
      <point x="844" y="-40" type="qcurve" smooth="yes"/>
      <point x="844" y="-24"/>
      <point x="835" y="4"/>
      <point x="826" y="16" type="qcurve"/>
      <point x="810" y="39"/>
      <point x="721" y="75"/>
      <point x="640" y="90" type="qcurve"/>
      <point x="546" y="110"/>
      <point x="394" y="152"/>
      <point x="333" y="176" type="qcurve" smooth="yes"/>
      <point x="211" y="225"/>
      <point x="94" y="373"/>
      <point x="94" y="488" type="qcurve" smooth="yes"/>
      <point x="94" y="573"/>
      <point x="180" y="715"/>
      <point x="258" y="768" type="qcurve"/>
      <point x="336" y="819"/>
      <point x="542" y="876"/>
      <point x="664" y="874" type="qcurve"/>
      <point x="666" y="666" type="line"/>
      <point x="635" y="667"/>
      <point x="580" y="658"/>
      <point x="554" y="651" type="qcurve"/>
      <point x="501" y="634"/>
      <point x="438" y="566"/>
      <point x="438" y="514" type="qcurve" smooth="yes"/>
      <point x="438" y="482"/>
      <point x="474" y="432"/>
      <point x="508" y="415" type="qcurve" smooth="yes"/>
      <point x="544" y="396"/>
      <point x="647" y="364"/>
      <point x="718" y="350" type="qcurve" smooth="yes"/>
      <point x="838" y="327"/>
      <point x="1009" y="259"/>
      <point x="1063" y="211" type="qcurve"/>
      <point x="1118" y="165"/>
      <point x="1170" y="36"/>
      <point x="1170" y="-50" type="qcurve" smooth="yes"/>
      <point x="1170" y="-110"/>
      <point x="1135" y="-216"/>
      <point x="1102" y="-262" type="qcurve"/>
      <point x="1032" y="-353"/>
      <point x="796" y="-450"/>
    </contour>
    <contour>
      <point x="672" y="316" type="line"/>
      <point x="701" y="316"/>
      <point x="759" y="326"/>
      <point x="785" y="333" type="qcurve"/>
      <point x="838" y="350"/>
      <point x="904" y="422"/>
      <point x="904" y="478" type="qcurve" smooth="yes"/>
      <point x="904" y="498"/>
      <point x="888" y="535"/>
      <point x="873" y="549" type="qcurve" smooth="yes"/>
      <point x="843" y="578"/>
      <point x="717" y="618"/>
      <point x="618" y="636" type="qcurve" smooth="yes"/>
      <point x="500" y="658"/>
      <point x="331" y="727"/>
      <point x="279" y="775" type="qcurve" smooth="yes"/>
      <point x="225" y="823"/>
      <point x="174" y="952"/>
      <point x="174" y="1036" type="qcurve" smooth="yes"/>
      <point x="174" y="1097"/>
      <point x="206" y="1198"/>
      <point x="240" y="1244" type="qcurve" smooth="yes"/>
      <point x="305" y="1333"/>
      <point x="534" y="1430"/>
      <point x="686" y="1430" type="qcurve" smooth="yes"/>
      <point x="754" y="1430"/>
      <point x="890" y="1410"/>
      <point x="957" y="1390" type="qcurve" smooth="yes"/>
      <point x="1023" y="1371"/>
      <point x="1136" y="1311"/>
      <point x="1186" y="1272" type="qcurve"/>
      <point x="1064" y="988" type="line"/>
      <point x="1038" y="1009"/>
      <point x="978" y="1045"/>
      <point x="944" y="1059" type="qcurve"/>
      <point x="877" y="1090"/>
      <point x="739" y="1122"/>
      <point x="678" y="1122" type="qcurve" smooth="yes"/>
      <point x="637" y="1122"/>
      <point x="573" y="1109"/>
      <point x="547" y="1096" type="qcurve"/>
      <point x="523" y="1081"/>
      <point x="498" y="1046"/>
      <point x="498" y="1024" type="qcurve" smooth="yes"/>
      <point x="498" y="1008"/>
      <point x="507" y="981"/>
      <point x="515" y="969" type="qcurve"/>
      <point x="531" y="948"/>
      <point x="622" y="914"/>
      <point x="708" y="896" type="qcurve"/>
      <point x="846" y="869"/>
      <point x="1049" y="798"/>
      <point x="1115" y="755" type="qcurve"/>
      <point x="1181" y="709"/>
      <point x="1248" y="586"/>
      <point x="1248" y="504" type="qcurve" smooth="yes"/>
      <point x="1248" y="445"/>
      <point x="1210" y="342"/>
      <point x="1171" y="297" type="qcurve" smooth="yes"/>
      <point x="1133" y="252"/>
      <point x="1032" y="186"/>
      <point x="967" y="161" type="qcurve" smooth="yes"/>
      <point x="901" y="136"/>
      <point x="756" y="112"/>
      <point x="676" y="112" type="qcurve"/>
    </contour>
  </outline>
</glyph>
<glyph name="copyright" format="2">
  <advance width="1676"/>
  <unicode hex="00A9"/>
  <outline>
    <contour>
      <point x="838" y="-48" type="curve" smooth="yes"/>
      <point x="630" y="-48"/>
      <point x="450" y="30"/>
      <point x="314" y="163" type="curve" smooth="yes"/>
      <point x="178" y="296"/>
      <point x="100" y="475"/>
      <point x="100" y="682" type="curve" smooth="yes"/>
      <point x="100" y="891"/>
      <point x="177" y="1070"/>
      <point x="313" y="1203" type="curve" smooth="yes"/>
      <point x="449" y="1336"/>
      <point x="629" y="1412"/>
      <point x="838" y="1412" type="curve" smooth="yes"/>
      <point x="1047" y="1412"/>
      <point x="1226" y="1333"/>
      <point x="1363" y="1200" type="curve" smooth="yes"/>
      <point x="1498" y="1067"/>
      <point x="1576" y="887"/>
      <point x="1576" y="682" type="curve" smooth="yes"/>
      <point x="1576" y="474"/>
      <point x="1498" y="295"/>
      <point x="1363" y="162" type="curve" smooth="yes"/>
      <point x="1226" y="29"/>
      <point x="1047" y="-48"/>
    </contour>
    <contour>
      <point x="838" y="112" type="curve" smooth="yes"/>
      <point x="995" y="112"/>
      <point x="1132" y="168"/>
      <point x="1235" y="269" type="curve"/>
      <point x="1340" y="368"/>
      <point x="1398" y="509"/>
      <point x="1398" y="682" type="curve" smooth="yes"/>
      <point x="1398" y="857"/>
      <point x="1338" y="995"/>
      <point x="1235" y="1096" type="curve"/>
      <point x="1130" y="1195"/>
      <point x="995" y="1250"/>
      <point x="839" y="1250" type="curve" smooth="yes"/>
      <point x="683" y="1250"/>
      <point x="547" y="1195"/>
      <point x="442" y="1096" type="curve"/>
      <point x="339" y="995"/>
      <point x="278" y="857"/>
      <point x="278" y="682" type="curve" smooth="yes"/>
      <point x="278" y="509"/>
      <point x="337" y="368"/>
      <point x="442" y="269" type="curve"/>
      <point x="545" y="168"/>
      <point x="681" y="112"/>
    </contour>
    <contour>
      <point x="862" y="274" type="curve" smooth="yes"/>
      <point x="778" y="274"/>
      <point x="704" y="290"/>
      <point x="640" y="325" type="curve"/>
      <point x="512" y="390"/>
      <point x="434" y="512"/>
      <point x="434" y="680" type="curve" smooth="yes"/>
      <point x="434" y="760"/>
      <point x="454" y="830"/>
      <point x="490" y="894" type="curve"/>
      <point x="565" y="1018"/>
      <point x="697" y="1090"/>
      <point x="864" y="1090" type="curve" smooth="yes"/>
      <point x="1000" y="1090"/>
      <point x="1087" y="1057"/>
      <point x="1162" y="994" type="curve"/>
      <point x="1062" y="828" type="line"/>
      <point x="1019" y="872"/>
      <point x="959" y="894"/>
      <point x="878" y="894" type="curve" smooth="yes"/>
      <point x="806" y="894"/>
      <point x="749" y="875"/>
      <point x="709" y="838" type="curve" smooth="yes"/>
      <point x="666" y="798"/>
      <point x="646" y="749"/>
      <point x="646" y="682" type="curve" smooth="yes"/>
      <point x="646" y="617"/>
      <point x="666" y="565"/>
      <point x="710" y="528" type="curve"/>
      <point x="751" y="488"/>
      <point x="807" y="470"/>
      <point x="880" y="470" type="curve" smooth="yes"/>
      <point x="952" y="470"/>
      <point x="1024" y="492"/>
      <point x="1088" y="536" type="curve"/>
      <point x="1180" y="366" type="line"/>
      <point x="1108" y="314"/>
      <point x="1007" y="274"/>
    </contour>
  </outline>
</glyph>
<glyph name="ordfeminine" format="2">
  <advance width="858"/>
  <unicode hex="00AA"/>
  <anchor x="412" y="1398" name="top"/>
  <anchor x="412" y="722" name="bottom"/>
  <outline>
    <contour>
      <point x="316" y="702" type="curve" smooth="yes"/>
      <point x="249" y="702"/>
      <point x="192" y="722"/>
      <point x="144" y="761" type="curve" smooth="yes"/>
      <point x="96" y="800"/>
      <point x="72" y="853"/>
      <point x="72" y="922" type="curve" smooth="yes"/>
      <point x="72" y="975"/>
      <point x="90" y="1020"/>
      <point x="126" y="1056" type="curve" smooth="yes"/>
      <point x="197" y="1128"/>
      <point x="337" y="1160"/>
      <point x="544" y="1144" type="curve"/>
      <point x="544" y="988" type="line"/>
      <point x="503" y="997"/>
      <point x="464" y="1001"/>
      <point x="428" y="1001" type="curve" smooth="yes"/>
      <point x="355" y="1001"/>
      <point x="306" y="981"/>
      <point x="306" y="936" type="curve" smooth="yes"/>
      <point x="306" y="903"/>
      <point x="340" y="884"/>
      <point x="392" y="884" type="curve" smooth="yes"/>
      <point x="424" y="884"/>
      <point x="451" y="892"/>
      <point x="474" y="909" type="curve" smooth="yes"/>
      <point x="497" y="925"/>
      <point x="508" y="950"/>
      <point x="508" y="984" type="curve" smooth="yes"/>
      <point x="508" y="1122" type="line" smooth="yes"/>
      <point x="508" y="1150"/>
      <point x="499" y="1175"/>
      <point x="482" y="1197" type="curve" smooth="yes"/>
      <point x="464" y="1219"/>
      <point x="423" y="1230"/>
      <point x="360" y="1230" type="curve" smooth="yes"/>
      <point x="299" y="1230"/>
      <point x="223" y="1209"/>
      <point x="168" y="1170" type="curve"/>
      <point x="107" y="1337" type="line"/>
      <point x="141" y="1359"/>
      <point x="184" y="1379"/>
      <point x="237" y="1398" type="curve" smooth="yes"/>
      <point x="289" y="1417"/>
      <point x="347" y="1426"/>
      <point x="412" y="1426" type="curve" smooth="yes"/>
      <point x="518" y="1426"/>
      <point x="602" y="1402"/>
      <point x="664" y="1355" type="curve" smooth="yes"/>
      <point x="725" y="1308"/>
      <point x="756" y="1231"/>
      <point x="756" y="1126" type="curve" smooth="yes"/>
      <point x="756" y="722" type="line"/>
      <point x="534" y="722" type="line"/>
      <point x="534" y="788" type="line"/>
      <point x="493" y="735"/>
      <point x="412" y="702"/>
    </contour>
  </outline>
</glyph>
<glyph name="registered" format="2">
  <advance width="1212"/>
  <unicode hex="00AE"/>
  <anchor x="614" y="1092" name="top"/>
  <anchor x="624" y="870" name="bottom"/>
  <outline>
    <contour>
      <point x="606" y="470" type="curve" smooth="yes"/>
      <point x="507" y="470"/>
      <point x="419" y="493"/>
      <point x="340" y="538" type="curve" smooth="yes"/>
      <point x="261" y="583"/>
      <point x="198" y="644"/>
      <point x="152" y="721" type="curve" smooth="yes"/>
      <point x="105" y="798"/>
      <point x="82" y="885"/>
      <point x="82" y="982" type="curve" smooth="yes"/>
      <point x="82" y="1079"/>
      <point x="105" y="1166"/>
      <point x="152" y="1243" type="curve" smooth="yes"/>
      <point x="198" y="1320"/>
      <point x="261" y="1380"/>
      <point x="340" y="1425" type="curve" smooth="yes"/>
      <point x="419" y="1470"/>
      <point x="507" y="1492"/>
      <point x="606" y="1492" type="curve" smooth="yes"/>
      <point x="704" y="1492"/>
      <point x="793" y="1469"/>
      <point x="872" y="1424" type="curve" smooth="yes"/>
      <point x="951" y="1378"/>
      <point x="1014" y="1317"/>
      <point x="1061" y="1240" type="curve" smooth="yes"/>
      <point x="1107" y="1163"/>
      <point x="1130" y="1077"/>
      <point x="1130" y="982" type="curve" smooth="yes"/>
      <point x="1130" y="885"/>
      <point x="1107" y="798"/>
      <point x="1061" y="721" type="curve" smooth="yes"/>
      <point x="1014" y="644"/>
      <point x="951" y="583"/>
      <point x="872" y="538" type="curve" smooth="yes"/>
      <point x="793" y="493"/>
      <point x="704" y="470"/>
    </contour>
    <contour>
      <point x="606" y="566" type="curve" smooth="yes"/>
      <point x="682" y="566"/>
      <point x="752" y="583"/>
      <point x="815" y="618" type="curve" smooth="yes"/>
      <point x="878" y="653"/>
      <point x="928" y="701"/>
      <point x="966" y="764" type="curve" smooth="yes"/>
      <point x="1003" y="826"/>
      <point x="1022" y="899"/>
      <point x="1022" y="982" type="curve" smooth="yes"/>
      <point x="1022" y="1065"/>
      <point x="1003" y="1137"/>
      <point x="965" y="1199" type="curve" smooth="yes"/>
      <point x="927" y="1260"/>
      <point x="877" y="1308"/>
      <point x="814" y="1343" type="curve" smooth="yes"/>
      <point x="751" y="1377"/>
      <point x="681" y="1394"/>
      <point x="606" y="1394" type="curve" smooth="yes"/>
      <point x="531" y="1394"/>
      <point x="462" y="1377"/>
      <point x="399" y="1343" type="curve" smooth="yes"/>
      <point x="336" y="1308"/>
      <point x="285" y="1260"/>
      <point x="247" y="1199" type="curve" smooth="yes"/>
      <point x="209" y="1137"/>
      <point x="190" y="1065"/>
      <point x="190" y="982" type="curve" smooth="yes"/>
      <point x="190" y="899"/>
      <point x="209" y="826"/>
      <point x="247" y="764" type="curve" smooth="yes"/>
      <point x="284" y="701"/>
      <point x="335" y="653"/>
      <point x="398" y="618" type="curve" smooth="yes"/>
      <point x="461" y="583"/>
      <point x="530" y="566"/>
    </contour>
    <contour>
      <point x="410" y="706" type="line"/>
      <point x="410" y="1256" type="line"/>
      <point x="638" y="1256" type="line" smooth="yes"/>
      <point x="700" y="1256"/>
      <point x="750" y="1241"/>
      <point x="789" y="1212" type="curve" smooth="yes"/>
      <point x="827" y="1183"/>
      <point x="846" y="1141"/>
      <point x="846" y="1088" type="curve" smooth="yes"/>
      <point x="846" y="1008"/>
      <point x="791" y="956"/>
      <point x="716" y="936" type="curve"/>
      <point x="876" y="706" type="line"/>
      <point x="730" y="706" type="line"/>
      <point x="592" y="912" type="line"/>
      <point x="532" y="912" type="line"/>
      <point x="532" y="706" type="line"/>
    </contour>
    <contour>
      <point x="532" y="1010" type="line"/>
      <point x="622" y="1010" type="line" smooth="yes"/>
      <point x="685" y="1010"/>
      <point x="722" y="1034"/>
      <point x="722" y="1082" type="curve" smooth="yes"/>
      <point x="722" y="1130"/>
      <point x="688" y="1156"/>
      <point x="628" y="1156" type="curve" smooth="yes"/>
      <point x="532" y="1156" type="line"/>
    </contour>
  </outline>
</glyph>
<glyph name="degree" format="2">
  <advance width="890"/>
  <unicode hex="00B0"/>
  <outline>
    <contour>
      <point x="446" y="606" type="qcurve" smooth="yes"/>
      <point x="387" y="606"/>
      <point x="284" y="634"/>
      <point x="236" y="660" type="qcurve"/>
      <point x="188" y="688"/>
      <point x="114" y="760"/>
      <point x="86" y="807" type="qcurve" smooth="yes"/>
      <point x="59" y="854"/>
      <point x="30" y="957"/>
      <point x="30" y="1014" type="qcurve" smooth="yes"/>
      <point x="30" y="1071"/>
      <point x="59" y="1175"/>
      <point x="86" y="1220" type="qcurve" smooth="yes"/>
      <point x="115" y="1266"/>
      <point x="188" y="1340"/>
      <point x="236" y="1366" type="qcurve"/>
      <point x="284" y="1394"/>
      <point x="387" y="1420"/>
      <point x="446" y="1420" type="qcurve" smooth="yes"/>
      <point x="505" y="1420"/>
      <point x="610" y="1394"/>
      <point x="657" y="1366" type="qcurve" smooth="yes"/>
      <point x="704" y="1339"/>
      <point x="778" y="1266"/>
      <point x="805" y="1220" type="qcurve"/>
      <point x="834" y="1175"/>
      <point x="860" y="1071"/>
      <point x="860" y="1014" type="qcurve" smooth="yes"/>
      <point x="860" y="957"/>
      <point x="834" y="854"/>
      <point x="805" y="809" type="qcurve"/>
      <point x="750" y="714"/>
      <point x="564" y="606"/>
    </contour>
    <contour>
      <point x="446" y="852" type="qcurve" smooth="yes"/>
      <point x="469" y="852"/>
      <point x="509" y="864"/>
      <point x="528" y="875" type="qcurve" smooth="yes"/>
      <point x="564" y="895"/>
      <point x="604" y="968"/>
      <point x="604" y="1014" type="qcurve" smooth="yes"/>
      <point x="604" y="1049"/>
      <point x="582" y="1107"/>
      <point x="560" y="1130" type="qcurve" smooth="yes"/>
      <point x="537" y="1153"/>
      <point x="481" y="1174"/>
      <point x="446" y="1174" type="qcurve" smooth="yes"/>
      <point x="423" y="1174"/>
      <point x="382" y="1165"/>
      <point x="365" y="1155" type="qcurve" smooth="yes"/>
      <point x="329" y="1134"/>
      <point x="288" y="1062"/>
      <point x="288" y="1014" type="qcurve" smooth="yes"/>
      <point x="288" y="979"/>
      <point x="311" y="920"/>
      <point x="334" y="897" type="qcurve" smooth="yes"/>
      <point x="356" y="874"/>
      <point x="411" y="852"/>
    </contour>
  </outline>
</glyph>
<glyph name="twosuperior" format="2">
  <advance width="854"/>
  <unicode hex="00B2"/>
  <outline>
    <contour>
      <point x="57" y="1392" type="line"/>
      <point x="115" y="1552"/>
      <point x="246" y="1655"/>
      <point x="390" y="1655" type="curve" smooth="yes"/>
      <point x="608" y="1655"/>
      <point x="744" y="1550"/>
      <point x="744" y="1381" type="curve" smooth="yes"/>
      <point x="744" y="1256"/>
      <point x="677" y="1123"/>
      <point x="555" y="1035" type="curve" smooth="yes"/>
      <point x="418" y="936" type="line"/>
      <point x="768" y="936" type="line"/>
      <point x="768" y="720" type="line"/>
      <point x="56" y="720" type="line"/>
      <point x="56" y="888" type="line"/>
      <point x="317" y="1091" type="line" smooth="yes"/>
      <point x="427" y="1175"/>
      <point x="491" y="1268"/>
      <point x="491" y="1343" type="curve" smooth="yes"/>
      <point x="491" y="1401"/>
      <point x="455" y="1436"/>
      <point x="396" y="1436" type="curve" smooth="yes"/>
      <point x="333" y="1436"/>
      <point x="286" y="1392"/>
      <point x="275" y="1321" type="curve"/>
    </contour>
  </outline>
</glyph>
<glyph name="threesuperior" format="2">
  <advance width="826"/>
  <unicode hex="00B3"/>
  <outline>
    <contour>
      <point x="376" y="702" type="curve" smooth="yes"/>
      <point x="311" y="702"/>
      <point x="250" y="714"/>
      <point x="190" y="734" type="curve"/>
      <point x="131" y="757"/>
      <point x="88" y="779"/>
      <point x="61" y="810" type="curve"/>
      <point x="136" y="1014" type="line"/>
      <point x="159" y="986"/>
      <point x="191" y="963"/>
      <point x="234" y="946" type="curve" smooth="yes"/>
      <point x="275" y="929"/>
      <point x="315" y="920"/>
      <point x="358" y="920" type="curve" smooth="yes"/>
      <point x="398" y="920"/>
      <point x="431" y="928"/>
      <point x="458" y="947" type="curve"/>
      <point x="485" y="963"/>
      <point x="498" y="986"/>
      <point x="498" y="1014" type="curve" smooth="yes"/>
      <point x="498" y="1045"/>
      <point x="487" y="1070"/>
      <point x="463" y="1087" type="curve"/>
      <point x="436" y="1104"/>
      <point x="405" y="1112"/>
      <point x="366" y="1112" type="curve" smooth="yes"/>
      <point x="338" y="1112"/>
      <point x="302" y="1109"/>
      <point x="258" y="1096" type="curve"/>
      <point x="190" y="1258" type="line"/>
      <point x="408" y="1422" type="line"/>
      <point x="74" y="1422" type="line"/>
      <point x="74" y="1632" type="line"/>
      <point x="698" y="1632" type="line"/>
      <point x="698" y="1440" type="line"/>
      <point x="502" y="1260" type="line"/>
      <point x="542" y="1255"/>
      <point x="578" y="1242"/>
      <point x="614" y="1221" type="curve" smooth="yes"/>
      <point x="687" y="1176"/>
      <point x="738" y="1103"/>
      <point x="738" y="994" type="curve" smooth="yes"/>
      <point x="738" y="939"/>
      <point x="722" y="889"/>
      <point x="693" y="844" type="curve"/>
      <point x="630" y="757"/>
      <point x="519" y="702"/>
    </contour>
  </outline>
</glyph>
<glyph name="uni03BC" format="2">
  <advance width="1340"/>
  <unicode hex="00B5"/>
  <outline>
    <contour>
      <point x="128" y="-420" type="line"/>
      <point x="128" y="1040" type="line"/>
      <point x="528" y="1040" type="line"/>
      <point x="528" y="482" type="line" smooth="yes"/>
      <point x="528" y="452"/>
      <point x="534" y="426"/>
      <point x="545" y="403" type="curve"/>
      <point x="568" y="358"/>
      <point x="610" y="330"/>
      <point x="670" y="330" type="curve" smooth="yes"/>
      <point x="700" y="330"/>
      <point x="726" y="337"/>
      <point x="747" y="350" type="curve" smooth="yes"/>
      <point x="790" y="376"/>
      <point x="812" y="422"/>
      <point x="812" y="482" type="curve" smooth="yes"/>
      <point x="812" y="1040" type="line"/>
      <point x="1212" y="1040" type="line"/>
      <point x="1212" y="0" type="line"/>
      <point x="872" y="0" type="line"/>
      <point x="872" y="102" type="line"/>
      <point x="852" y="71"/>
      <point x="825" y="42"/>
      <point x="791" y="13" type="curve" smooth="yes"/>
      <point x="757" y="-16"/>
      <point x="710" y="-30"/>
      <point x="650" y="-30" type="curve" smooth="yes"/>
      <point x="557" y="-30"/>
      <point x="498" y="2"/>
      <point x="458" y="42" type="curve"/>
      <point x="488" y="-420" type="line"/>
    </contour>
  </outline>
</glyph>
<glyph name="paragraph" format="2">
  <advance width="1444"/>
  <unicode hex="00B6"/>
  <outline>
    <contour>
      <point x="558" y="-420" type="line"/>
      <point x="558" y="510" type="line"/>
      <point x="610" y="464" type="line"/>
      <point x="526" y="464"/>
      <point x="377" y="493"/>
      <point x="314" y="522" type="qcurve"/>
      <point x="183" y="580"/>
      <point x="40" y="789"/>
      <point x="40" y="932" type="qcurve" smooth="yes"/>
      <point x="40" y="1005"/>
      <point x="77" y="1128"/>
      <point x="112" y="1180" type="qcurve" smooth="yes"/>
      <point x="184" y="1287"/>
      <point x="441" y="1400"/>
      <point x="610" y="1400" type="qcurve" smooth="yes"/>
      <point x="1414" y="1400" type="line"/>
      <point x="1414" y="1186" type="line"/>
      <point x="1210" y="1186" type="line"/>
      <point x="1210" y="-420" type="line"/>
      <point x="950" y="-420" type="line"/>
      <point x="950" y="1186" type="line"/>
      <point x="818" y="1186" type="line"/>
      <point x="818" y="-420" type="line"/>
    </contour>
  </outline>
</glyph>
<glyph name="ordmasculine" format="2">
  <advance width="892"/>
  <unicode hex="00BA"/>
  <anchor x="446" y="1398" name="top"/>
  <anchor x="714" y="1398" name="horn"/>
  <anchor x="446" y="722" name="bottom"/>
  <outline>
    <contour>
      <point x="446" y="702" type="curve" smooth="yes"/>
      <point x="369" y="702"/>
      <point x="301" y="718"/>
      <point x="242" y="751" type="curve" smooth="yes"/>
      <point x="124" y="816"/>
      <point x="54" y="931"/>
      <point x="54" y="1060" type="curve" smooth="yes"/>
      <point x="54" y="1122"/>
      <point x="71" y="1180"/>
      <point x="104" y="1235" type="curve" smooth="yes"/>
      <point x="170" y="1344"/>
      <point x="291" y="1418"/>
      <point x="446" y="1418" type="curve" smooth="yes"/>
      <point x="523" y="1418"/>
      <point x="592" y="1402"/>
      <point x="651" y="1369" type="curve" smooth="yes"/>
      <point x="769" y="1304"/>
      <point x="838" y="1189"/>
      <point x="838" y="1060" type="curve" smooth="yes"/>
      <point x="838" y="998"/>
      <point x="822" y="940"/>
      <point x="789" y="885" type="curve" smooth="yes"/>
      <point x="723" y="776"/>
      <point x="601" y="702"/>
    </contour>
    <contour>
      <point x="446" y="924" type="curve" smooth="yes"/>
      <point x="472" y="924"/>
      <point x="496" y="930"/>
      <point x="517" y="941" type="curve" smooth="yes"/>
      <point x="559" y="963"/>
      <point x="584" y="1004"/>
      <point x="584" y="1060" type="curve" smooth="yes"/>
      <point x="584" y="1102"/>
      <point x="571" y="1135"/>
      <point x="545" y="1160" type="curve"/>
      <point x="518" y="1184"/>
      <point x="485" y="1196"/>
      <point x="446" y="1196" type="curve" smooth="yes"/>
      <point x="419" y="1196"/>
      <point x="396" y="1191"/>
      <point x="375" y="1180" type="curve" smooth="yes"/>
      <point x="333" y="1158"/>
      <point x="306" y="1116"/>
      <point x="306" y="1060" type="curve" smooth="yes"/>
      <point x="306" y="1018"/>
      <point x="320" y="985"/>
      <point x="347" y="961" type="curve" smooth="yes"/>
      <point x="374" y="936"/>
      <point x="407" y="924"/>
    </contour>
  </outline>
</glyph>
<glyph name="guillemetright" format="2">
  <advance width="1230"/>
  <unicode hex="00BB"/>
  <outline>
    <contour>
      <point x="907" y="999" type="line"/>
      <point x="1190" y="530" type="line"/>
      <point x="907" y="60" type="line"/>
      <point x="638" y="221" type="line"/>
      <point x="822" y="530" type="line"/>
      <point x="639" y="837" type="line"/>
    </contour>
    <contour>
      <point x="387" y="999" type="line"/>
      <point x="670" y="530" type="line"/>
      <point x="387" y="60" type="line"/>
      <point x="118" y="221" type="line"/>
      <point x="302" y="530" type="line"/>
      <point x="119" y="837" type="line"/>
    </contour>
  </outline>
</glyph>
<glyph name="onequarter" format="2">
  <advance width="1890"/>
  <unicode hex="00BC"/>
  <outline>
    <contour>
      <point x="300" y="490" type="line"/>
      <point x="300" y="1112" type="line"/>
      <point x="104" y="1050" type="line"/>
      <point x="36" y="1254" type="line"/>
      <point x="457" y="1399" type="line"/>
      <point x="540" y="1400" type="line"/>
      <point x="540" y="490" type="line"/>
    </contour>
    <contour>
      <point x="1510" y="0" type="line"/>
      <point x="1510" y="160" type="line"/>
      <point x="1076" y="160" type="line"/>
      <point x="1076" y="344" type="line"/>
      <point x="1352" y="910" type="line"/>
      <point x="1606" y="910" type="line"/>
      <point x="1342" y="366" type="line"/>
      <point x="1510" y="366" type="line"/>
      <point x="1510" y="528" type="line"/>
      <point x="1724" y="528" type="line"/>
      <point x="1724" y="366" type="line"/>
      <point x="1842" y="366" type="line"/>
      <point x="1842" y="160" type="line"/>
      <point x="1724" y="160" type="line"/>
      <point x="1724" y="0" type="line"/>
    </contour>
    <contour>
      <point x="582" y="-40" type="line"/>
      <point x="382" y="78" type="line"/>
      <point x="1146" y="1440" type="line"/>
      <point x="1346" y="1326" type="line"/>
    </contour>
  </outline>
</glyph>
<glyph name="onehalf" format="2">
  <advance width="1906"/>
  <unicode hex="00BD"/>
  <outline>
    <contour>
      <point x="300" y="490" type="line"/>
      <point x="300" y="1112" type="line"/>
      <point x="104" y="1050" type="line"/>
      <point x="36" y="1254" type="line"/>
      <point x="457" y="1399" type="line"/>
      <point x="540" y="1400" type="line"/>
      <point x="540" y="490" type="line"/>
    </contour>
    <contour>
      <point x="582" y="-40" type="line"/>
      <point x="382" y="78" type="line"/>
      <point x="1146" y="1440" type="line"/>
      <point x="1346" y="1326" type="line"/>
    </contour>
    <contour>
      <point x="1117" y="672" type="line"/>
      <point x="1175" y="832"/>
      <point x="1306" y="935"/>
      <point x="1450" y="935" type="curve" smooth="yes"/>
      <point x="1668" y="935"/>
      <point x="1804" y="830"/>
      <point x="1804" y="661" type="curve" smooth="yes"/>
      <point x="1804" y="536"/>
      <point x="1727" y="403"/>
      <point x="1605" y="315" type="curve" smooth="yes"/>
      <point x="1468" y="216" type="line"/>
      <point x="1828" y="216" type="line"/>
      <point x="1828" y="0" type="line"/>
      <point x="1116" y="0" type="line"/>
      <point x="1116" y="168" type="line"/>
      <point x="1377" y="371" type="line" smooth="yes"/>
      <point x="1486" y="456"/>
      <point x="1551" y="548"/>
      <point x="1551" y="623" type="curve" smooth="yes"/>
      <point x="1551" y="681"/>
      <point x="1515" y="716"/>
      <point x="1456" y="716" type="curve" smooth="yes"/>
      <point x="1393" y="716"/>
      <point x="1346" y="672"/>
      <point x="1335" y="601" type="curve"/>
    </contour>
  </outline>
</glyph>
<glyph name="threequarters" format="2">
  <advance width="2050"/>
  <unicode hex="00BE"/>
  <outline>
    <contour>
      <point x="376" y="470" type="curve" smooth="yes"/>
      <point x="311" y="470"/>
      <point x="249" y="481"/>
      <point x="190" y="502" type="curve" smooth="yes"/>
      <point x="131" y="523"/>
      <point x="87" y="548"/>
      <point x="60" y="578" type="curve"/>
      <point x="136" y="782" type="line"/>
      <point x="159" y="753"/>
      <point x="192" y="731"/>
      <point x="233" y="714" type="curve" smooth="yes"/>
      <point x="274" y="697"/>
      <point x="316" y="688"/>
      <point x="358" y="688" type="curve" smooth="yes"/>
      <point x="398" y="688"/>
      <point x="431" y="697"/>
      <point x="458" y="714" type="curve" smooth="yes"/>
      <point x="485" y="731"/>
      <point x="498" y="754"/>
      <point x="498" y="782" type="curve" smooth="yes"/>
      <point x="498" y="813"/>
      <point x="486" y="838"/>
      <point x="462" y="855" type="curve" smooth="yes"/>
      <point x="437" y="872"/>
      <point x="405" y="880"/>
      <point x="366" y="880" type="curve" smooth="yes"/>
      <point x="338" y="880"/>
      <point x="301" y="876"/>
      <point x="258" y="864" type="curve"/>
      <point x="190" y="1026" type="line"/>
      <point x="408" y="1190" type="line"/>
      <point x="74" y="1190" type="line"/>
      <point x="74" y="1400" type="line"/>
      <point x="698" y="1400" type="line"/>
      <point x="698" y="1208" type="line"/>
      <point x="502" y="1028" type="line"/>
      <point x="541" y="1023"/>
      <point x="578" y="1009"/>
      <point x="614" y="988" type="curve" smooth="yes"/>
      <point x="686" y="944"/>
      <point x="738" y="869"/>
      <point x="738" y="762" type="curve" smooth="yes"/>
      <point x="738" y="706"/>
      <point x="723" y="656"/>
      <point x="692" y="612" type="curve" smooth="yes"/>
      <point x="630" y="524"/>
      <point x="517" y="470"/>
    </contour>
    <contour>
      <point x="1670" y="0" type="line"/>
      <point x="1670" y="160" type="line"/>
      <point x="1236" y="160" type="line"/>
      <point x="1236" y="344" type="line"/>
      <point x="1512" y="910" type="line"/>
      <point x="1766" y="910" type="line"/>
      <point x="1502" y="366" type="line"/>
      <point x="1670" y="366" type="line"/>
      <point x="1670" y="528" type="line"/>
      <point x="1884" y="528" type="line"/>
      <point x="1884" y="366" type="line"/>
      <point x="2002" y="366" type="line"/>
      <point x="2002" y="160" type="line"/>
      <point x="1884" y="160" type="line"/>
      <point x="1884" y="0" type="line"/>
    </contour>
    <contour>
      <point x="742" y="-40" type="line"/>
      <point x="542" y="78" type="line"/>
      <point x="1306" y="1440" type="line"/>
      <point x="1506" y="1326" type="line"/>
    </contour>
  </outline>
</glyph>
<glyph name="questiondown" format="2">
  <advance width="1052"/>
  <unicode hex="00BF"/>
  <outline>
    <contour>
      <point x="409" y="540" type="line"/>
      <point x="298" y="433" type="line"/>
      <point x="305" y="415" type="line"/>
      <point x="305" y="415" type="line"/>
      <point x="377" y="418"/>
      <point x="425" y="411"/>
      <point x="452" y="396" type="curve"/>
      <point x="468" y="388"/>
      <point x="476" y="378"/>
      <point x="476" y="363" type="curve" smooth="yes"/>
      <point x="476" y="339"/>
      <point x="452" y="319"/>
      <point x="380" y="283" type="curve" smooth="yes"/>
      <point x="327" y="256"/>
      <point x="275" y="233"/>
      <point x="228" y="202" type="curve" smooth="yes"/>
      <point x="181" y="171"/>
      <point x="141" y="134"/>
      <point x="110" y="79" type="curve" smooth="yes"/>
      <point x="86" y="36"/>
      <point x="74" y="-16"/>
      <point x="74" y="-77" type="curve" smooth="yes"/>
      <point x="74" y="-140"/>
      <point x="90" y="-193"/>
      <point x="121" y="-237" type="curve" smooth="yes"/>
      <point x="152" y="-280"/>
      <point x="190" y="-315"/>
      <point x="239" y="-346" type="curve" smooth="yes"/>
      <point x="284" y="-374"/>
      <point x="337" y="-395"/>
      <point x="397" y="-410" type="curve" smooth="yes"/>
      <point x="456" y="-425"/>
      <point x="509" y="-430"/>
      <point x="562" y="-430" type="curve" smooth="yes"/>
      <point x="586" y="-430"/>
      <point x="611" y="-428"/>
      <point x="662" y="-423" type="curve" smooth="yes"/>
      <point x="691" y="-420"/>
      <point x="721" y="-415"/>
      <point x="789" y="-402" type="curve" smooth="yes"/>
      <point x="885" y="-383"/>
      <point x="957" y="-351"/>
      <point x="992" y="-314" type="curve"/>
      <point x="918" y="10" type="line"/>
      <point x="879" y="-10"/>
      <point x="843" y="-27"/>
      <point x="800" y="-43" type="curve"/>
      <point x="764" y="-58"/>
      <point x="722" y="-64"/>
      <point x="674" y="-64" type="curve" smooth="yes"/>
      <point x="633" y="-64"/>
      <point x="608" y="-61"/>
      <point x="585" y="-52" type="curve" smooth="yes"/>
      <point x="554" y="-40"/>
      <point x="540" y="-18"/>
      <point x="540" y="17" type="curve" smooth="yes"/>
      <point x="540" y="48"/>
      <point x="559" y="79"/>
      <point x="602" y="102" type="curve" smooth="yes"/>
      <point x="658" y="131"/>
      <point x="703" y="159"/>
      <point x="736" y="185" type="curve" smooth="yes"/>
      <point x="753" y="198"/>
      <point x="767" y="210"/>
      <point x="780" y="222" type="curve"/>
      <point x="804" y="246"/>
      <point x="818" y="271"/>
      <point x="826" y="297" type="curve"/>
      <point x="829" y="310"/>
      <point x="831" y="323"/>
      <point x="831" y="336" type="curve" smooth="yes"/>
      <point x="831" y="391"/>
      <point x="802" y="438"/>
      <point x="747" y="473" type="curve"/>
      <point x="683" y="516"/>
      <point x="590" y="540"/>
      <point x="477" y="540" type="curve" smooth="yes"/>
    </contour>
    <contour>
      <point x="586" y="1070" type="curve" smooth="yes"/>
      <point x="522" y="1070"/>
      <point x="463" y="1048"/>
      <point x="420" y="1008" type="curve" smooth="yes"/>
      <point x="377" y="968"/>
      <point x="352" y="911"/>
      <point x="352" y="848" type="curve" smooth="yes"/>
      <point x="352" y="784"/>
      <point x="375" y="728"/>
      <point x="419" y="685" type="curve" smooth="yes"/>
      <point x="460" y="645"/>
      <point x="518" y="624"/>
      <point x="586" y="624" type="curve" smooth="yes"/>
      <point x="650" y="624"/>
      <point x="709" y="645"/>
      <point x="752" y="684" type="curve" smooth="yes"/>
      <point x="796" y="724"/>
      <point x="820" y="780"/>
      <point x="820" y="848" type="curve" smooth="yes"/>
      <point x="820" y="913"/>
      <point x="797" y="968"/>
      <point x="752" y="1009" type="curve" smooth="yes"/>
      <point x="709" y="1048"/>
      <point x="651" y="1070"/>
    </contour>
  </outline>
</glyph>
<glyph name="Eth" format="2">
  <advance width="1520"/>
  <unicode hex="00D0"/>
  <outline>
    <contour>
      <point x="-22" y="558" type="line"/>
      <point x="864" y="558" type="line"/>
      <point x="864" y="866" type="line"/>
      <point x="-22" y="866" type="line"/>
    </contour>
    <contour>
      <point x="196" y="0" type="line"/>
      <point x="704" y="0" type="line" smooth="yes"/>
      <point x="932" y="0"/>
      <point x="1113" y="69"/>
      <point x="1246" y="194" type="curve" smooth="yes"/>
      <point x="1379" y="318"/>
      <point x="1450" y="488"/>
      <point x="1450" y="700" type="curve" smooth="yes"/>
      <point x="1450" y="841"/>
      <point x="1421" y="962"/>
      <point x="1357" y="1066" type="curve" smooth="yes"/>
      <point x="1293" y="1171"/>
      <point x="1210" y="1252"/>
      <point x="1097" y="1312" type="curve" smooth="yes"/>
      <point x="981" y="1372"/>
      <point x="853" y="1400"/>
      <point x="704" y="1400" type="curve" smooth="yes"/>
      <point x="196" y="1400" type="line"/>
    </contour>
    <contour>
      <point x="600" y="376" type="line"/>
      <point x="600" y="1024" type="line"/>
      <point x="694" y="1024" type="line" smooth="yes"/>
      <point x="827" y="1024"/>
      <point x="928" y="979"/>
      <point x="984" y="883" type="curve" smooth="yes"/>
      <point x="1012" y="834"/>
      <point x="1026" y="776"/>
      <point x="1026" y="700" type="curve" smooth="yes"/>
      <point x="1026" y="591"/>
      <point x="994" y="512"/>
      <point x="934" y="456" type="curve"/>
      <point x="874" y="403"/>
      <point x="794" y="376"/>
      <point x="694" y="376" type="curve" smooth="yes"/>
    </contour>
  </outline>
</glyph>
<glyph name="Oslash" format="2">
  <advance width="1648"/>
  <unicode hex="00D8"/>
  <outline>
    <contour>
      <point x="326" y="-124" type="line"/>
      <point x="92" y="84" type="line"/>
      <point x="222" y="240" type="line"/>
      <point x="150" y="336"/>
      <point x="70" y="568"/>
      <point x="70" y="700" type="qcurve" smooth="yes"/>
      <point x="70" y="857"/>
      <point x="183" y="1121"/>
      <point x="287" y="1221" type="qcurve" smooth="yes"/>
      <point x="390" y="1321"/>
      <point x="663" y="1430"/>
      <point x="824" y="1430" type="qcurve" smooth="yes"/>
      <point x="921" y="1430"/>
      <point x="1081" y="1391"/>
      <point x="1146" y="1358" type="qcurve"/>
      <point x="1296" y="1540" type="line"/>
      <point x="1530" y="1334" type="line"/>
      <point x="1404" y="1184" type="line"/>
      <point x="1489" y="1088"/>
      <point x="1578" y="839"/>
      <point x="1578" y="700" type="qcurve" smooth="yes"/>
      <point x="1578" y="544"/>
      <point x="1466" y="280"/>
      <point x="1362" y="180" type="qcurve" smooth="yes"/>
      <point x="1260" y="80"/>
      <point x="986" y="-30"/>
      <point x="824" y="-30" type="qcurve" smooth="yes"/>
      <point x="727" y="-30"/>
      <point x="550" y="15"/>
      <point x="472" y="54" type="qcurve"/>
    </contour>
    <contour>
      <point x="904" y="1054" type="line"/>
      <point x="885" y="1060"/>
      <point x="844" y="1066"/>
      <point x="824" y="1066" type="qcurve" smooth="yes"/>
      <point x="749" y="1066"/>
      <point x="625" y="1016"/>
      <point x="579" y="967" type="qcurve" smooth="yes"/>
      <point x="535" y="919"/>
      <point x="484" y="785"/>
      <point x="484" y="700" type="qcurve" smooth="yes"/>
      <point x="484" y="665"/>
      <point x="497" y="601"/>
      <point x="506" y="572" type="qcurve"/>
    </contour>
    <contour>
      <point x="824" y="334" type="qcurve" smooth="yes"/>
      <point x="903" y="334"/>
      <point x="1027" y="386"/>
      <point x="1071" y="436" type="qcurve"/>
      <point x="1117" y="483"/>
      <point x="1164" y="618"/>
      <point x="1164" y="700" type="qcurve" smooth="yes"/>
      <point x="1164" y="746"/>
      <point x="1149" y="831"/>
      <point x="1132" y="868" type="qcurve"/>
      <point x="706" y="354" type="line"/>
      <point x="733" y="346"/>
      <point x="792" y="334"/>
    </contour>
  </outline>
</glyph>
<glyph name="Thorn" format="2">
  <advance width="1380"/>
  <unicode hex="00DE"/>
  <outline>
    <contour>
      <point x="156" y="0" type="line"/>
      <point x="560" y="0" type="line"/>
      <point x="560" y="236" type="line"/>
      <point x="762" y="236" type="line" smooth="yes"/>
      <point x="1005" y="236"/>
      <point x="1175" y="311"/>
      <point x="1264" y="459" type="curve" smooth="yes"/>
      <point x="1309" y="531"/>
      <point x="1330" y="616"/>
      <point x="1330" y="720" type="curve" smooth="yes"/>
      <point x="1330" y="927"/>
      <point x="1229" y="1071"/>
      <point x="1060" y="1148" type="curve" smooth="yes"/>
      <point x="975" y="1185"/>
      <point x="881" y="1204"/>
      <point x="772" y="1204" type="curve" smooth="yes"/>
      <point x="560" y="1204" type="line"/>
      <point x="560" y="1400" type="line"/>
      <point x="156" y="1400" type="line"/>
    </contour>
    <contour>
      <point x="560" y="570" type="line"/>
      <point x="560" y="860" type="line"/>
      <point x="748" y="860" type="line" smooth="yes"/>
      <point x="800" y="860"/>
      <point x="844" y="851"/>
      <point x="877" y="830" type="curve"/>
      <point x="910" y="807"/>
      <point x="926" y="770"/>
      <point x="926" y="714" type="curve" smooth="yes"/>
      <point x="926" y="606"/>
      <point x="859" y="570"/>
      <point x="746" y="570" type="curve" smooth="yes"/>
    </contour>
  </outline>
</glyph>
<glyph name="germandbls" format="2">
  <advance width="1446"/>
  <unicode hex="00DF"/>
  <outline>
    <contour>
      <point x="922" y="-28" type="qcurve"/>
      <point x="871" y="-28"/>
      <point x="731" y="-12"/>
      <point x="639" y="22" type="qcurve"/>
      <point x="720" y="304" type="line"/>
      <point x="752" y="285"/>
      <point x="821" y="268"/>
      <point x="853" y="268" type="qcurve"/>
      <point x="915" y="268"/>
      <point x="982" y="318"/>
      <point x="982" y="360" type="qcurve"/>
      <point x="982" y="402"/>
      <point x="923" y="467"/>
      <point x="884" y="500" type="qcurve"/>
      <point x="851" y="528"/>
      <point x="786" y="590"/>
      <point x="744" y="665"/>
      <point x="744" y="712" type="qcurve"/>
      <point x="744" y="742"/>
      <point x="765" y="801"/>
      <point x="797" y="858"/>
      <point x="814" y="886" type="qcurve"/>
      <point x="830" y="911"/>
      <point x="858" y="960"/>
      <point x="876" y="1008"/>
      <point x="876" y="1032" type="qcurve"/>
      <point x="876" y="1083"/>
      <point x="792" y="1144"/>
      <point x="724" y="1144" type="qcurve"/>
      <point x="631" y="1144"/>
      <point x="528" y="1028"/>
      <point x="528" y="924" type="qcurve"/>
      <point x="528" y="0" type="line"/>
      <point x="128" y="0" type="line"/>
      <point x="128" y="946" type="line"/>
      <point x="128" y="1108"/>
      <point x="275" y="1343"/>
      <point x="548" y="1470"/>
      <point x="736" y="1470" type="qcurve"/>
      <point x="892" y="1470"/>
      <point x="1128" y="1382"/>
      <point x="1260" y="1225"/>
      <point x="1260" y="1122" type="qcurve"/>
      <point x="1260" y="1072"/>
      <point x="1235" y="986"/>
      <point x="1198" y="913"/>
      <point x="1180" y="882" type="qcurve"/>
      <point x="1162" y="851"/>
      <point x="1136" y="797"/>
      <point x="1136" y="775" type="qcurve"/>
      <point x="1136" y="746"/>
      <point x="1186" y="690"/>
      <point x="1222" y="658" type="qcurve"/>
      <point x="1260" y="623"/>
      <point x="1341" y="537"/>
      <point x="1396" y="427"/>
      <point x="1396" y="356" type="qcurve"/>
      <point x="1396" y="246"/>
      <point x="1272" y="72"/>
      <point x="1057" y="-28"/>
    </contour>
  </outline>
</glyph>
<glyph name="ae" format="2">
  <advance width="1886"/>
  <unicode hex="00E6"/>
  <outline>
    <contour>
      <point x="463" y="-30" type="qcurve" smooth="yes"/>
      <point x="372" y="-30"/>
      <point x="227" y="15"/>
      <point x="170" y="59" type="qcurve"/>
      <point x="113" y="105"/>
      <point x="57" y="228"/>
      <point x="57" y="308" type="qcurve" smooth="yes"/>
      <point x="57" y="372"/>
      <point x="96" y="474"/>
      <point x="137" y="516" type="qcurve"/>
      <point x="176" y="558"/>
      <point x="294" y="616"/>
      <point x="372" y="633" type="qcurve" smooth="yes"/>
      <point x="451" y="650"/>
      <point x="641" y="659"/>
      <point x="757" y="648" type="qcurve"/>
      <point x="755" y="412" type="line"/>
      <point x="709" y="422"/>
      <point x="628" y="431"/>
      <point x="589" y="430" type="qcurve" smooth="yes"/>
      <point x="551" y="429"/>
      <point x="488" y="417"/>
      <point x="466" y="405" type="qcurve" smooth="yes"/>
      <point x="443" y="392"/>
      <point x="419" y="354"/>
      <point x="419" y="328" type="qcurve" smooth="yes"/>
      <point x="419" y="289"/>
      <point x="481" y="250"/>
      <point x="535" y="250" type="qcurve" smooth="yes"/>
      <point x="557" y="250"/>
      <point x="602" y="258"/>
      <point x="622" y="265" type="qcurve" smooth="yes"/>
      <point x="661" y="280"/>
      <point x="709" y="345"/>
      <point x="709" y="402" type="qcurve"/>
      <point x="711" y="622" type="line"/>
      <point x="711" y="654"/>
      <point x="688" y="709"/>
      <point x="666" y="730" type="qcurve"/>
      <point x="642" y="749"/>
      <point x="554" y="770"/>
      <point x="489" y="770" type="qcurve" smooth="yes"/>
      <point x="457" y="770"/>
      <point x="384" y="758"/>
      <point x="344" y="747" type="qcurve"/>
      <point x="304" y="734"/>
      <point x="234" y="701"/>
      <point x="205" y="678" type="qcurve"/>
      <point x="107" y="944" type="line"/>
      <point x="211" y="1008"/>
      <point x="454" y="1070"/>
      <point x="571" y="1070" type="qcurve" smooth="yes"/>
      <point x="654" y="1070"/>
      <point x="798" y="1041"/>
      <point x="861" y="1011" type="qcurve" smooth="yes"/>
      <point x="924" y="980"/>
      <point x="1018" y="880"/>
      <point x="1049" y="808" type="qcurve"/>
      <point x="871" y="842" type="line"/>
      <point x="919" y="898"/>
      <point x="1027" y="984"/>
      <point x="1087" y="1012" type="qcurve"/>
      <point x="1147" y="1042"/>
      <point x="1271" y="1070"/>
      <point x="1337" y="1070" type="qcurve" smooth="yes"/>
      <point x="1424" y="1070"/>
      <point x="1571" y="1028"/>
      <point x="1632" y="983" type="qcurve" smooth="yes"/>
      <point x="1693" y="938"/>
      <point x="1780" y="820"/>
      <point x="1807" y="746" type="qcurve"/>
      <point x="1832" y="670"/>
      <point x="1840" y="503"/>
      <point x="1823" y="408" type="qcurve"/>
      <point x="1101" y="408" type="line"/>
      <point x="1104" y="378"/>
      <point x="1137" y="328"/>
      <point x="1167" y="310" type="qcurve" smooth="yes"/>
      <point x="1199" y="290"/>
      <point x="1273" y="270"/>
      <point x="1319" y="270" type="qcurve" smooth="yes"/>
      <point x="1364" y="270"/>
      <point x="1448" y="282"/>
      <point x="1488" y="292" type="qcurve"/>
      <point x="1528" y="304"/>
      <point x="1606" y="338"/>
      <point x="1649" y="362" type="qcurve"/>
      <point x="1763" y="98" type="line"/>
      <point x="1742" y="82"/>
      <point x="1686" y="48"/>
      <point x="1651" y="35" type="qcurve" smooth="yes"/>
      <point x="1578" y="6"/>
      <point x="1411" y="-30"/>
      <point x="1327" y="-30" type="qcurve" smooth="yes"/>
      <point x="1226" y="-30"/>
      <point x="1049" y="20"/>
      <point x="971" y="71" type="qcurve" smooth="yes"/>
      <point x="893" y="122"/>
      <point x="786" y="270"/>
      <point x="757" y="372" type="qcurve"/>
      <point x="929" y="406" type="line"/>
      <point x="929" y="334"/>
      <point x="899" y="216"/>
      <point x="867" y="167" type="qcurve" smooth="yes"/>
      <point x="835" y="118"/>
      <point x="750" y="45"/>
      <point x="696" y="20" type="qcurve" smooth="yes"/>
      <point x="642" y="-5"/>
      <point x="526" y="-30"/>
    </contour>
    <contour>
      <point x="1459" y="668" type="line"/>
      <point x="1459" y="696"/>
      <point x="1436" y="739"/>
      <point x="1414" y="757" type="qcurve" smooth="yes"/>
      <point x="1392" y="774"/>
      <point x="1337" y="790"/>
      <point x="1303" y="790" type="qcurve" smooth="yes"/>
      <point x="1265" y="790"/>
      <point x="1203" y="774"/>
      <point x="1179" y="757" type="qcurve" smooth="yes"/>
      <point x="1153" y="739"/>
      <point x="1128" y="696"/>
      <point x="1127" y="668" type="qcurve"/>
    </contour>
  </outline>
</glyph>
<glyph name="eth" format="2">
  <advance width="1261"/>
  <unicode hex="00F0"/>
  <outline>
    <contour>
      <point x="618" y="-30" type="curve" smooth="yes"/>
      <point x="793" y="-30"/>
      <point x="933" y="33"/>
      <point x="1041" y="141" type="curve" smooth="yes"/>
      <point x="1149" y="246"/>
      <point x="1206" y="391"/>
      <point x="1206" y="552" type="curve" smooth="yes"/>
      <point x="1206" y="677"/>
      <point x="1179" y="795"/>
      <point x="1119" y="912" type="curve" smooth="yes"/>
      <point x="1059" y="1025"/>
      <point x="980" y="1129"/>
      <point x="876" y="1225" type="curve" smooth="yes"/>
      <point x="772" y="1321"/>
      <point x="657" y="1398"/>
      <point x="520" y="1466" type="curve"/>
      <point x="226" y="1260" type="line"/>
      <point x="343" y="1208"/>
      <point x="441" y="1147"/>
      <point x="529" y="1082" type="curve" smooth="yes"/>
      <point x="617" y="1017"/>
      <point x="685" y="949"/>
      <point x="734" y="880" type="curve"/>
      <point x="840" y="836" type="line"/>
      <point x="792" y="892"/>
      <point x="726" y="915"/>
      <point x="662" y="924" type="curve" smooth="yes"/>
      <point x="630" y="929"/>
      <point x="602" y="930"/>
      <point x="574" y="930" type="curve" smooth="yes"/>
      <point x="425" y="930"/>
      <point x="299" y="882"/>
      <point x="203" y="794" type="curve" smooth="yes"/>
      <point x="107" y="706"/>
      <point x="50" y="593"/>
      <point x="50" y="460" type="curve" smooth="yes"/>
      <point x="50" y="368"/>
      <point x="73" y="285"/>
      <point x="124" y="209" type="curve" smooth="yes"/>
      <point x="172" y="136"/>
      <point x="237" y="78"/>
      <point x="325" y="35" type="curve"/>
      <point x="409" y="-9"/>
      <point x="505" y="-30"/>
    </contour>
    <contour>
      <point x="618" y="300" type="curve" smooth="yes"/>
      <point x="546" y="300"/>
      <point x="493" y="332"/>
      <point x="461" y="388" type="curve" smooth="yes"/>
      <point x="446" y="413"/>
      <point x="438" y="445"/>
      <point x="438" y="480" type="curve" smooth="yes"/>
      <point x="438" y="553"/>
      <point x="469" y="606"/>
      <point x="525" y="638" type="curve"/>
      <point x="552" y="651"/>
      <point x="583" y="660"/>
      <point x="618" y="660" type="curve" smooth="yes"/>
      <point x="691" y="660"/>
      <point x="744" y="630"/>
      <point x="776" y="574" type="curve"/>
      <point x="789" y="549"/>
      <point x="798" y="515"/>
      <point x="798" y="480" type="curve" smooth="yes"/>
      <point x="798" y="408"/>
      <point x="769" y="353"/>
      <point x="713" y="324" type="curve"/>
      <point x="685" y="308"/>
      <point x="654" y="300"/>
    </contour>
    <contour>
      <point x="258" y="902" type="line"/>
      <point x="630" y="1068" type="line"/>
      <point x="630" y="1082" type="line"/>
      <point x="1000" y="1252" type="line"/>
      <point x="1000" y="1470" type="line"/>
      <point x="630" y="1300" type="line"/>
      <point x="630" y="1286" type="line"/>
      <point x="258" y="1120" type="line"/>
    </contour>
  </outline>
</glyph>
<glyph name="divide" format="2">
  <advance width="1296"/>
  <unicode hex="00F7"/>
  <outline>
    <contour>
      <point x="68" y="536" type="line"/>
      <point x="68" y="804" type="line"/>
      <point x="1268" y="804" type="line"/>
      <point x="1268" y="536" type="line"/>
    </contour>
    <contour>
      <point x="668" y="90" type="qcurve"/>
      <point x="593" y="90"/>
      <point x="484" y="198"/>
      <point x="484" y="270" type="qcurve"/>
      <point x="484" y="319"/>
      <point x="534" y="402"/>
      <point x="618" y="452"/>
      <point x="668" y="452" type="qcurve"/>
      <point x="745" y="452"/>
      <point x="852" y="344"/>
      <point x="852" y="270" type="qcurve"/>
      <point x="852" y="222"/>
      <point x="802" y="140"/>
      <point x="719" y="90"/>
    </contour>
    <contour>
      <point x="668" y="886" type="qcurve"/>
      <point x="593" y="886"/>
      <point x="484" y="994"/>
      <point x="484" y="1066" type="qcurve"/>
      <point x="484" y="1115"/>
      <point x="534" y="1198"/>
      <point x="618" y="1248"/>
      <point x="668" y="1248" type="qcurve"/>
      <point x="745" y="1248"/>
      <point x="852" y="1140"/>
      <point x="852" y="1066" type="qcurve"/>
      <point x="852" y="1018"/>
      <point x="802" y="936"/>
      <point x="719" y="886"/>
    </contour>
  </outline>
</glyph>
<glyph name="oslash" format="2">
  <advance width="1276"/>
  <unicode hex="00F8"/>
  <outline>
    <contour>
      <point x="264" y="-138" type="line"/>
      <point x="70" y="34" type="line"/>
      <point x="180" y="168" type="line"/>
      <point x="99" y="264"/>
      <point x="50" y="387"/>
      <point x="50" y="520" type="curve" smooth="yes"/>
      <point x="50" y="665"/>
      <point x="110" y="799"/>
      <point x="215" y="904" type="curve" smooth="yes"/>
      <point x="318" y="1007"/>
      <point x="463" y="1070"/>
      <point x="638" y="1070" type="curve" smooth="yes"/>
      <point x="730" y="1070"/>
      <point x="810" y="1056"/>
      <point x="882" y="1024" type="curve"/>
      <point x="1010" y="1180" type="line"/>
      <point x="1204" y="1008" type="line"/>
      <point x="1094" y="874" type="line"/>
      <point x="1178" y="778"/>
      <point x="1226" y="656"/>
      <point x="1226" y="520" type="curve" smooth="yes"/>
      <point x="1226" y="375"/>
      <point x="1167" y="242"/>
      <point x="1064" y="137" type="curve"/>
      <point x="959" y="34"/>
      <point x="815" y="-30"/>
      <point x="638" y="-30" type="curve" smooth="yes"/>
      <point x="549" y="-30"/>
      <point x="464" y="-13"/>
      <point x="392" y="16" type="curve"/>
    </contour>
    <contour>
      <point x="682" y="756" type="line"/>
      <point x="673" y="760"/>
      <point x="662" y="758"/>
      <point x="650" y="758" type="curve" smooth="yes"/>
      <point x="606" y="758"/>
      <point x="565" y="749"/>
      <point x="528" y="729" type="curve"/>
      <point x="456" y="688"/>
      <point x="412" y="611"/>
      <point x="412" y="510" type="curve" smooth="yes"/>
      <point x="412" y="486"/>
      <point x="416" y="461"/>
      <point x="420" y="438" type="curve"/>
    </contour>
    <contour>
      <point x="626" y="282" type="curve" smooth="yes"/>
      <point x="673" y="282"/>
      <point x="711" y="292"/>
      <point x="748" y="312" type="curve" smooth="yes"/>
      <point x="820" y="352"/>
      <point x="864" y="426"/>
      <point x="864" y="530" type="curve" smooth="yes"/>
      <point x="864" y="557"/>
      <point x="863" y="583"/>
      <point x="856" y="606" type="curve"/>
      <point x="590" y="284" type="line"/>
      <point x="602" y="284"/>
      <point x="614" y="282"/>
    </contour>
  </outline>
</glyph>
<glyph name="thorn" format="2">
  <advance width="1364"/>
  <unicode hex="00FE"/>
  <outline>
    <contour>
      <point x="128" y="-420" type="line"/>
      <point x="128" y="1440" type="line"/>
      <point x="526" y="1440" type="line"/>
      <point x="526" y="988" type="line"/>
      <point x="565" y="1016"/>
      <point x="607" y="1037"/>
      <point x="652" y="1050" type="curve" smooth="yes"/>
      <point x="697" y="1063"/>
      <point x="743" y="1070"/>
      <point x="792" y="1070" type="curve" smooth="yes"/>
      <point x="893" y="1070"/>
      <point x="983" y="1046"/>
      <point x="1062" y="998" type="curve" smooth="yes"/>
      <point x="1141" y="950"/>
      <point x="1202" y="885"/>
      <point x="1247" y="802" type="curve" smooth="yes"/>
      <point x="1292" y="719"/>
      <point x="1314" y="625"/>
      <point x="1314" y="520" type="curve" smooth="yes"/>
      <point x="1314" y="363"/>
      <point x="1260" y="227"/>
      <point x="1167" y="128" type="curve" smooth="yes"/>
      <point x="1074" y="28"/>
      <point x="944" y="-30"/>
      <point x="792" y="-30" type="curve" smooth="yes"/>
      <point x="695" y="-30"/>
      <point x="605" y="-4"/>
      <point x="526" y="52" type="curve"/>
      <point x="526" y="-420" type="line"/>
    </contour>
    <contour>
      <point x="726" y="310" type="curve" smooth="yes"/>
      <point x="764" y="310"/>
      <point x="798" y="319"/>
      <point x="829" y="336" type="curve" smooth="yes"/>
      <point x="889" y="370"/>
      <point x="926" y="433"/>
      <point x="926" y="520" type="curve" smooth="yes"/>
      <point x="926" y="563"/>
      <point x="917" y="601"/>
      <point x="900" y="632" type="curve" smooth="yes"/>
      <point x="865" y="695"/>
      <point x="802" y="730"/>
      <point x="726" y="730" type="curve" smooth="yes"/>
      <point x="688" y="730"/>
      <point x="654" y="722"/>
      <point x="624" y="705" type="curve" smooth="yes"/>
      <point x="563" y="671"/>
      <point x="526" y="607"/>
      <point x="526" y="520" type="curve" smooth="yes"/>
      <point x="526" y="477"/>
      <point x="535" y="439"/>
      <point x="552" y="408" type="curve" smooth="yes"/>
      <point x="587" y="345"/>
      <point x="650" y="310"/>
    </contour>
  </outline>
</glyph>
<glyph name="aogonek" format="2">
  <advance width="1203"/>
  <unicode hex="0105"/>
  <anchor x="570" y="1040" name="top"/>
  <anchor x="570" y="0" name="bottom"/>
  <outline>
    <contour>
      <point x="838" y="-450" type="curve" smooth="yes"/>
      <point x="765" y="-450"/>
      <point x="706" y="-428"/>
      <point x="659" y="-385" type="curve" smooth="yes"/>
      <point x="612" y="-342"/>
      <point x="588" y="-286"/>
      <point x="588" y="-219" type="curve" smooth="yes"/>
      <point x="588" y="-156"/>
      <point x="608" y="-101"/>
      <point x="648" y="-52" type="curve" smooth="yes"/>
      <point x="728" y="45"/>
      <point x="877" y="108"/>
      <point x="1069" y="116" type="curve"/>
      <point x="1088" y="0" type="line"/>
      <point x="1028" y="0"/>
      <point x="978" y="-6"/>
      <point x="939" y="-19" type="curve"/>
      <point x="860" y="-43"/>
      <point x="822" y="-88"/>
      <point x="822" y="-145" type="curve" smooth="yes"/>
      <point x="822" y="-192"/>
      <point x="855" y="-222"/>
      <point x="904" y="-222" type="curve" smooth="yes"/>
      <point x="940" y="-222"/>
      <point x="978" y="-203"/>
      <point x="1006" y="-174" type="curve"/>
      <point x="1093" y="-370" type="line"/>
      <point x="1020" y="-422"/>
      <point x="930" y="-450"/>
    </contour>
    <contour>
      <point x="422" y="-30" type="curve" smooth="yes"/>
      <point x="355" y="-30"/>
      <point x="294" y="-17"/>
      <point x="239" y="10" type="curve" smooth="yes"/>
      <point x="128" y="63"/>
      <point x="56" y="165"/>
      <point x="56" y="308" type="curve" smooth="yes"/>
      <point x="56" y="432"/>
      <point x="117" y="526"/>
      <point x="236" y="586" type="curve" smooth="yes"/>
      <point x="355" y="645"/>
      <point x="531" y="667"/>
      <point x="760" y="648" type="curve"/>
      <point x="762" y="410" type="line"/>
      <point x="671" y="430"/>
      <point x="586" y="435"/>
      <point x="522" y="423" type="curve" smooth="yes"/>
      <point x="458" y="411"/>
      <point x="418" y="382"/>
      <point x="418" y="331" type="curve" smooth="yes"/>
      <point x="418" y="276"/>
      <point x="466" y="250"/>
      <point x="537" y="250" type="curve" smooth="yes"/>
      <point x="569" y="250"/>
      <point x="598" y="255"/>
      <point x="624" y="266" type="curve" smooth="yes"/>
      <point x="675" y="287"/>
      <point x="708" y="331"/>
      <point x="708" y="402" type="curve" smooth="yes"/>
      <point x="708" y="614" type="line" smooth="yes"/>
      <point x="708" y="646"/>
      <point x="702" y="675"/>
      <point x="689" y="700" type="curve" smooth="yes"/>
      <point x="664" y="750"/>
      <point x="607" y="780"/>
      <point x="500" y="780" type="curve" smooth="yes"/>
      <point x="393" y="780"/>
      <point x="283" y="747"/>
      <point x="204" y="688" type="curve"/>
      <point x="106" y="954" type="line"/>
      <point x="245" y="1038"/>
      <point x="413" y="1080"/>
      <point x="570" y="1080" type="curve" smooth="yes"/>
      <point x="669" y="1080"/>
      <point x="758" y="1064"/>
      <point x="836" y="1033" type="curve" smooth="yes"/>
      <point x="992" y="969"/>
      <point x="1088" y="836"/>
      <point x="1088" y="620" type="curve" smooth="yes"/>
      <point x="1088" y="0" type="line"/>
      <point x="748" y="0" type="line"/>
      <point x="748" y="102" type="line"/>
      <point x="684" y="18"/>
      <point x="569" y="-30"/>
    </contour>
  </outline>
</glyph>
<glyph name="dcroat" format="2">
  <advance width="1364"/>
  <unicode hex="0111"/>
  <outline>
    <contour>
      <point x="558" y="1118" type="line"/>
      <point x="558" y="1330" type="line"/>
      <point x="1358" y="1330" type="line"/>
      <point x="1358" y="1118" type="line"/>
    </contour>
    <contour>
      <point x="564" y="-30" type="qcurve" smooth="yes"/>
      <point x="491" y="-30"/>
      <point x="361" y="3"/>
      <point x="302" y="38" type="qcurve"/>
      <point x="243" y="71"/>
      <point x="152" y="165"/>
      <point x="119" y="227" type="qcurve"/>
      <point x="84" y="289"/>
      <point x="50" y="436"/>
      <point x="50" y="520" type="qcurve" smooth="yes"/>
      <point x="50" y="639"/>
      <point x="128" y="839"/>
      <point x="197" y="914" type="qcurve"/>
      <point x="268" y="989"/>
      <point x="457" y="1070"/>
      <point x="572" y="1070" type="qcurve" smooth="yes"/>
      <point x="625" y="1070"/>
      <point x="723" y="1051"/>
      <point x="769" y="1030" type="qcurve" smooth="yes"/>
      <point x="813" y="1010"/>
      <point x="894" y="946"/>
      <point x="930" y="900" type="qcurve"/>
      <point x="836" y="808" type="line"/>
      <point x="836" y="1440" type="line"/>
      <point x="1236" y="1440" type="line"/>
      <point x="1236" y="0" type="line"/>
      <point x="896" y="0" type="line"/>
      <point x="896" y="282" type="line"/>
      <point x="950" y="192" type="line"/>
      <point x="932" y="142"/>
      <point x="861" y="62"/>
      <point x="810" y="31" type="qcurve"/>
      <point x="757" y="1"/>
      <point x="634" y="-30"/>
    </contour>
    <contour>
      <point x="638" y="310" type="qcurve" smooth="yes"/>
      <point x="667" y="310"/>
      <point x="718" y="323"/>
      <point x="740" y="336" type="qcurve" smooth="yes"/>
      <point x="786" y="362"/>
      <point x="838" y="454"/>
      <point x="838" y="520" type="qcurve" smooth="yes"/>
      <point x="838" y="552"/>
      <point x="826" y="610"/>
      <point x="813" y="632" type="qcurve"/>
      <point x="787" y="681"/>
      <point x="696" y="730"/>
      <point x="638" y="730" type="qcurve" smooth="yes"/>
      <point x="609" y="730"/>
      <point x="560" y="718"/>
      <point x="536" y="705" type="qcurve" smooth="yes"/>
      <point x="490" y="680"/>
      <point x="438" y="586"/>
      <point x="438" y="520" type="qcurve" smooth="yes"/>
      <point x="438" y="488"/>
      <point x="451" y="432"/>
      <point x="466" y="409" type="qcurve"/>
      <point x="492" y="360"/>
      <point x="582" y="310"/>
    </contour>
  </outline>
</glyph>
<glyph name="eogonek" format="2">
  <advance width="1223"/>
  <unicode hex="0119"/>
  <outline>
    <contour>
      <point x="830" y="-450" type="curve" smooth="yes"/>
      <point x="923" y="-450"/>
      <point x="1013" y="-421"/>
      <point x="1086" y="-369" type="curve"/>
      <point x="998" y="-173" type="line"/>
      <point x="971" y="-202"/>
      <point x="932" y="-222"/>
      <point x="896" y="-222" type="curve" smooth="yes"/>
      <point x="873" y="-222"/>
      <point x="853" y="-213"/>
      <point x="838" y="-200" type="curve" smooth="yes"/>
      <point x="823" y="-187"/>
      <point x="814" y="-168"/>
      <point x="814" y="-145" type="curve" smooth="yes"/>
      <point x="814" y="-88"/>
      <point x="851" y="-43"/>
      <point x="931" y="-19" type="curve"/>
      <point x="971" y="-4"/>
      <point x="1020" y="0"/>
      <point x="1080" y="0" type="curve"/>
      <point x="1062" y="116" type="line"/>
      <point x="867" y="109"/>
      <point x="721" y="45"/>
      <point x="641" y="-52" type="curve" smooth="yes"/>
      <point x="600" y="-100"/>
      <point x="581" y="-154"/>
      <point x="580" y="-219" type="curve"/>
      <point x="581" y="-287"/>
      <point x="604" y="-341"/>
      <point x="652" y="-385" type="curve" smooth="yes"/>
      <point x="697" y="-426"/>
      <point x="758" y="-450"/>
    </contour>
    <contour>
      <point x="632" y="-30" type="curve" smooth="yes"/>
      <point x="740" y="-30"/>
      <point x="866" y="-5"/>
      <point x="971" y="34" type="curve"/>
      <point x="1027" y="53"/>
      <point x="1066" y="77"/>
      <point x="1097" y="98" type="curve"/>
      <point x="980" y="362" type="line"/>
      <point x="927" y="331"/>
      <point x="874" y="308"/>
      <point x="818" y="293" type="curve" smooth="yes"/>
      <point x="762" y="278"/>
      <point x="704" y="270"/>
      <point x="640" y="270" type="curve" smooth="yes"/>
      <point x="552" y="270"/>
      <point x="483" y="296"/>
      <point x="443" y="336" type="curve" smooth="yes"/>
      <point x="423" y="357"/>
      <point x="412" y="383"/>
      <point x="408" y="408" type="curve"/>
      <point x="1158" y="408" type="line"/>
      <point x="1197" y="601"/>
      <point x="1160" y="758"/>
      <point x="1063" y="882" type="curve" smooth="yes"/>
      <point x="967" y="1003"/>
      <point x="821" y="1070"/>
      <point x="628" y="1070" type="curve" smooth="yes"/>
      <point x="456" y="1070"/>
      <point x="318" y="1015"/>
      <point x="213" y="918" type="curve"/>
      <point x="109" y="818"/>
      <point x="50" y="683"/>
      <point x="50" y="522" type="curve" smooth="yes"/>
      <point x="50" y="299"/>
      <point x="148" y="132"/>
      <point x="327" y="40" type="curve"/>
      <point x="415" y="-8"/>
      <point x="515" y="-30"/>
    </contour>
    <contour>
      <point x="782" y="668" type="curve"/>
      <point x="434" y="668" type="line"/>
      <point x="437" y="705"/>
      <point x="455" y="733"/>
      <point x="491" y="757" type="curve" smooth="yes"/>
      <point x="524" y="780"/>
      <point x="565" y="790"/>
      <point x="616" y="790" type="curve" smooth="yes"/>
      <point x="667" y="790"/>
      <point x="707" y="780"/>
      <point x="736" y="757" type="curve"/>
      <point x="768" y="733"/>
      <point x="783" y="705"/>
    </contour>
  </outline>
</glyph>
<glyph name="Hbar" format="2">
  <advance width="1628"/>
  <unicode hex="0126"/>
  <outline>
    <contour>
      <point x="1048" y="0" type="line"/>
      <point x="1452" y="0" type="line"/>
      <point x="1452" y="1400" type="line"/>
      <point x="1048" y="1400" type="line"/>
    </contour>
    <contour>
      <point x="176" y="0" type="line"/>
      <point x="580" y="0" type="line"/>
      <point x="580" y="1400" type="line"/>
      <point x="176" y="1400" type="line"/>
    </contour>
    <contour>
      <point x="548" y="458" type="line"/>
      <point x="1080" y="458" type="line"/>
      <point x="1080" y="826" type="line"/>
      <point x="548" y="826" type="line"/>
    </contour>
    <contour>
      <point x="16" y="956" type="line"/>
      <point x="1612" y="956" type="line"/>
      <point x="1612" y="1264" type="line"/>
      <point x="16" y="1264" type="line"/>
    </contour>
  </outline>
</glyph>
<glyph name="idotless" format="2">
  <advance width="656"/>
  <unicode hex="0131"/>
  <anchor x="328" y="1040" name="top"/>
  <anchor x="328" y="0" name="bottom"/>
  <outline>
    <contour>
      <point x="128" y="0" type="line"/>
      <point x="128" y="1040" type="line"/>
      <point x="528" y="1040" type="line"/>
      <point x="528" y="0" type="line"/>
    </contour>
  </outline>
</glyph>
<glyph name="Lslash" format="2">
  <advance width="1190"/>
  <unicode hex="0141"/>
  <outline>
    <contour>
      <point x="46" y="388" type="line"/>
      <point x="-89" y="674" type="line"/>
      <point x="370" y="886" type="line"/>
      <point x="370" y="846" type="line"/>
      <point x="958" y="1122" type="line"/>
      <point x="1091" y="836" type="line"/>
      <point x="370" y="498" type="line"/>
      <point x="370" y="538" type="line"/>
    </contour>
    <contour>
      <point x="196" y="0" type="line"/>
      <point x="196" y="1400" type="line"/>
      <point x="600" y="1400" type="line"/>
      <point x="600" y="368" type="line"/>
      <point x="1130" y="368" type="line"/>
      <point x="1130" y="0" type="line"/>
    </contour>
  </outline>
</glyph>
<glyph name="lslash" format="2">
  <advance width="836"/>
  <unicode hex="0142"/>
  <anchor x="418" y="1440" name="top"/>
  <anchor x="618" y="1440" name="Anchor_2"/>
  <anchor x="418" y="0" name="bottom"/>
  <outline>
    <contour>
      <point x="95" y="373" type="line"/>
      <point x="-43" y="655" type="line"/>
      <point x="418" y="878" type="line"/>
      <point x="418" y="838" type="line"/>
      <point x="741" y="988" type="line"/>
      <point x="879" y="704" type="line"/>
      <point x="418" y="490" type="line"/>
      <point x="418" y="530" type="line"/>
    </contour>
    <contour>
      <point x="602" y="-28" type="qcurve" smooth="yes"/>
      <point x="486" y="-28"/>
      <point x="313" y="59"/>
      <point x="218" y="241"/>
      <point x="218" y="384" type="qcurve" smooth="yes"/>
      <point x="218" y="1440" type="line"/>
      <point x="618" y="1440" type="line"/>
      <point x="618" y="426" type="line" smooth="yes"/>
      <point x="618" y="360"/>
      <point x="666" y="306"/>
      <point x="708" y="306" type="qcurve" smooth="yes"/>
      <point x="726" y="306"/>
      <point x="768" y="315"/>
      <point x="790" y="322" type="qcurve"/>
      <point x="838" y="8" type="line"/>
      <point x="774" y="-10"/>
      <point x="656" y="-28"/>
    </contour>
  </outline>
</glyph>
<glyph name="Eng" format="2">
  <advance width="1596"/>
  <unicode hex="014A"/>
  <outline>
    <contour>
      <point x="1068" y="-50" type="line"/>
      <point x="546" y="764" type="line"/>
      <point x="546" y="0" type="line"/>
      <point x="156" y="0" type="line"/>
      <point x="156" y="1400" type="line"/>
      <point x="560" y="1400" type="line"/>
      <point x="1068" y="622" type="line"/>
    </contour>
    <contour>
      <point x="1028" y="-450" type="qcurve" smooth="yes"/>
      <point x="984" y="-450"/>
      <point x="912" y="-444"/>
      <point x="882" y="-436" type="qcurve" smooth="yes"/>
      <point x="854" y="-429"/>
      <point x="793" y="-406"/>
      <point x="760" y="-390" type="qcurve"/>
      <point x="834" y="-100" type="line"/>
      <point x="862" y="-112"/>
      <point x="914" y="-126"/>
      <point x="944" y="-126" type="qcurve" smooth="yes"/>
      <point x="997" y="-126"/>
      <point x="1050" y="-78"/>
      <point x="1050" y="-40" type="qcurve" smooth="yes"/>
      <point x="1050" y="1400" type="line"/>
      <point x="1440" y="1400" type="line"/>
      <point x="1440" y="-36" type="line" smooth="yes"/>
      <point x="1440" y="-97"/>
      <point x="1414" y="-203"/>
      <point x="1388" y="-252" type="qcurve"/>
      <point x="1336" y="-345"/>
      <point x="1152" y="-450"/>
    </contour>
  </outline>
</glyph>
<glyph name="eng" format="2">
  <advance width="1358"/>
  <unicode hex="014B"/>
  <outline>
    <contour>
      <point x="828" y="-450" type="curve" smooth="yes"/>
      <point x="769" y="-450"/>
      <point x="721" y="-446"/>
      <point x="682" y="-437" type="curve" smooth="yes"/>
      <point x="643" y="-428"/>
      <point x="602" y="-413"/>
      <point x="560" y="-390" type="curve"/>
      <point x="634" y="-100" type="line"/>
      <point x="669" y="-117"/>
      <point x="701" y="-126"/>
      <point x="738" y="-126" type="curve" smooth="yes"/>
      <point x="806" y="-126"/>
      <point x="840" y="-90"/>
      <point x="840" y="-14" type="curve" smooth="yes"/>
      <point x="840" y="536" type="line" smooth="yes"/>
      <point x="840" y="591"/>
      <point x="828" y="634"/>
      <point x="803" y="665" type="curve" smooth="yes"/>
      <point x="778" y="695"/>
      <point x="739" y="710"/>
      <point x="686" y="710" type="curve" smooth="yes"/>
      <point x="652" y="710"/>
      <point x="623" y="703"/>
      <point x="600" y="688" type="curve" smooth="yes"/>
      <point x="553" y="659"/>
      <point x="528" y="604"/>
      <point x="528" y="536" type="curve" smooth="yes"/>
      <point x="528" y="0" type="line"/>
      <point x="128" y="0" type="line"/>
      <point x="128" y="1040" type="line"/>
      <point x="528" y="1040" type="line"/>
      <point x="528" y="944" type="line"/>
      <point x="564" y="987"/>
      <point x="606" y="1019"/>
      <point x="655" y="1040" type="curve" smooth="yes"/>
      <point x="704" y="1060"/>
      <point x="756" y="1070"/>
      <point x="812" y="1070" type="curve" smooth="yes"/>
      <point x="911" y="1070"/>
      <point x="993" y="1051"/>
      <point x="1056" y="1012" type="curve" smooth="yes"/>
      <point x="1119" y="973"/>
      <point x="1165" y="923"/>
      <point x="1195" y="861" type="curve" smooth="yes"/>
      <point x="1225" y="799"/>
      <point x="1240" y="733"/>
      <point x="1240" y="662" type="curve" smooth="yes"/>
      <point x="1240" y="-36" type="line" smooth="yes"/>
      <point x="1240" y="-117"/>
      <point x="1223" y="-189"/>
      <point x="1188" y="-252" type="curve" smooth="yes"/>
      <point x="1119" y="-376"/>
      <point x="991" y="-450"/>
    </contour>
  </outline>
</glyph>
